<svg xmlns="http://www.w3.org/2000/svg" viewBox="0 0 72 72">
  <g id="color">
    <path fill="#6a462f" d="M30 13c11 0 13 9 13 14s-2 12-8 12-12-6-12-13 2-13 7-13z" />
    <path fill="#b5651d" d="M42 34c-2 0-3-2-3-3 0-2 2-3 3-3s3 1 3 3c0 1-1 3-3 3z" />
  </g>
  <g id="line">
    <circle cx="42" cy="31" r="2" fill="none" stroke="#000" stroke-linecap="round" stroke-linejoin="round" stroke-miterlimit="10" stroke-width="2" />
    <path d="M30 12c11 0 13 9 13 14s-2 12-8 12-12-6-12-13 2-13 7-13z" fill="none" stroke="#000" stroke-linecap="round" stroke-linejoin="round" stroke-miterlimit="10" stroke-width="2" />
  </g>
</svg>
