<svg width="32" height="32" viewBox="0 0 32 32" fill="none" xmlns="http://www.w3.org/2000/svg">
<g clip-path="url(#clip0_116_1782)">
<path d="M15.9141 0C7.12496 0 0 7.12485 0 15.9141C0 19.8768 1.44886 23.501 3.84517 26.2867C3.12545 28.3555 1.7949 30.1383 0.0691462 31.419C1.19392 31.8039 2.3746 32.0002 3.56341 32C5.65581 32 7.60888 31.4047 9.26352 30.3751C11.2873 31.3074 13.5397 31.8283 15.9141 31.8283C24.7032 31.8283 31.8282 24.7032 31.8282 15.9141C31.8283 7.12485 24.7033 0 15.9141 0Z" fill="url(#paint0_linear_116_1782)"/>
<path d="M15.9142 11.0799C14.2365 9.40223 11.5167 9.40223 9.83903 11.0798C8.1614 12.7574 8.1614 15.4774 9.83903 17.155L15.9141 23.23L21.9892 17.1548C23.6668 15.4772 23.6669 12.7573 21.9893 11.0796C20.3117 9.40213 17.5917 9.40223 15.9142 11.0799Z" fill="white"/>
</g>
<defs>
<linearGradient id="paint0_linear_116_1782" x1="15.9141" y1="0" x2="15.9141" y2="32" gradientUnits="userSpaceOnUse">
<stop stop-color="#F981E1"/>
<stop offset="1" stop-color="#FF2F90"/>
</linearGradient>
<clipPath id="clip0_116_1782">
<rect width="32" height="32" fill="white"/>
</clipPath>
</defs>
</svg>
