<svg width="32" height="32" viewBox="0 0 32 32" fill="none" xmlns="http://www.w3.org/2000/svg">
<rect x="2" y="7" width="27" height="18" fill="white"/>
<path d="M31.6469 10.0219L31.6419 9.97376C31.48 8.41761 30.788 6.96445 29.6817 5.8581C28.5755 4.75174 27.1224 4.0595 25.5662 3.89751C23.2856 3.66001 19.5275 3.54001 16 3.54001C12.4725 3.54001 8.71438 3.66001 6.43375 3.89751C4.87761 4.0595 3.42453 4.75174 2.31829 5.8581C1.21205 6.96445 0.519953 8.41761 0.358125 9.97376L0.353125 10.0213C0.155625 11.9144 0 12.2181 0 16.2113C0 20.2044 0.155625 20.8481 0.353125 22.7413L0.358125 22.7888C0.51975 24.3449 1.21179 25.7981 2.31809 26.9044C3.42438 28.0107 4.87758 28.7028 6.43375 28.8644C8.71438 29.1019 12.4725 29.2225 16 29.2225C19.5275 29.2225 23.2856 29.1025 25.5656 28.8644C27.1219 28.7029 28.5752 28.0109 29.6817 26.9046C30.7881 25.7983 31.4802 24.345 31.6419 22.7888L31.6469 22.7406C31.8444 20.8475 32 20.2031 32 16.2113C32 12.2194 31.8444 11.915 31.6469 10.0219ZM8.88 8.87688C9.59872 8.87627 10.3015 9.08883 10.8994 9.4877C11.4973 9.88656 11.9634 10.4538 12.2389 11.1176C12.5143 11.7815 12.5867 12.5121 12.4468 13.2171C12.3069 13.9221 11.9611 14.5697 11.453 15.0781C10.945 15.5865 10.2976 15.9328 9.59268 16.0732C8.8878 16.2135 8.15712 16.1417 7.49308 15.8667C6.82904 15.5917 6.26148 15.1259 5.86221 14.5283C5.46293 13.9307 5.24988 13.2281 5.25 12.5094C5.25 11.5464 5.63237 10.6229 6.31305 9.9417C6.99374 9.26055 7.91703 8.87755 8.88 8.87688ZM14.9425 21.2781V21.2938C14.8812 21.829 14.6566 22.3324 14.2994 22.7356C13.9481 23.1463 13.4742 23.4331 12.9475 23.5538C12.1975 23.7231 10.3294 23.89 9.1625 23.8825C7.99625 23.9113 5.705 23.73 4.95563 23.5519C4.42882 23.4315 3.95481 23.1446 3.60375 22.7338C3.24661 22.3307 3.02208 21.8275 2.96062 21.2925V21.2763C2.92178 20.8905 2.90987 20.5024 2.925 20.115C2.90984 19.7937 2.92176 19.4718 2.96062 19.1525V19.1369C3.0152 18.6274 3.24312 18.1521 3.60625 17.7906C3.97121 17.4255 4.44944 17.1952 4.9625 17.1375C5.7125 17.0581 8 17.0125 9.16187 17.0125C10.3237 17.0125 12.1894 17.0556 12.9406 17.1375C13.4538 17.1951 13.9321 17.4257 14.2969 17.7913C14.6582 18.1535 14.8843 18.6287 14.9375 19.1375V19.1531C14.9749 19.4722 14.9937 19.7931 14.9937 20.1144C14.9967 20.503 14.9792 20.8914 14.9412 21.2781H14.9425ZM23.0625 20.1706H18.8081C18.6254 20.1706 18.4445 20.1346 18.2757 20.0647C18.1069 19.9948 17.9536 19.8923 17.8244 19.7631C17.6952 19.634 17.5927 19.4806 17.5228 19.3118C17.4529 19.143 17.4169 18.9621 17.4169 18.7794C17.4169 18.5967 17.4529 18.4158 17.5228 18.247C17.5927 18.0782 17.6952 17.9248 17.8244 17.7956C17.9536 17.6664 18.1069 17.564 18.2757 17.494C18.4445 17.4241 18.6254 17.3881 18.8081 17.3881H23.0625C23.4315 17.3881 23.7854 17.5347 24.0463 17.7956C24.3072 18.0565 24.4538 18.4104 24.4538 18.7794C24.4538 19.1484 24.3072 19.5022 24.0463 19.7631C23.7854 20.0241 23.4315 20.1706 23.0625 20.1706ZM27.2725 15.3744H18.8081C18.4442 15.3667 18.0977 15.2167 17.843 14.9565C17.5884 14.6964 17.4457 14.3469 17.4457 13.9828C17.4457 13.6188 17.5884 13.2692 17.843 13.0091C18.0977 12.749 18.4442 12.599 18.8081 12.5913H27.2719C27.6358 12.599 27.9823 12.749 28.237 13.0091C28.4916 13.2692 28.6343 13.6188 28.6343 13.9828C28.6343 14.3469 28.4916 14.6964 28.237 14.9565C27.9823 15.2167 27.6358 15.3667 27.2719 15.3744H27.2725Z" fill="url(#paint0_linear_116_1751)"/>
<defs>
<linearGradient id="paint0_linear_116_1751" x1="16" y1="29.2225" x2="16" y2="3.54001" gradientUnits="userSpaceOnUse">
<stop offset="0.011" stop-color="#EF4136"/>
<stop offset="1" stop-color="#FBB040"/>
</linearGradient>
</defs>
</svg>
