<svg width="32" height="32" viewBox="0 0 32 32" fill="none" xmlns="http://www.w3.org/2000/svg">
<path d="M19.4256 27.9476C18.6454 27.9846 18.0156 27.6592 17.6799 26.9164C17.5677 26.6657 17.4046 26.8223 17.3106 26.9883C16.9594 27.6027 16.4592 27.9705 15.7246 27.9651C15.5293 27.9651 15.3332 27.9879 15.1371 28H14.6248C14.5907 27.9872 14.5557 27.9768 14.5201 27.9691C14.0449 27.9024 13.6107 27.6632 13.3001 27.2969C13.1423 27.112 12.9731 27.0596 12.7415 27.075C12.3158 27.1046 11.8888 27.1208 11.4658 27.1194C10.7876 27.1194 10.286 26.6784 10.2216 26.0291C10.2021 25.8368 10.2364 25.6392 10.2471 25.424C9.73019 25.3779 9.22096 25.268 8.73101 25.0967L8.97541 25.0073C8.74645 24.8822 8.49534 24.7821 8.28921 24.6234C8.08053 24.4496 7.89101 24.254 7.72386 24.0399C7.5795 23.8658 7.30086 23.5378 7.24849 23.3233C7.32922 23.3887 7.41989 23.4407 7.51706 23.4773C7.19075 22.7553 6.77714 21.7201 7.14307 20.9712C7.17329 21.113 7.21022 21.2562 7.24647 21.3967C7.32906 21.031 7.37338 20.5436 7.68358 20.3003V20.502C8.12404 20.0717 8.18648 19.9064 8.42215 19.8439C8.00184 20.6095 7.71178 21.2206 8.5081 21.9278C9.01039 22.3746 9.62774 22.6716 10.2901 22.7849C10.5868 22.8386 10.8883 22.8635 11.1958 22.9025C11.222 22.7533 11.2475 22.639 11.263 22.5227C11.3697 21.6327 11.7189 20.863 12.3621 20.2277C12.457 20.1203 12.5188 19.9877 12.54 19.8459C12.5991 19.5151 12.6287 19.1783 12.6683 18.8442C12.6737 18.7972 12.6683 18.7481 12.6683 18.6742L12.2889 19.0735C12.2218 18.939 12.583 18.1666 12.6522 17.9845C12.7065 17.8566 12.7513 17.7249 12.7865 17.5905C12.8281 17.4023 12.7502 17.3176 12.5602 17.3149H12.3883C12.724 16.7845 13.2014 16.435 13.6566 16.041C13.098 15.6027 12.4971 15.3816 11.7894 15.4589L12.1506 15.2539C12.1506 15.2539 11.7202 15.2008 11.6276 15.1745C11.6215 15.1745 12.4575 14.9473 12.575 14.8942C12.4722 14.874 10.9716 14.6616 10.8064 14.5399C10.9415 14.5572 11.0779 14.5628 11.214 14.5568C11.0125 14.4559 10.8057 14.3242 10.6097 14.2106C11.028 14.2334 11.4342 14.2549 11.7625 13.8899C11.1133 13.7891 10.5593 13.5538 10.1571 12.9965C10.3274 13.0351 10.4998 13.0631 10.6735 13.0805C10.8507 13.0879 10.989 12.9817 11.1435 12.8412C10.6902 12.85 10.3149 12.7498 10.0289 12.3707C10.3794 12.3787 10.6761 12.3102 10.8924 12.0507C11.0938 11.81 11.1938 11.5223 11.2825 11.1949L10.7211 11.1707C10.7211 11.1707 11.0381 10.957 11.1112 10.926C11.2576 10.8635 11.4073 10.8689 11.5497 10.8097C11.355 10.7465 10.9984 10.5207 10.8024 10.4131L11.1086 10.3022L10.6963 10.0501L11.0622 9.99365C10.9474 9.40141 10.4888 9.12849 10.0551 8.81388L10.7393 8.86497C10.7278 8.79775 10.7218 8.75943 10.7124 8.71843C10.5721 8.10737 10.4244 7.49967 10.2901 6.89063C10.1612 6.32327 10.0215 5.75792 10.0289 5.1677C10.0504 3.82324 14.2166 6.48191 14.7054 6.80794C14.9109 6.63921 15.1083 6.47183 15.3144 6.30915C15.7246 5.97303 16.1611 5.69406 16.6942 5.60129C16.7674 5.58852 16.8426 5.58852 16.9164 5.58247C16.9164 5.59188 16.9164 5.60196 16.9211 5.61137L16.6438 5.83523C16.999 5.7317 17.3462 5.63692 17.7181 5.73103L17.1138 5.93942C17.1172 5.95152 17.1212 5.96362 17.1246 5.97505C17.512 5.90379 17.8987 5.83186 18.2862 5.76195C18.83 5.66313 19.3417 5.49306 19.7506 5.09644C19.7559 5.09107 19.77 5.09644 19.7875 5.09308C19.7938 5.2873 19.728 5.47698 19.6028 5.62549C19.4687 5.75588 19.3261 5.87715 19.1758 5.98849C19.3887 5.96698 19.6109 5.94413 19.8029 5.85405C19.995 5.76397 20.1621 5.60801 20.3367 5.48365C20.3367 5.79086 20.1534 6.02143 19.9688 6.25066L19.9728 6.25806L19.9641 6.24798C20.0121 6.23391 20.0591 6.21615 20.1044 6.19487L23.1473 4.45715C24.1135 3.90458 24.1337 4.60504 24.0652 5.42113C23.9967 6.23722 23.8933 7.04524 23.8026 7.8573C23.7778 8.07779 23.7489 8.29761 23.7201 8.54028L24.3727 8.42063C24.3404 8.47265 24.2987 8.51824 24.2498 8.55507C24.0706 8.70633 23.8879 8.85354 23.7127 9.0095C23.6422 9.06884 23.5899 9.14687 23.5618 9.23463C23.5336 9.32238 23.5308 9.4163 23.5535 9.50561C23.624 9.51099 23.7382 9.53788 23.8295 9.53653C23.6576 9.63396 23.4935 9.74454 23.3387 9.86727C23.3897 9.86256 23.8255 9.77786 23.8812 9.77047C23.8255 9.89012 23.4313 10.2672 23.3165 10.3876C23.7073 10.4185 24.1082 10.4165 24.4848 10.5261C24.129 10.6504 23.755 10.7586 23.3944 10.8723C23.6052 11.361 24.0477 11.2574 24.4439 11.3233C24.3344 11.3953 23.8879 11.6675 23.8261 11.7394C24.2431 11.89 24.699 11.5431 25.0347 11.3542C24.7796 11.8867 23.8026 12.9172 23.4481 13.2513C23.381 13.3185 23.3138 13.3777 23.2178 13.4651C23.7295 13.5383 24.1578 13.4072 24.5714 13.1962C24.3539 13.4839 24.0712 13.5827 23.8423 13.8012C23.9849 13.8051 24.1276 13.7941 24.268 13.7682C24.1048 13.9309 23.0527 14.3618 22.7572 14.5077H23.2454C22.8271 15.03 22.3054 15.3614 21.6836 15.5833C22.0777 15.9543 22.6451 16.4289 22.9882 16.8208C22.8989 16.8132 22.8092 16.8105 22.7196 16.8128C22.5672 16.8128 22.5182 16.8632 22.5182 17.0144C22.5209 17.0572 22.527 17.0997 22.5363 17.1415C22.6396 17.6886 22.8446 18.2115 23.1406 18.6829C23.1984 18.773 23.2695 18.8711 23.3172 18.9646C23.1614 18.8974 22.9862 18.7932 22.8331 18.7118C22.8774 19.0446 22.9224 19.3397 22.9526 19.6361C22.9554 19.7115 22.9781 19.7847 23.0183 19.8485C23.0585 19.9122 23.1148 19.9642 23.1816 19.9991C23.6467 20.273 23.9974 20.7058 24.1693 21.2179C24.4828 22.1153 24.4526 23.0235 24.2257 23.933C24.18 24.1172 24.1209 24.2981 24.0732 24.4607C24.2267 24.5705 24.3744 24.688 24.5157 24.813C24.7268 25.0247 24.8648 25.2985 24.9095 25.5943C24.9542 25.8901 24.9033 26.1925 24.7641 26.4573C24.3062 27.317 23.2997 27.112 22.4947 27.0777C22.063 27.0596 22.0536 26.9924 21.7252 27.2996C20.7725 28.1903 20.608 27.8925 19.4289 27.9476M15.7166 12.9615C15.6742 12.9794 15.6331 13.0003 15.5937 13.0241C15.3211 13.2096 15.0317 13.293 14.7249 13.1262C14.3892 12.9468 14.1555 12.6745 14.1877 12.2759C14.2045 12.0507 14.3073 11.8315 14.371 11.6097H14.3764V11.6151C14.1824 11.6695 14.0817 11.8167 14.0239 11.9929C13.9582 12.195 13.9569 12.4125 14.02 12.6154C14.0832 12.8183 14.2077 12.9966 14.3764 13.1256C14.551 13.2456 14.7576 13.3102 14.9693 13.3109C15.1811 13.3117 15.3882 13.2485 15.5635 13.1296C15.6211 13.079 15.6729 13.0222 15.7179 12.9602L15.7267 12.9528C15.7245 12.9562 15.7227 12.9598 15.7213 12.9636M12.1144 8.29156L12.5944 8.43676C12.4306 8.14165 12.1056 8.08317 11.8471 7.93259L11.8713 7.87545L12.8731 8.20282C12.5353 7.71075 12.0042 7.49564 11.5356 7.19112L12.4152 7.46001C12.4205 7.44589 12.4252 7.4311 12.4306 7.41699L11.6021 6.95785C12.1849 7.01163 12.6206 7.35581 13.0658 7.68319C12.8187 7.23347 12.4722 6.87584 12.0821 6.55451C12.0329 6.50895 11.9865 6.46046 11.9431 6.40931L11.9398 6.41267C12.2956 6.62644 12.6629 6.82408 13.0047 7.05801C13.5096 7.40354 13.8668 7.86469 14.0011 8.47777C14.0011 8.49323 14.0199 8.50667 14.0326 8.52617C14.2905 8.07779 14.2582 7.69462 13.8896 7.30136C13.1559 6.5307 12.2902 5.89798 11.3335 5.43323C11.1322 5.33472 10.9242 5.2507 10.7111 5.18182C10.4626 5.10048 10.372 5.16837 10.3586 5.42718C10.3508 5.56578 10.3508 5.7047 10.3586 5.84329C10.4351 6.98609 10.791 8.04888 11.2449 9.08546C11.4372 9.53462 11.7258 9.93599 12.0902 10.2612C12.1177 10.2861 12.3735 10.4434 12.4299 10.4743C12.4131 10.4306 12.3688 10.3029 12.3581 10.2861C12.1137 9.89147 11.8666 9.49821 11.6195 9.10361C11.5939 9.05331 11.5715 9.00145 11.5524 8.94833C11.7175 9.13454 11.8881 9.31671 12.0459 9.50695C12.2037 9.69719 12.3614 9.9029 12.5353 10.1227C12.5977 9.91713 12.5872 9.69631 12.5058 9.49754C12.417 9.31843 12.3193 9.14387 12.2131 8.97455L12.2399 8.94766L12.9543 9.472L12.9919 9.42494L12.0251 8.52012L12.064 8.47642L12.912 9.12849C12.7529 8.74195 12.442 8.50802 12.115 8.28753L12.1144 8.29156ZM15.207 22.2545H15.1962H15.2103C15.2163 22.3004 15.2276 22.3455 15.2439 22.3889C15.4084 22.7129 15.5796 23.0349 15.7421 23.3576C15.8032 23.4773 15.8623 23.5983 15.9375 23.7482C15.5318 23.6763 15.1369 23.5527 14.7625 23.3805C14.4891 23.2564 14.2465 23.0733 14.0521 22.8444C13.8577 22.6154 13.7162 22.3463 13.6378 22.0562C13.6271 22.0199 13.613 21.9842 13.6009 21.9479C13.5732 22.0199 13.5562 22.0955 13.5506 22.1725C13.4566 23.1035 13.5955 23.9808 14.1307 24.774C14.2992 25.0227 14.5026 25.1632 14.8075 25.1901C15.0681 25.2248 15.3267 25.273 15.5823 25.3346C15.4186 25.3619 15.2524 25.3707 15.0868 25.3609C14.7719 25.3407 14.4583 25.3272 14.1468 25.4119C13.513 25.5787 13.192 26.1749 13.4028 26.7887C13.4238 26.8695 13.4615 26.9451 13.5134 27.0105C13.5654 27.0759 13.6304 27.1297 13.7043 27.1685V26.7215C13.9682 27.4696 14.5362 27.836 15.1465 27.6303C14.9599 27.3493 14.9297 27.0542 15.07 26.706C15.1069 26.866 15.1298 26.9903 15.164 27.1093C15.3037 27.598 15.5669 27.7298 16.0463 27.5597C16.0711 27.551 16.096 27.5402 16.1208 27.5308C16.228 27.4956 16.3232 27.4308 16.3953 27.3439C16.4674 27.257 16.5135 27.1514 16.5284 27.0394C16.5445 26.9399 16.5693 26.7799 16.5915 26.6811H16.6183C16.6519 26.8156 16.6855 27.0125 16.7224 27.1517C16.9073 26.995 17.024 26.7725 17.0478 26.5312C17.0716 26.2899 17.0006 26.0488 16.85 25.859C16.5896 25.5425 16.4501 25.1436 16.4565 24.7337C16.4565 24.3384 16.4485 23.9431 16.4532 23.5478C16.4541 23.291 16.3943 23.0376 16.2786 22.8084C16.133 22.5101 15.9341 22.2411 15.6917 22.0145C15.5189 21.8411 15.3098 21.7084 15.0794 21.6259C15.5333 22.0353 15.9274 22.485 16.098 23.0948L15.207 22.2491M19.6525 21.9177C19.5787 21.9668 19.5088 22.0266 19.4363 22.0757C19.387 22.1053 19.3394 22.1378 19.294 22.1731C18.8428 22.559 18.6051 23.039 18.6125 23.6413C18.6165 23.9989 18.6125 24.3565 18.5984 24.7169C18.5863 25.1531 18.4567 25.5571 18.1519 25.8711C17.8316 26.2011 17.8961 26.7295 18.1337 27.0334C18.1838 27.0882 18.2377 27.1394 18.2949 27.1866C18.3345 27.0179 18.3674 26.8781 18.3996 26.7423C18.4755 26.9393 18.5292 27.1369 18.6246 27.3123C18.7709 27.5812 19.0623 27.6801 19.4195 27.6189C19.6962 27.5711 19.8224 27.4387 19.8895 27.1107C19.9164 26.989 19.9345 26.8653 19.9567 26.7423C20.1621 27.0784 20.0238 27.3742 19.8546 27.6834C20.2575 27.6747 20.6348 27.6592 20.9558 27.4071C21.2767 27.155 21.2344 26.6966 21.3385 26.3181L21.3982 26.3322V27.1248C21.7185 26.8848 21.828 26.511 21.693 26.1642C21.5581 25.8173 21.2854 25.5847 20.9685 25.4025C20.9014 25.3642 20.8342 25.3272 20.7537 25.2829C21.1023 24.8806 21.3728 24.4166 21.5513 23.9149C21.721 23.4204 21.7792 22.8945 21.7219 22.3748C21.6279 22.9267 21.5043 23.0981 20.6677 23.445C20.3005 23.5969 19.4726 23.8483 19.0932 23.7307C19.4444 23.1143 19.7647 22.5207 20.1004 21.9298L20.0876 21.9217C19.9258 22.0232 19.7647 22.155 19.6035 22.2578C19.4524 22.3533 19.3014 22.4178 19.1496 22.5133L19.0885 22.5335C19.0825 22.5335 19.1281 22.4857 19.1234 22.4803C19.155 22.4481 19.5733 22.0098 19.6478 21.9284C19.6633 21.9123 19.6707 21.9116 19.6519 21.9244M19.8466 20.8253C19.8419 20.9087 19.6606 21.4196 19.6317 21.4431C19.6711 21.4213 19.7073 21.3942 19.7391 21.3624C20.3985 20.623 20.6791 19.7988 20.4542 18.8127C20.4287 18.7004 20.3978 18.5901 20.3689 18.4765C20.8638 19.0668 20.9974 19.7538 20.9135 20.4993C21.1982 20.0623 21.364 19.5938 21.3204 19.0694C21.2532 18.2278 20.6765 17.6369 19.8835 17.36C19.8963 17.3371 19.9097 17.3142 19.9231 17.2927C20.3213 17.4043 20.8134 17.6181 21.221 17.7142C21.0679 17.5677 20.8678 17.4218 20.7718 17.2437C20.9061 17.3028 21.364 17.5798 21.5003 17.6302C21.4063 17.5078 21.2525 17.3613 21.2351 17.2006L21.967 17.7895C21.979 17.7774 21.9602 17.7969 21.973 17.7855C21.8092 17.491 21.6601 17.1953 21.5077 16.921L21.6158 16.8363C21.4761 16.7092 21.366 16.6158 21.2626 16.5156C20.8121 16.0787 20.9007 16.0451 20.2165 16.24C19.6888 16.3879 19.1456 16.482 18.6494 16.7368C18.3166 16.9107 17.9501 17.0104 17.5751 17.0292C17.5617 17.0292 17.5489 17.0447 17.5295 17.0575C17.5731 17.3754 17.6235 17.7519 17.6678 18.0705L17.6094 18.0772C17.6 17.9589 17.5805 17.7828 17.5744 17.6645C17.5516 17.2222 17.4207 17.0702 16.989 16.9728C16.8059 16.939 16.6262 16.8893 16.4518 16.8242C15.9993 16.6445 15.5253 16.5245 15.0418 16.4672C14.8122 16.4316 14.5776 16.4855 14.3865 16.6178C14.1851 16.7523 14.0958 16.997 13.9319 17.1556C13.5707 17.5119 13.2074 17.8426 13.0429 18.3535C13.0315 18.3885 13.0255 18.4254 13.0168 18.4617L13.0389 18.4685C13.1497 18.334 13.8554 17.3969 13.9454 17.3519C13.9333 17.5307 13.4928 18.1525 13.4754 18.2776C13.4754 18.2776 14.1287 17.6362 14.4993 17.5919C14.198 17.8216 13.9871 18.1503 13.9037 18.5202C13.8202 18.8302 13.753 19.1443 13.7023 19.4614C13.6734 19.6937 13.6734 19.9288 13.7023 20.1611C13.7407 20.4537 13.8729 20.7259 14.079 20.9369C14.0118 20.7117 13.9447 20.5268 13.895 20.3379C13.8326 20.0892 13.8359 19.9057 13.891 19.7491C13.9326 19.8902 13.9689 20.018 14.0058 20.143C14.0662 19.6435 14.1025 19.1488 14.457 18.7535C14.4612 18.7833 14.4596 18.8137 14.4523 18.8429C14.3697 19.2052 14.4002 19.5841 14.5396 19.9286C14.8531 20.6835 15.4292 21.1581 16.1859 21.4135C16.4626 21.507 16.7627 21.5325 17.0534 21.589C16.8198 21.7355 16.5747 21.8888 16.3229 22.0454C16.3692 22.1126 16.4028 22.161 16.4344 22.2101C16.6767 22.5798 16.8426 22.9798 16.8204 23.4268C16.8003 23.8302 16.9883 24.1098 17.281 24.3444C17.4153 24.452 17.5496 24.4533 17.6678 24.3303C17.8247 24.1857 17.9648 24.0238 18.0854 23.8477C18.1814 23.689 18.2197 23.4941 18.2714 23.3099C18.3144 23.1566 18.3305 22.9959 18.3741 22.8433C18.4178 22.6908 18.4842 22.5247 18.5426 22.3587L17.9196 22.2141C17.9652 22.1866 17.9773 22.1745 17.9867 22.1731C18.6816 22.0999 19.1986 21.7369 19.5981 21.1816C19.623 21.1473 19.8224 20.8515 19.8472 20.826M23.426 10.0703C23.4219 10.0521 23.4394 10.0615 23.4354 10.0441C23.3998 10.0441 23.3991 10.0367 23.3635 10.036C23.2198 10.036 23.0668 10.0535 22.9237 10.042C22.7129 10.0252 22.6874 9.89752 22.7787 9.70593C22.813 9.63333 22.8573 9.56611 22.8942 9.49552C23.4186 8.48718 23.6804 7.41161 23.757 6.2836C23.7865 5.8527 23.7885 5.41911 23.7892 4.9862C23.7892 4.67563 23.6549 4.58286 23.3568 4.67495C23.2142 4.71991 23.0741 4.77265 22.9372 4.83293C21.9596 5.24433 21.174 5.9206 20.4596 6.68896C20.2524 6.91347 20.0913 7.17661 19.9856 7.46337C19.9491 7.55529 19.8871 7.63484 19.807 7.6926C19.5438 7.87545 19.2698 8.04283 19.0012 8.21425C18.9672 8.23199 18.9317 8.24683 18.8952 8.25862C18.9193 7.73025 18.9428 7.22137 18.967 6.68157C17.6617 7.56286 16.8741 8.6875 17.0225 10.319L16.9802 10.3083L16.1745 9.08614L16.1188 9.10899V11.4443C15.9932 11.3354 15.9006 11.2561 15.8099 11.1754C15.6294 11.007 15.4082 10.8883 15.168 10.8312C14.6054 10.7076 14.1394 10.8985 13.7265 11.2669C13.5673 11.408 13.4203 11.5633 13.1839 11.5781C13.2083 11.6016 13.2374 11.6197 13.2692 11.6312C13.5042 11.7119 13.7231 11.6527 13.9319 11.5452C14.1172 11.4497 14.2938 11.3381 14.4812 11.2474C14.7006 11.1312 14.9536 11.0952 15.1967 11.1454C15.4398 11.1957 15.6578 11.3292 15.8133 11.523C16.0647 11.8111 16.2205 12.1702 16.2591 12.5508C16.2685 12.7365 16.2685 12.9225 16.2591 13.1081C15.9523 13.2177 15.6689 13.3293 15.3789 13.4207C14.9646 13.5511 14.5617 13.5303 14.2139 13.2399C13.8984 12.9763 13.7674 12.6248 13.7748 12.2167C13.7748 12.1018 13.7748 11.9861 13.7748 11.8638H13.3216C13.3344 11.9774 13.3263 12.087 13.3612 12.1797C13.4096 12.288 13.4226 12.4087 13.3985 12.5248C13.3744 12.6409 13.3144 12.7465 13.2269 12.8264C13.006 13.051 12.7972 13.2903 12.5555 13.4926C12.3373 13.6768 12.0855 13.8173 11.8485 13.9813C11.804 14.0184 11.763 14.0596 11.7263 14.1043L11.7565 14.1386L12.4447 14.0472L12.5313 14.1689C12.7133 13.9323 12.8892 13.7178 13.0483 13.4919C13.241 13.223 13.4324 13.1518 13.7345 13.2822C13.9057 13.3568 14.0702 13.4402 14.2394 13.5249C14.4503 13.6331 14.6584 13.7467 14.8679 13.8576C14.8679 13.8697 14.8632 13.8812 14.8605 13.8926C14.7148 13.9202 14.5698 13.9504 14.4234 13.9759C14.0541 14.0432 13.7856 14.2556 13.5613 14.542C13.4942 14.6247 13.4331 14.7161 13.2779 14.6764C13.4122 14.5346 13.4921 14.4431 13.6137 14.3127C13.6009 14.3 13.6251 14.2717 13.6137 14.2583C13.4263 14.4109 13.2477 14.5399 13.0483 14.7026L13.1826 14.7396L12.8603 15.0085C12.8856 15.028 12.9118 15.0462 12.9389 15.0629C13.4968 15.356 14.0535 15.6505 14.6175 15.9368C14.7213 15.9932 14.8355 16.0278 14.9532 16.0384C15.4997 16.0699 15.9925 16.2568 16.4659 16.519C17.1132 16.8786 17.7591 16.8672 18.3969 16.4861C18.8423 16.2084 19.3363 16.018 19.8526 15.9247C20.1572 15.8685 20.45 15.761 20.7188 15.6068C20.9014 15.508 21.0867 15.4118 21.2693 15.3123C21.5681 15.1503 21.2848 14.9823 21.597 14.8109C21.5157 14.7046 21.8911 14.8404 21.8166 14.7436C21.127 14.903 20.6697 14.3652 20.0554 14.1595C20.0829 14.1514 20.1313 14.099 20.1568 14.1043C20.3481 14.142 21.1216 14.2778 21.3855 14.302C21.3009 14.2697 21.2186 14.2318 21.1391 14.1884C21.2975 14.1211 21.732 14.138 21.9327 14.1017C21.7877 14.0835 21.3512 13.939 21.2942 13.9228C21.2942 13.9121 21.2942 13.9007 21.2975 13.8899L22.3557 13.5666C22.3557 13.5538 22.3557 13.5666 22.3557 13.5565C22.3007 13.5471 21.6547 13.4146 21.6554 13.3972C21.6554 13.3918 22.3725 13.1888 22.4262 13.1699L22.0187 12.8782C22.3893 12.9259 22.7451 12.9286 23.1164 12.778C22.7478 12.5891 22.3557 12.4742 22.1093 12.1186L23.3716 12.1952C23.3312 12.1288 23.2797 12.0699 23.2192 12.0211C23.0849 11.8934 22.9298 11.7784 22.821 11.6305C22.6196 11.3542 22.4658 11.039 22.1973 10.8044L22.9795 10.959C22.7431 10.6182 22.392 10.5987 22.0818 10.4743L23.426 10.0703ZM22.8741 26.7571C23.1782 26.7423 23.4783 26.7436 23.7704 26.7107C24.4264 26.6361 24.9119 25.9477 24.4815 25.3111C23.8886 24.4406 22.5343 24.4688 21.9918 25.3676C21.9462 25.4442 21.9274 25.5338 21.9381 25.6224C21.9728 25.8491 22.0208 26.0735 22.0818 26.2946C22.1489 26.5346 22.3315 26.6657 22.5625 26.712C22.6061 26.7162 22.65 26.711 22.6913 26.6968C22.7327 26.6825 22.7705 26.6595 22.8022 26.6294C22.9903 26.4508 23.1036 26.2074 23.1191 25.9484C23.1191 25.9107 23.1305 25.8731 23.1426 25.7978C23.2098 26.0848 23.1856 26.1561 22.8741 26.7571ZM11.6611 26.8135V26.8001C11.7954 26.7927 11.9297 26.7893 12.0606 26.7786C12.295 26.7598 12.5219 26.7268 12.7321 26.6031C12.9684 26.4653 13.0121 26.2475 13.0382 26.0075C13.0631 25.7817 12.9416 25.6573 12.7737 25.537C12.2668 25.182 11.7323 24.9858 11.1052 25.172C10.6862 25.2963 10.4022 25.6862 10.4573 26.0969C10.5083 26.4754 10.9145 26.8095 11.3248 26.8109H11.6605M12.8147 10.924C12.8214 10.9388 12.8375 11.0033 12.8442 11.0181C12.2399 11.3542 11.7142 11.8396 11.4208 12.497C11.5184 12.4286 11.6084 12.35 11.6893 12.2624C11.9076 12.0668 12.1123 11.9606 12.3138 11.7488C12.5978 11.4497 12.8388 11.1485 13.2296 10.9845C13.2356 10.9845 13.2699 10.9717 13.2726 10.9617C12.9523 10.7795 12.487 10.8568 12.2372 11.0417C12.4212 10.9685 12.6167 10.9287 12.8147 10.924ZM14.9055 12.0809L14.694 11.9156C14.6725 11.8988 14.6537 11.8793 14.6316 11.8651C14.604 11.8437 14.5713 11.8298 14.5367 11.8249C14.5021 11.8199 14.4668 11.824 14.4343 11.8368C14.4018 11.8497 14.3732 11.8707 14.3513 11.898C14.3293 11.9252 14.3149 11.9577 14.3093 11.9922C14.2946 12.0707 14.2971 12.1514 14.3167 12.2288C14.3233 12.2634 14.3392 12.2956 14.3626 12.3219C14.3861 12.3482 14.4161 12.3677 14.4497 12.3783C14.4833 12.3889 14.5191 12.3902 14.5533 12.3821C14.5876 12.374 14.619 12.3568 14.6443 12.3323C14.7262 12.2651 14.7967 12.1871 14.9055 12.0809Z" fill="#5B4029"/>
<path d="M22.8942 9.48883C23.4193 8.48048 23.6804 7.40491 23.757 6.27825C23.7859 5.84668 23.7859 5.41174 23.7859 4.98017C23.7859 4.6696 23.6516 4.57683 23.3535 4.66893C23.211 4.7137 23.0711 4.76644 22.9345 4.8269C21.9562 5.24436 21.1713 5.92062 20.4569 6.68898C20.2497 6.9135 20.0886 7.17663 19.9829 7.46339C19.9467 7.55545 19.8846 7.63506 19.8043 7.69262C19.5411 7.87547 19.2671 8.04286 18.9985 8.21427C18.9645 8.23201 18.929 8.24686 18.8925 8.25864C18.9166 7.73027 18.9395 7.22139 18.9643 6.68159C17.6617 7.56288 16.8741 8.68753 17.0225 10.319C16.9191 10.2928 16.2336 9.17153 16.1147 8.99742L16.1201 11.445C15.9946 11.3361 15.8985 11.2561 15.8079 11.1761C15.6275 11.0074 15.4062 10.8888 15.166 10.8319C14.6033 10.7083 14.1367 10.8992 13.7244 11.2675C13.5653 11.4087 13.4183 11.564 13.1819 11.5781C13.1899 11.5857 13.1984 11.5927 13.2074 11.599C13.2464 11.7958 13.2977 11.9901 13.3612 12.1804C13.4096 12.2887 13.4226 12.4094 13.3985 12.5255C13.3744 12.6416 13.3144 12.7471 13.2269 12.8271C13.006 13.0517 12.7972 13.2916 12.5555 13.4933C12.3493 13.6674 12.111 13.8032 11.884 13.9551C11.8028 14.0119 11.7342 14.0849 11.6826 14.1696C11.8518 14.1265 12.2453 14.0741 12.4447 14.0479L12.5313 14.1696C12.7133 13.9329 12.8892 13.7185 13.0483 13.4926C13.2403 13.2237 13.4324 13.1518 13.7345 13.2836C13.9057 13.3575 14.0702 13.4409 14.2388 13.5256C14.4503 13.6338 14.6584 13.7474 14.8679 13.8583C14.8679 13.8704 14.8632 13.8819 14.8605 13.8933C14.7148 13.9215 14.5698 13.9511 14.4234 13.9766C14.0541 14.0439 13.7855 14.257 13.5613 14.5427C13.4941 14.6253 13.433 14.7168 13.2779 14.6771C13.3907 14.5595 13.6808 14.3087 13.7197 14.1602C13.5183 14.2852 13.239 14.5494 13.0483 14.7033L13.1826 14.7403L12.8603 15.0092C13.2853 15.309 14.1213 15.6861 14.6141 15.9382C14.7179 15.9946 14.8322 16.0291 14.9498 16.0397C15.497 16.0713 15.9892 16.2582 16.4625 16.5204C17.1098 16.88 17.7557 16.8686 18.3936 16.4874C19.2664 15.9658 19.9379 16.0296 20.7154 15.6081C21.3244 15.2781 21.7454 15.0435 22.2651 14.538C21.7131 14.6845 20.3602 14.263 20.0493 14.1602C20.2145 14.1138 21.1418 14.4129 21.3794 14.3027C21.3586 14.2926 21.2069 14.2146 21.1579 14.1911C21.1888 14.1911 21.8817 14.1151 21.9455 14.1077C21.8474 14.0781 21.3741 13.9672 21.3009 13.902C21.4016 13.8919 22.398 13.5794 22.4282 13.5538C22.3436 13.5444 21.7843 13.4362 21.7259 13.4032C21.7749 13.3965 22.3604 13.1921 22.4222 13.1706L22.0139 12.8789C22.3852 12.9266 22.7411 12.9293 23.1124 12.7787C22.7438 12.5898 22.3517 12.4749 22.1053 12.1193L23.3676 12.1959C23.3272 12.1295 23.2756 12.0706 23.2151 12.0218C23.0809 11.8941 22.9257 11.7791 22.817 11.6312C22.6155 11.3549 22.4618 11.0397 22.1925 10.8051L22.9801 10.9637C22.7438 10.6222 22.3926 10.6027 22.0824 10.4783C22.2167 10.4394 23.4401 10.1012 23.5448 10.0179L23.3783 10.0125C23.2346 10.0125 23.0903 10.0125 22.9466 10.0004C22.7364 9.98359 22.6881 9.89351 22.7794 9.69991C22.8136 9.62731 22.8579 9.56008 22.8949 9.48883M14.1931 14.4264C14.1884 14.4049 14.1837 14.384 14.1783 14.3632L15.1183 14.1467C15.1237 14.1682 15.1284 14.1897 15.1338 14.2139L14.1938 14.4284M14.2159 13.2439C13.9004 12.9804 13.7694 12.6288 13.7768 12.2208C13.7768 12.1058 13.7768 11.9902 13.7768 11.8685C13.564 11.8961 13.3599 11.7186 13.2591 11.6326H13.2672C13.5022 11.7132 13.7211 11.6541 13.9299 11.5465C14.1152 11.4511 14.2918 11.3402 14.4785 11.2487C14.6981 11.1326 14.9513 11.0966 15.1946 11.1469C15.4379 11.1971 15.6561 11.3306 15.8119 11.5243C16.0631 11.8125 16.2187 12.1717 16.2571 12.5522C16.2665 12.7378 16.2665 12.9238 16.2571 13.1095C15.9496 13.219 15.6669 13.3306 15.3768 13.4221C14.9626 13.5525 14.5597 13.5316 14.2119 13.2412M18.4533 15.4085C18.1633 15.4233 17.9162 15.3009 17.6664 15.1725C17.5442 15.1053 17.426 15.0381 17.3038 14.9655C17.187 15.0589 17.0782 15.153 16.9628 15.2344C16.8452 15.3224 16.7104 15.3846 16.5671 15.4169C16.4239 15.4492 16.2755 15.4509 16.1315 15.4219C15.9845 15.3957 15.8932 15.2996 15.8193 15.1678C15.9519 15.2324 16.0976 15.2652 16.245 15.2637C16.3924 15.2622 16.5375 15.2264 16.6687 15.1591C19.1268 13.9282 13.8487 16.7442 18.7944 15.1026C18.7879 15.1868 18.7496 15.2654 18.6872 15.3222C18.6248 15.3791 18.5431 15.4099 18.4587 15.4085M20.4388 14.6832C20.4314 14.704 20.4247 14.7248 20.4179 14.7457L19.4612 14.4196L19.4813 14.3598L20.4368 14.6852M20.7396 11.6736C20.747 11.8369 20.7564 12.0003 20.7624 12.1643C20.7711 12.3908 20.7557 12.614 20.6483 12.8191C20.5424 13.0257 20.3713 13.1915 20.1616 13.2907C19.9519 13.3899 19.7153 13.4169 19.4887 13.3676C19.0993 13.2876 18.7212 13.1505 18.3311 13.0369C18.258 12.3646 18.3553 11.7596 18.8488 11.279C19.1503 10.9859 19.5243 10.9308 19.9231 11.0639C20.0687 11.1164 20.2113 11.177 20.3501 11.2454C20.6704 11.3939 20.9927 11.5203 21.3613 11.367C21.313 11.5102 20.8913 11.6185 20.7436 11.6722M20.9538 10.2646C20.9672 10.2263 20.9773 10.1974 20.99 10.1644C21.0718 9.9867 21.1095 9.79187 21.1 9.59644C21.0906 9.40101 21.0342 9.21075 20.9356 9.04179C20.8709 8.92518 20.7987 8.8129 20.7194 8.70568C20.6414 8.60349 20.5862 8.48576 20.5575 8.36041C20.5288 8.23506 20.5272 8.105 20.5529 7.97899C20.6657 7.3639 21.3821 6.43286 21.9354 6.17338L21.3459 6.82343L21.3553 6.83956L22.1449 6.27153L22.1852 6.3011C21.8494 6.65806 21.554 7.04056 21.4278 7.55078L22.5518 6.76158L22.5947 6.80998L21.7836 7.63011L21.8219 7.67649L22.3859 7.27315L22.4242 7.31214L21.8199 7.98437L21.8447 8.01664L22.1805 7.78606L22.208 7.8143C21.8689 8.14033 21.5507 8.48048 21.4426 8.96045C21.6937 8.63106 21.9166 8.27478 22.2899 8.05966C21.9837 8.43746 21.6742 8.81189 21.5265 9.29186L22.4262 8.33393L22.4739 8.36754C22.4547 8.41692 22.4322 8.46497 22.4067 8.5114C22.216 8.83273 22.022 9.15204 21.8306 9.47336C21.7986 9.52533 21.7788 9.58397 21.7729 9.64478C22.3082 9.19912 22.743 8.64489 23.0486 8.01866C22.9942 8.90062 21.7984 10.1732 20.947 10.2706" fill="white"/>
<path d="M16.2605 13.1101C15.953 13.2197 15.6703 13.3313 15.3803 13.4227C14.966 13.5531 14.5631 13.5323 14.2153 13.2419C13.8998 12.9783 13.7688 12.6268 13.7762 12.2187C13.7762 12.1038 13.7762 11.9881 13.7762 11.8665C13.5627 11.8934 13.3599 11.7166 13.2585 11.6305H13.2666C13.5016 11.7112 13.7205 11.652 13.9293 11.5445C14.1146 11.449 14.2912 11.3381 14.4779 11.2467C14.6974 11.1304 14.9505 11.0944 15.1937 11.1447C15.4369 11.195 15.6551 11.3285 15.8107 11.5223C16.0623 11.8102 16.2182 12.1695 16.2565 12.5501C16.2659 12.7358 16.2659 12.9218 16.2565 13.1074" fill="black"/>
<path d="M19.8485 20.8199C19.8593 20.8065 19.8546 20.8072 19.8526 20.8199C19.7673 20.9389 19.6834 21.0579 19.5981 21.1762C18.8642 22.1973 18.3627 22.0958 17.9195 22.2088L18.5426 22.3533C18.4842 22.5193 18.4197 22.676 18.3734 22.838C18.3271 23 18.3143 23.1512 18.2714 23.3045C18.2203 23.4867 18.1814 23.6823 18.0854 23.8423C17.9649 24.0185 17.8248 24.1805 17.6677 24.3249C17.5475 24.448 17.4153 24.4466 17.281 24.3391C16.9876 24.1044 16.8002 23.8248 16.8204 23.4215C16.8425 22.9744 16.676 22.5744 16.4343 22.2047C16.4028 22.1556 16.3672 22.1079 16.3229 22.04C16.5746 21.8834 16.8197 21.7301 17.0534 21.5836C16.7626 21.5271 16.4625 21.5016 16.1859 21.4081C15.4292 21.1527 14.8531 20.6781 14.5395 19.9232C14.4001 19.5788 14.3696 19.1998 14.4522 18.8375C14.4597 18.8083 14.461 18.7779 14.4563 18.7481C14.1024 19.1434 14.0662 19.6381 14.0057 20.1376C13.9688 20.0112 13.9326 19.8848 13.8909 19.7437C13.8359 19.9003 13.8325 20.0838 13.895 20.3326C13.9426 20.5215 14.0091 20.7063 14.0789 20.9315C13.8729 20.7205 13.7407 20.4483 13.7023 20.1558C13.6734 19.9234 13.6734 19.6883 13.7023 19.456C13.7529 19.139 13.8202 18.8248 13.9037 18.5148C13.9865 18.1462 14.1958 17.8184 14.4952 17.5885C14.1326 17.6315 13.6949 18.1068 13.4485 18.3065C13.4793 18.1942 13.9185 17.4756 13.9225 17.3989C13.8842 17.4218 13.0852 18.4006 13.0127 18.4974C13.0483 17.8352 13.8654 16.9667 14.3891 16.6151C14.5803 16.4828 14.8148 16.4289 15.0444 16.4645C15.5279 16.5218 16.0019 16.6418 16.4545 16.8215C16.6288 16.8866 16.8086 16.9363 16.9916 16.9701C17.8591 17.1657 17.4401 17.7727 17.6348 18.053C17.6509 17.9932 17.5449 17.1495 17.5321 17.0541C17.614 17.0023 18.3083 16.9102 18.6514 16.7341C19.1476 16.4793 19.6908 16.3852 20.2185 16.2373C20.9027 16.0457 20.8141 16.076 21.2646 16.5129C21.368 16.6131 21.4781 16.7072 21.6178 16.8336L21.5097 16.9183C21.6144 17.1065 21.9575 17.6645 22.0018 17.8271C21.9286 17.7794 21.2733 17.2638 21.2485 17.2114C21.2398 17.2988 21.4694 17.5845 21.5023 17.6275C21.2637 17.5225 21.0334 17.3996 20.8134 17.2598C20.8805 17.4426 21.082 17.5784 21.223 17.7129C20.7973 17.6127 20.3347 17.3962 19.9258 17.3337C20.3232 17.6362 21.2015 17.6221 21.3223 19.0694C21.366 19.5938 21.2001 20.0623 20.9155 20.4993C20.9994 19.7517 20.8658 19.0667 20.3709 18.4765C20.3998 18.5881 20.4307 18.6984 20.4562 18.8126C20.6294 19.5682 20.389 21.1083 19.6337 21.4431C19.6337 21.4431 19.7801 21.0229 19.8499 20.8213M17.2595 21.0169C16.8076 20.6759 16.4438 20.2315 16.1986 19.7208C16.2118 20.0222 16.322 20.3112 16.5129 20.5446C16.7037 20.778 16.965 20.9432 17.2575 21.0155M15.9482 20.0906C15.8978 19.6294 15.8495 19.1925 15.7958 18.7219C15.6481 19.1252 15.7286 19.8647 15.9475 20.0912M19.3483 19.4371C19.3841 19.7352 19.4199 20.033 19.4558 20.3305C19.5134 20.1844 19.5337 20.0262 19.515 19.8702C19.4962 19.7143 19.4389 19.5654 19.3483 19.4371Z" fill="white"/>
<path d="M19.6705 21.9075C19.5859 21.9963 19.126 22.452 19.1065 22.5226C19.3845 22.4057 19.8391 22.0769 20.1184 21.9028C20.0895 22.0097 19.2126 23.5202 19.0924 23.7306C19.4718 23.8503 20.301 23.5962 20.6669 23.4456C21.5042 23.0987 21.5539 22.694 21.7211 22.3754C21.7781 22.8951 21.7199 23.4209 21.5506 23.9155C21.3718 24.4171 21.1013 24.881 20.7529 25.2835C20.8328 25.3278 20.9006 25.3648 20.9677 25.4031C21.171 25.5128 21.352 25.6593 21.5015 25.8354C21.8373 26.2495 21.8574 26.7805 21.3975 27.1254L21.3834 26.349C21.2323 26.5345 21.4411 27.0333 20.9583 27.4131C20.6374 27.6652 20.2634 27.682 19.8572 27.6894C20.023 27.3775 20.1647 27.0804 19.9593 26.7483C19.9371 26.8713 19.919 26.995 19.8921 27.1167C19.8209 27.4447 19.6961 27.5771 19.4221 27.6249C19.0642 27.686 18.7735 27.5865 18.6271 27.3183C18.5318 27.1429 18.4781 26.9452 18.4022 26.7483C18.37 26.8827 18.3351 27.0246 18.2975 27.1926C18.2403 27.1453 18.1864 27.0941 18.1363 27.0394C17.8986 26.7355 17.8342 26.2071 18.1544 25.8771C18.4593 25.5631 18.5889 25.1591 18.601 24.7228C18.6117 24.3645 18.6191 24.0069 18.6151 23.6473C18.6077 23.0423 18.8433 22.5576 19.2945 22.1717C19.3415 22.1314 19.6705 21.9129 19.6732 21.9082M20.2272 24.3867C20.7945 24.4291 21.57 23.7051 21.5344 23.1693C21.2219 23.6903 20.7687 24.1123 20.2272 24.3867Z" fill="white"/>
<path d="M15.207 22.2544L16.098 23.1001C15.9268 22.4903 15.5333 22.0413 15.0794 21.6312C15.3099 21.7134 15.5191 21.8462 15.6918 22.0198C15.9341 22.2464 16.133 22.5154 16.2786 22.8137C16.3943 23.0429 16.4541 23.2963 16.4532 23.5531C16.4485 23.9484 16.4532 24.3437 16.4565 24.739C16.4501 25.1489 16.5896 25.5478 16.85 25.8643C17.0005 26.0543 17.0714 26.2954 17.0476 26.5368C17.0238 26.7782 16.9072 27.0008 16.7224 27.1576C16.6835 27.0024 16.6412 26.8457 16.6076 26.6871C16.5749 26.8028 16.5485 26.9201 16.5284 27.0387C16.5134 27.1505 16.4672 27.2559 16.3951 27.3427C16.323 27.4295 16.2279 27.4942 16.1208 27.5294C16.096 27.5395 16.0711 27.5496 16.0463 27.5583C15.5642 27.7284 15.3037 27.5966 15.164 27.1079C15.1298 26.9869 15.1069 26.8625 15.0707 26.7046C14.9297 27.0528 14.9599 27.3479 15.1459 27.6289C14.5362 27.8346 13.9682 27.4689 13.7043 26.72V27.1671C13.6305 27.1284 13.5656 27.0748 13.5137 27.0097C13.4618 26.9445 13.424 26.8692 13.4028 26.7886C13.192 26.1742 13.5156 25.5786 14.1488 25.4045C14.4583 25.3198 14.7719 25.3332 15.0888 25.3534C15.2544 25.3632 15.4207 25.3544 15.5843 25.3272C15.3258 25.2774 15.07 25.2055 14.8095 25.1826C14.5047 25.1557 14.3012 25.0152 14.1327 24.7665C13.5955 23.9733 13.4613 23.096 13.5526 22.165C13.5583 22.0881 13.5752 22.0124 13.6029 21.9405C13.615 21.9768 13.6291 22.0124 13.6392 22.0487C13.7178 22.3387 13.8595 22.6078 14.054 22.8368C14.2485 23.0657 14.4911 23.2488 14.7645 23.373C15.1389 23.5453 15.5338 23.6688 15.9395 23.7407C15.8643 23.5908 15.8052 23.4718 15.7435 23.3501C15.5783 23.0275 15.4077 22.7055 15.2459 22.3814C15.2296 22.3381 15.2184 22.2929 15.2124 22.247L15.207 22.2544ZM13.6506 22.6826C13.6808 23.4046 14.3945 24.0802 15.1385 24.0479C14.4958 23.785 13.9681 23.3008 13.6506 22.6826Z" fill="white"/>
<path d="M11.5524 8.94825C11.5715 9.00137 11.5939 9.05324 11.6195 9.10354C11.8639 9.49814 12.111 9.8914 12.3581 10.286C12.3836 10.327 12.4091 10.4305 12.4299 10.4742C12.393 10.4534 12.1211 10.2894 12.0895 10.2611C11.7265 9.93542 11.4391 9.53412 11.2475 9.08539C10.7937 8.04881 10.4378 6.984 10.3613 5.84322C10.3535 5.70462 10.3535 5.5657 10.3613 5.42711C10.3747 5.1683 10.4653 5.1004 10.7138 5.18174C10.9269 5.25062 11.1349 5.33464 11.3362 5.43316C12.2932 5.89852 13.159 6.53219 13.8923 7.30398C14.2609 7.69656 14.2952 8.07973 14.0353 8.52811C14.0226 8.50862 14.0071 8.49584 14.0038 8.47971C13.8695 7.86731 13.5123 7.40414 13.0074 7.05996C12.6656 6.82669 12.2983 6.62839 11.9425 6.41462H11.9351L11.9432 6.41125C11.9866 6.46171 12.033 6.50953 12.0821 6.55444C12.4722 6.87375 12.8207 7.23138 13.0658 7.68244C12.6206 7.35507 12.1849 7.01021 11.6021 6.95711L12.4306 7.41691C12.4252 7.43103 12.4205 7.44582 12.4152 7.45994L11.5356 7.19104C12.0056 7.49691 12.5354 7.71068 12.8731 8.20342L11.8713 7.87605L11.8471 7.93319C12.103 8.08377 12.4299 8.14225 12.5944 8.43669L12.1144 8.29081L12.1224 8.28073L12.115 8.28678C12.4414 8.50727 12.7529 8.74121 12.912 9.12774L12.064 8.47568L12.0251 8.51937C12.115 8.60407 13.0624 9.46049 13.0322 9.49747C13.002 9.53444 12.3077 8.99464 12.2372 8.94557L12.2104 8.97246C12.3176 9.14238 12.4162 9.31761 12.5058 9.49747C12.5881 9.69724 12.5985 9.91939 12.5354 10.126C12.3615 9.90618 12.2084 9.70384 12.0459 9.51024C11.8834 9.31664 11.7176 9.13782 11.5524 8.95162L11.545 8.94288L11.5551 8.94825" fill="white"/>
<path d="M22.8734 26.7531C23.1856 26.1521 23.2091 26.0808 23.1419 25.7938C23.107 26.0156 22.9982 26.5971 22.7115 26.6993C22.5491 26.7571 22.357 26.6677 22.2254 26.5306C21.8575 26.1474 21.789 25.3138 22.3429 24.9542C22.7874 24.6658 23.5072 24.5508 24.0618 24.8997C24.9185 25.4375 24.8004 26.5897 23.7697 26.7067C23.4756 26.7396 23.1775 26.7383 22.8727 26.7531" fill="white"/>
<path d="M11.3249 26.8095C10.9146 26.8095 10.5084 26.4734 10.4574 26.0956C10.403 25.6855 10.6863 25.295 11.1053 25.1706C11.7324 24.9844 12.2662 25.1807 12.7738 25.5356C12.9417 25.6533 13.0632 25.7776 13.0383 26.0062C13.0122 26.2462 12.9712 26.464 12.7322 26.6018C12.5207 26.7255 12.2937 26.7584 12.0607 26.7773C11.8009 26.7981 11.5834 26.8129 11.3262 26.8122" fill="white"/>
<path d="M12.2372 11.0416C12.4648 10.809 13.0704 10.7626 13.3021 10.9811C13.0181 11.0127 12.5118 11.5411 12.3137 11.7495C12.0284 12.0499 11.7806 12.294 11.4241 12.4977C11.8216 11.6029 12.1002 11.527 12.7972 10.9784C12.6093 10.9865 12.4222 11.0077 12.2372 11.0416Z" fill="white"/>
<path d="M14.1843 12.2759C14.1548 12.6745 14.3858 12.9481 14.7215 13.1262C15.1243 13.3434 15.3701 13.1343 15.7132 12.9615C15.3211 13.3158 14.8504 13.4798 14.3703 13.1235C14.2016 12.9946 14.0771 12.8163 14.0139 12.6134C13.9508 12.4105 13.9521 12.1929 14.0178 11.9908C14.0756 11.814 14.1763 11.6675 14.3703 11.613C14.3522 11.613 14.1904 12.1838 14.1837 12.2759" fill="white"/>
<path d="M14.9055 12.0789C14.7967 12.1851 14.7262 12.2658 14.6443 12.3303C14.619 12.3548 14.5875 12.372 14.5533 12.3801C14.519 12.3882 14.4832 12.3868 14.4497 12.3762C14.4161 12.3656 14.386 12.3462 14.3626 12.3199C14.3392 12.2935 14.3233 12.2614 14.3166 12.2268C14.297 12.1494 14.2945 12.0687 14.3092 11.9902C14.3148 11.9556 14.3293 11.9232 14.3512 11.8959C14.3731 11.8687 14.4018 11.8476 14.4343 11.8348C14.4668 11.822 14.5021 11.8179 14.5366 11.8228C14.5712 11.8278 14.6039 11.8417 14.6315 11.8631C14.6537 11.8772 14.6725 11.8967 14.694 11.9135L14.9055 12.0789Z" fill="white"/>
<path d="M19.9641 6.24792L19.9728 6.25801L19.9688 6.25061L19.9641 6.24792Z" fill="white"/>
<path d="M21.3567 11.3669C21.309 11.5101 20.8867 11.6184 20.7396 11.6721C20.747 11.8355 20.7564 11.9988 20.7625 12.1629C20.7835 12.3876 20.7441 12.6139 20.6483 12.8183C20.5426 13.025 20.3715 13.191 20.1618 13.2903C19.9521 13.3896 19.7155 13.4168 19.4888 13.3675C19.0987 13.2875 18.7206 13.1504 18.3305 13.0368C18.2574 12.3645 18.3547 11.7595 18.8482 11.2789C19.1497 10.9858 19.5237 10.9307 19.9225 11.0638C20.0678 11.1164 20.2102 11.177 20.3489 11.2453C20.6698 11.3938 20.9914 11.5202 21.356 11.3669M20.2878 12.9561C20.6141 12.6765 20.7161 12.1185 20.5113 11.7353C20.4861 11.6812 20.4496 11.6331 20.4043 11.5941C20.3591 11.5552 20.3061 11.5263 20.2488 11.5095C20.3112 11.6914 20.3621 11.8771 20.4012 12.0654C20.4247 12.224 20.51 12.2792 20.4986 12.4217C20.4939 12.4829 19.8272 13.3514 20.2878 12.9561ZM19.67 11.9229C19.7647 12.0015 19.8466 12.0768 19.9386 12.1414C19.978 12.1685 20.0251 12.1824 20.0729 12.181C20.1187 12.1801 20.1629 12.1635 20.198 12.1341C20.2332 12.1046 20.2573 12.064 20.2663 12.019C20.2938 11.9054 20.2193 11.7501 20.1071 11.6762C20.0192 11.6163 19.9561 11.6607 19.8943 11.7158C19.8325 11.771 19.7553 11.8463 19.6734 11.9229" fill="black"/>
<path d="M21.5298 9.28577L22.4295 8.32784L22.4772 8.36078C22.4577 8.41026 22.4353 8.45852 22.41 8.50531C22.2187 8.82664 22.0246 9.14595 21.8333 9.46727C21.8009 9.5191 21.7811 9.57781 21.7755 9.63869C22.3111 9.19306 22.746 8.63854 23.0513 8.01189C22.9969 8.89453 21.801 10.1671 20.9497 10.2639C20.9631 10.2262 20.9725 10.1966 20.9859 10.1644C21.0682 9.98695 21.1065 9.79231 21.0978 9.5969C21.089 9.4015 21.0334 9.21108 20.9356 9.04175C20.871 8.92507 20.7987 8.81279 20.7194 8.70563C20.6414 8.60345 20.5862 8.48572 20.5574 8.36037C20.5287 8.23502 20.5271 8.10496 20.5529 7.97895C20.6657 7.36319 21.3821 6.43282 21.9353 6.17334L21.3458 6.82339L21.3552 6.84019L22.1448 6.27216L22.1851 6.30174C21.8494 6.65869 21.554 7.04119 21.4271 7.55141L22.5517 6.76221L22.5947 6.81062L21.7836 7.63006L21.8219 7.67645L22.3859 7.27311L22.4241 7.3121L21.8198 7.98433L21.8454 8.01593L22.1811 7.78535L22.2086 7.81358C21.8695 8.13962 21.5513 8.47976 21.4432 8.95974C21.6943 8.63034 21.9172 8.27406 22.2899 8.05828C21.9843 8.43674 21.6748 8.81118 21.5271 9.29115" fill="#5B4029"/>
<path d="M17.2643 14.5318C17.0951 14.4168 16.9333 14.3059 16.7708 14.1957C16.5862 14.072 16.5768 14.0155 16.7211 13.8058V13.949C17.0568 13.8858 17.124 14.1506 17.2153 14.3859C17.2254 14.4358 17.2419 14.4841 17.2643 14.5298" fill="#FCA7CA"/>
<path d="M18.7951 15.1032C18.7885 15.1873 18.7501 15.2658 18.6877 15.3226C18.6253 15.3794 18.5437 15.4103 18.4594 15.4091C18.1693 15.4238 17.9223 15.3015 17.6725 15.1731C17.5503 15.1059 17.4321 15.0387 17.3099 14.9661C17.1931 15.0595 17.0843 15.1536 16.9688 15.2349C16.8504 15.3237 16.7146 15.3862 16.5702 15.4185C16.4259 15.4507 16.2764 15.4518 16.1316 15.4218C15.9845 15.3956 15.8932 15.2988 15.8193 15.1677C15.9518 15.2325 16.0976 15.2654 16.245 15.2639C16.3925 15.2624 16.5376 15.2265 16.6687 15.159C16.9195 15.0236 17.1285 14.8221 17.273 14.5762C17.3213 14.5002 17.3193 14.5009 17.3569 14.5614C17.7175 15.1408 18.1391 15.3136 18.7924 15.1032" fill="#5B4029"/>
<path d="M19.4813 14.3584L20.4368 14.6844C20.4301 14.7046 20.4227 14.7254 20.416 14.7463L19.4612 14.4196L19.4813 14.3597" fill="#5B4029"/>
<path d="M15.1318 14.2119L14.1918 14.4263C14.1871 14.4048 14.1817 14.384 14.177 14.3631L15.117 14.146C15.1224 14.1682 15.1278 14.1897 15.1325 14.2132" fill="#5B4029"/>
<path d="M17.2583 21.0155C16.9656 20.9433 16.7042 20.7782 16.5132 20.5448C16.3222 20.3114 16.2119 20.0223 16.1987 19.7208C16.4435 20.2307 16.8066 20.6747 17.2576 21.0155" fill="#5B4029"/>
<path d="M15.9489 20.0906C15.7287 19.8647 15.6495 19.1253 15.7959 18.7219C15.8482 19.1925 15.8966 19.6301 15.9476 20.0913" fill="#5B4029"/>
<path d="M19.3496 19.4364C19.4402 19.5647 19.4975 19.7135 19.5162 19.8695C19.535 20.0255 19.5146 20.1837 19.457 20.3298C19.4217 20.0322 19.3859 19.7344 19.3496 19.4364Z" fill="#5B4029"/>
<path d="M20.2273 24.3867C20.7689 24.1123 21.222 23.6903 21.5346 23.1693C21.5675 23.7071 20.796 24.4291 20.2273 24.3867Z" fill="#5B4029"/>
<path d="M13.6506 22.6826C13.9681 23.3008 14.4958 23.785 15.1385 24.0479C14.3946 24.0802 13.6808 23.4046 13.6506 22.6826Z" fill="#5B4029"/>
<path d="M11.9433 6.41125L11.9351 6.41467L11.9398 6.41536L11.9433 6.41125Z" fill="black"/>
<path d="M12.1149 8.28815L12.1223 8.2821L12.1143 8.29152L12.1149 8.28815Z" fill="black"/>
<path d="M11.5523 8.94825L11.5422 8.94287L11.5496 8.95161L11.5523 8.94825Z" fill="black"/>
<path d="M19.0503 13.0012C19.7298 13.2842 20.5368 12.9723 20.4012 12.0655C20.3621 11.8771 20.3112 11.6914 20.2488 11.5095C20.306 11.5264 20.3591 11.5553 20.4043 11.5942C20.4496 11.6331 20.4861 11.6813 20.5113 11.7354C20.7161 12.1186 20.6141 12.6765 20.2884 12.9562C19.7103 13.4516 19.0678 13.0153 19.0503 13.0012Z" fill="white"/>
<path d="M19.6699 11.9229C19.7518 11.8463 19.8196 11.7791 19.8908 11.7159C19.9619 11.6527 20.0156 11.6164 20.1036 11.6762C20.2157 11.7522 20.2903 11.9055 20.2627 12.0191C20.2537 12.0641 20.2297 12.1046 20.1945 12.1341C20.1593 12.1636 20.1152 12.1801 20.0694 12.1811C20.0215 12.1824 19.9745 12.1686 19.9351 12.1414C19.8451 12.0742 19.7632 12.0016 19.6665 11.9229" fill="white"/>
<mask id="mask0_2198_336" style="mask-type:luminance" maskUnits="userSpaceOnUse" x="20" y="4" width="4" height="6">
<path d="M21.0759 6.25001C20.9326 6.37356 20.7995 6.50844 20.6778 6.65334C20.5061 6.87219 20.3622 7.11155 20.2494 7.36591C20.1688 7.53598 19.9808 7.77731 20.0057 7.97092C20.0736 7.91206 20.1333 7.84422 20.1829 7.76925C20.179 7.79326 20.1767 7.81752 20.1762 7.84185C20.37 7.58102 20.5692 7.32378 20.7738 7.07013C20.6264 7.3213 20.5605 7.61208 20.5851 7.90235C20.803 7.68054 21.005 7.44355 21.1894 7.19315C21.1639 7.40188 21.1639 7.61295 21.1894 7.82168C21.3964 7.72117 21.5936 7.60143 21.7782 7.46405C21.7609 7.65286 21.7883 7.8431 21.8581 8.01932C22.0021 7.87133 22.1323 7.71044 22.2469 7.53867C22.2384 7.82549 22.2368 8.11298 22.2422 8.40114C22.2373 8.49345 22.2544 8.58559 22.2919 8.67004C22.4207 8.51259 22.5248 8.33647 22.6007 8.14771C22.5088 8.74264 22.208 9.32748 22.3248 9.91904C22.6595 9.74122 22.9281 9.46026 23.0909 9.11774C23.1648 8.94953 23.2254 8.77579 23.2722 8.59811C23.4276 8.10428 23.5496 7.60054 23.6374 7.09029C23.7516 6.32866 23.7126 5.54954 23.5911 4.78857C22.6558 5.06688 21.8051 5.59525 21.0766 6.24396" fill="white"/>
</mask>
<g mask="url(#mask0_2198_336)">
<path d="M20.3609 3.6592L18.4407 9.40845L23.3712 11.0592L25.2915 5.30994L20.3609 3.6592Z" fill="url(#paint0_linear_2198_336)"/>
</g>
<mask id="mask1_2198_336" style="mask-type:luminance" maskUnits="userSpaceOnUse" x="10" y="5" width="5" height="6">
<path d="M10.5874 5.44266C10.5714 5.45501 10.5581 5.47062 10.5485 5.48846C10.5389 5.5063 10.5332 5.52597 10.5317 5.54618C10.4471 5.94011 10.5357 6.34816 10.6237 6.74141C10.6646 6.92359 10.7049 7.10576 10.7459 7.28794C10.7936 7.50103 10.8412 7.71413 10.9044 7.92387C11.0203 8.28488 11.1644 8.63619 11.3354 8.97456C11.5718 9.46126 11.8403 9.94997 12.2553 10.2968C12.1801 10.0181 12.1046 9.73934 12.029 9.46059L12.4547 9.80141C12.3311 9.4877 12.2078 9.17399 12.0847 8.86029L12.4876 9.40278C12.5467 9.4821 12.6158 9.56814 12.7132 9.58159C12.8562 9.60176 12.971 9.44714 12.9818 9.30463C12.9925 9.16212 12.9334 9.02229 12.9039 8.88045C12.9514 8.89387 13.0018 8.89275 13.0486 8.87723C13.0954 8.86172 13.1366 8.83252 13.1667 8.79339C13.1968 8.75427 13.2145 8.70702 13.2176 8.65772C13.2207 8.60842 13.2089 8.55933 13.1839 8.51677C13.2866 8.56649 13.3815 8.63079 13.4659 8.70769C13.5137 8.53617 13.549 8.36137 13.5713 8.18469C13.5713 8.20956 13.6881 8.35611 13.7056 8.39107C13.7398 8.47171 13.7624 8.55681 13.7727 8.64383C13.8211 8.50938 13.9976 8.48921 14.0722 8.37157C14.1581 8.23713 14.1353 8.01731 14.1004 7.87143C14.0525 7.67271 13.9579 7.48832 13.8244 7.33365C13.7084 7.20685 13.5792 7.09282 13.439 6.9935C12.6004 6.3569 11.7087 5.76197 10.7056 5.44737C10.6822 5.43944 10.6578 5.4347 10.6331 5.43325C10.6173 5.43289 10.6018 5.43684 10.5881 5.44468" fill="white"/>
</mask>
<g mask="url(#mask1_2198_336)">
<path d="M13.4776 3.9936L8.56689 6.32288L11.1277 11.7345L16.0384 9.40523L13.4776 3.9936Z" fill="url(#paint1_linear_2198_336)"/>
</g>
<path d="M23.1863 8.7957L22.913 7.4909C22.8813 7.33972 22.82 7.19629 22.7329 7.0688C22.6457 6.9413 22.5344 6.83225 22.4051 6.74785C22.2759 6.66345 22.1313 6.60537 21.9796 6.57692C21.8279 6.54847 21.6722 6.55021 21.5212 6.58204C21.2656 6.01468 20.879 5.51629 20.3932 5.128C19.4995 4.40334 18.3198 4 17.0716 4C15.8234 4 14.6403 4.40334 13.75 5.12868C13.2638 5.51713 12.8771 6.01605 12.622 6.58406H12.6173C12.4666 6.55 12.3106 6.54603 12.1583 6.57238C12.0061 6.59872 11.8605 6.65487 11.7299 6.73759C11.5993 6.82032 11.4863 6.928 11.3973 7.0545C11.3083 7.18099 11.2451 7.3238 11.2113 7.47476L10.9213 8.77284C10.8534 9.07744 10.9091 9.39655 11.0762 9.66001C11.2433 9.92347 11.5081 10.1097 11.8123 10.1778L12.5213 10.3358L13.3216 6.74674C13.9159 5.55218 15.3695 4.70517 17.0716 4.70517C18.7737 4.70517 20.2159 5.54613 20.8108 6.73867L21.5702 10.3385L22.2806 10.1892C22.4316 10.1575 22.5749 10.0963 22.7024 10.009C22.8298 9.92181 22.9388 9.81031 23.0231 9.6809C23.1075 9.55149 23.1656 9.4067 23.194 9.25482C23.2225 9.10293 23.2208 8.94692 23.189 8.7957" fill="black"/>
<path d="M13.5331 14.5823C13.4968 14.5648 13.466 14.5493 13.4331 14.5305C13.3847 14.5809 13.3297 14.6287 13.2793 14.6811C13.3266 14.6943 13.3769 14.6919 13.4226 14.674C13.4684 14.6562 13.5072 14.624 13.5331 14.5823Z" fill="#5B4029"/>
<path d="M24.2504 8.55644C24.2991 8.51957 24.3405 8.47398 24.3726 8.422L24.104 8.47107C24.1296 8.5256 24.1433 8.58494 24.1443 8.64518L24.2497 8.55779" fill="#5B4029"/>
<path d="M10.711 5.18176C10.9241 5.25064 11.1321 5.33466 11.3334 5.43318C11.7306 5.63054 12.1138 5.85515 12.4802 6.10541C12.503 6.02278 12.5443 5.94644 12.601 5.88223C12.6706 5.80631 12.7517 5.74188 12.8414 5.69131C12.3976 5.46141 10.0409 4.14518 10.0247 5.16697C10.0167 5.75719 10.1557 6.32254 10.29 6.89057C10.3773 7.27711 10.4686 7.66297 10.5585 8.04883C10.5702 8.05421 10.5816 8.06026 10.5928 8.06698C10.6035 8.06269 10.6145 8.0591 10.6257 8.05622C10.6955 8.03805 10.7687 8.03667 10.8392 8.05219C10.5819 7.34089 10.4215 6.59811 10.3625 5.84391C10.3548 5.70531 10.3548 5.56639 10.3625 5.4278C10.3759 5.16899 10.4666 5.10109 10.715 5.18243" fill="#5B4029"/>
<path d="M20.1333 6.38241C20.1075 6.32628 20.0789 6.27154 20.0474 6.21839L19.9735 6.24393L20.0225 6.18141C20.0037 6.1588 19.9872 6.13423 19.9735 6.10814C19.9433 6.07318 19.9111 6.04092 19.8775 6.00663C19.8601 5.9905 19.8426 5.97504 19.8245 5.96025L19.8198 5.95622C19.7835 5.93336 19.7466 5.91095 19.709 5.88899C19.5356 5.94188 19.3567 5.97437 19.1759 5.98579C19.2618 5.91387 19.3531 5.84664 19.4397 5.77539L19.3726 5.75589C19.1826 5.70413 18.9892 5.67052 18.7958 5.63758C18.629 5.68831 18.4593 5.72894 18.2876 5.75925C17.9001 5.82648 17.5134 5.90109 17.126 5.97235C17.126 5.96092 17.1186 5.94882 17.1152 5.93672L17.7195 5.72833C17.3476 5.63422 17.0004 5.72833 16.6452 5.83253L16.9178 5.61338L16.9138 5.58447C16.84 5.59052 16.7648 5.59052 16.6916 5.6033C16.1585 5.69606 15.722 5.97907 15.3118 6.31115C15.1103 6.47518 14.9089 6.64122 14.7028 6.80995C14.5685 6.71785 14.4275 6.62778 14.2885 6.54106C14.1843 6.66858 14.048 6.76603 13.8937 6.82339C13.8919 6.90523 13.8687 6.98517 13.8266 7.05531L13.7534 7.1501C13.7534 7.1501 13.746 7.15615 13.7433 7.15951C13.791 7.20791 13.8387 7.25698 13.8857 7.30673C14.2549 7.69998 14.2885 8.08316 14.0293 8.53153C13.043 7.0533 13.699 7.46941 11.9546 6.42342C11.994 6.47115 12.0366 6.51607 12.0822 6.55786C12.4723 6.87717 12.8208 7.2348 13.0658 7.68587C12.6207 7.35849 12.1842 7.01364 11.6014 6.96053C11.7525 7.04389 12.3863 7.36925 12.4642 7.45865C12.338 7.43983 11.6948 7.24152 11.5356 7.18976C12.0056 7.49563 12.5354 7.7094 12.8731 8.20214C12.6778 8.13492 11.9526 7.89157 11.8049 7.88485C12.0063 8.04484 12.3884 8.06501 12.5938 8.43608L12.1238 8.29356C12.4454 8.51204 12.7523 8.7453 12.9094 9.12713C12.7395 8.99268 12.1527 8.50733 12.003 8.4549C12.0748 8.6969 12.8846 9.23402 12.988 9.46325C12.8194 9.43636 12.4293 9.03772 12.1963 8.92546C12.3346 9.37653 12.5945 9.48946 12.9638 9.69853C13.3282 9.73923 13.6879 9.81441 14.0381 9.92305C14.1384 9.95206 14.2265 10.0129 14.2893 10.0965C14.352 10.18 14.3859 10.2817 14.3859 10.3862C14.4782 10.4121 14.5602 10.4661 14.6203 10.5408C14.6805 10.6155 14.7159 10.7072 14.7216 10.803C14.8695 10.7923 15.0182 10.8036 15.1627 10.8366C15.4029 10.8932 15.6242 11.0116 15.8046 11.1801C15.8953 11.2608 15.9879 11.3401 16.1135 11.449C16.1135 11.2473 16.1094 9.03772 16.1175 9.03436C16.1719 9.01285 16.8856 10.2908 17.0192 10.3237C16.8708 8.69018 17.6578 7.56755 18.9624 6.68424C18.9382 7.22203 18.9147 7.73292 18.8905 8.2613C18.9271 8.24951 18.9625 8.23467 18.9966 8.21693C19.2652 8.04551 19.5405 7.88081 19.8023 7.69595C19.8824 7.63779 19.9443 7.55807 19.9809 7.46605C20.0878 7.17795 20.2505 6.91385 20.4597 6.68895C20.4825 6.66408 20.506 6.63988 20.5268 6.61568C20.4465 6.61389 20.3679 6.5915 20.2987 6.55066C20.2294 6.50983 20.1718 6.4519 20.1313 6.38241" fill="#5B4029"/>
<path d="M23.1473 4.45708L21.6165 5.33098C21.6992 5.35055 21.7755 5.39106 21.838 5.44862C22.181 5.20216 22.5495 4.99346 22.9372 4.82613C23.0739 4.76722 23.2138 4.71583 23.3561 4.67219C23.6556 4.58144 23.7892 4.67219 23.7885 4.98344C23.7885 5.41635 23.7885 5.84994 23.757 6.28084C23.7143 6.96043 23.5917 7.6326 23.3917 8.28342C23.4428 8.24127 23.5027 8.21116 23.567 8.19534C23.6312 8.17951 23.6982 8.17837 23.763 8.192C23.7771 8.07973 23.7906 7.97016 23.8026 7.86059C23.8933 7.04853 23.998 6.23782 24.0652 5.42442C24.1323 4.61102 24.1135 3.90787 23.1473 4.46044" fill="#5B4029"/>
<path d="M21.5298 9.28577C21.6641 9.14326 22.359 8.40313 22.4698 8.31305C22.457 8.46968 21.9394 9.28913 21.8333 9.46727C21.8009 9.5191 21.7811 9.57781 21.7755 9.63869C22.3111 9.19306 22.746 8.63854 23.0513 8.01189C22.9969 8.89453 21.801 10.1671 20.9497 10.2639C20.9631 10.2262 20.9725 10.1966 20.9859 10.1644C21.0682 9.98695 21.1065 9.79231 21.0978 9.5969C21.089 9.4015 21.0334 9.21108 20.9356 9.04175C20.871 8.92507 20.7987 8.81279 20.7194 8.70563C20.6414 8.60345 20.5862 8.48572 20.5574 8.36037C20.5287 8.23502 20.5271 8.10496 20.5529 7.97895C20.6657 7.36319 21.3821 6.43282 21.9353 6.17334C21.8373 6.28157 21.3693 6.7723 21.331 6.85364C21.5842 6.71919 21.9253 6.41602 22.1985 6.24527C22.0804 6.44022 21.5835 6.9175 21.425 7.55343C21.7023 7.35916 22.3382 6.89666 22.6142 6.736C22.4799 6.90002 21.8333 7.60519 21.7708 7.67712L22.4295 7.24152C22.3228 7.49159 21.883 7.82165 21.7984 8.03609C21.94 7.96282 22.0669 7.85123 22.2086 7.77527C22.2019 7.78804 21.5607 8.43674 21.4438 8.9557C21.695 8.62631 21.9179 8.27003 22.2905 8.05424C21.985 8.43271 21.6755 8.80714 21.5278 9.28711" fill="#5B4029"/>
<path d="M9.86114 23.1229C9.43503 22.9655 9.03797 22.7383 8.68613 22.4507C8.44307 22.2598 8.21076 22.0474 8.05901 21.7785C7.87168 21.4424 7.822 21.0552 7.77634 20.676C7.73001 20.871 7.68436 21.0666 7.63803 21.2622C7.59918 21.1636 7.58556 21.0569 7.59841 20.9516C7.45239 21.2729 7.37312 21.6205 7.36542 21.9734C7.3169 21.9091 7.27946 21.837 7.25464 21.7603C7.33089 22.1604 7.46502 22.5472 7.6528 22.9085L7.47353 22.8359C7.68167 23.1644 7.88064 23.4987 8.07043 23.8389C8.00164 23.8508 7.93083 23.8397 7.869 23.8073C8.20893 24.1919 8.62814 24.498 9.09772 24.7047C9.04602 24.7289 8.98761 24.6872 8.9312 24.7081C9.14808 24.8425 9.32668 24.7699 9.52408 24.8015C9.42885 24.9087 9.29868 24.9785 9.15681 24.9985C9.62651 25.0557 10.1002 25.0737 10.5729 25.0523C10.1371 24.8069 9.61741 24.7309 9.20045 24.4546C8.65659 24.0943 8.37392 23.455 8.17047 22.8352C8.21344 22.9643 8.68613 23.1236 8.80766 23.1713C9.04733 23.2689 9.29673 23.3406 9.55161 23.3851C10.0263 23.4665 10.5917 23.4839 11.0523 23.3213C11.0375 23.287 10.0867 23.2016 9.8598 23.1229" fill="black"/>
<path d="M22.9016 20.4818C23.2118 20.3884 23.5549 20.5578 23.7536 20.8146C23.9524 21.0714 24.0336 21.3974 24.0893 21.716C24.0435 21.5329 23.9501 21.3652 23.8186 21.2299C23.6871 21.0946 23.5222 20.9965 23.3407 20.9456C23.4789 21.019 23.5953 21.1278 23.6778 21.2609C23.7604 21.394 23.8062 21.5466 23.8107 21.7033L23.4917 21.4344C23.6209 21.5591 23.7221 21.7099 23.7885 21.8768C23.8549 22.0437 23.8852 22.2229 23.8772 22.4024C23.6973 22.0049 23.4432 21.6455 23.1285 21.3436C23.1238 21.3927 23.1184 21.4411 23.1137 21.4902L22.7491 21.4108L22.8284 21.513L22.5598 21.4458C22.3315 21.3907 22.2207 21.5345 22.1569 21.7369C22.0415 21.2932 22.4725 20.6129 22.9036 20.4832" fill="black"/>
<path d="M13.8352 24.9138C13.729 24.7861 13.6429 24.6428 13.58 24.489C13.6297 24.6723 13.6792 24.8558 13.7284 25.0395C13.4599 24.9246 13.4444 24.3142 13.4068 24.044C13.4097 24.1555 13.3796 24.2654 13.3202 24.3599C13.2328 24.0369 13.2183 23.6984 13.2779 23.369C13.2645 23.4 13.2517 23.4309 13.239 23.4625C13.2281 23.2681 13.233 23.0732 13.2537 22.8797C13.2536 22.9303 13.2399 22.98 13.2141 23.0235C13.1882 23.067 13.1511 23.1028 13.1067 23.127C13.147 23.1055 13.1879 22.6773 13.2061 22.6108C13.2531 22.4319 13.3229 22.2632 13.3806 22.0891C13.2685 23.0423 13.3753 24.0601 13.8359 24.9125" fill="black"/>
<path d="M21.4265 25.0772C21.5556 25.0282 21.6697 24.9464 21.7575 24.8399C21.7717 24.9378 21.7769 25.0368 21.773 25.1356C21.9264 24.8665 22.0333 24.5733 22.0892 24.2685C22.093 24.3365 22.1176 24.4018 22.1597 24.4553C22.1772 24.278 22.1826 24.0997 22.1758 23.9216L22.243 23.9942C22.204 23.9505 22.2087 22.7472 22.0006 22.4991C22.0899 23.4033 21.9227 24.3048 21.4279 25.0772" fill="black"/>
<path d="M10.8057 13.336C10.9668 13.336 11.128 13.336 11.2884 13.3407C11.2629 13.3875 11.2281 13.4285 11.1862 13.4613C11.1443 13.4942 11.0962 13.5181 11.0447 13.5316C11.2583 13.585 11.4791 13.6039 11.6987 13.5874L11.6463 13.6862C11.8323 13.6553 12.2291 13.3884 12.2969 13.3252L11.9518 13.4173C11.8781 13.44 11.8019 13.4536 11.7249 13.4577C11.7987 13.3756 11.8853 13.3367 11.9874 13.2594C11.8142 13.354 11.62 13.4034 11.4227 13.4032C11.5536 13.1457 11.8806 13.0785 12.0659 12.8594C11.6309 13.0375 11.3274 13.3353 10.8057 13.336Z" fill="black"/>
<path d="M22.539 13.9597C22.7308 13.893 22.908 13.7898 23.0607 13.6559C22.9934 13.8095 22.8959 13.9481 22.774 14.0632C23.0534 13.9176 23.3324 13.7706 23.6113 13.6223C23.5316 13.773 23.4089 13.8965 23.2588 13.9772C22.9547 14.1506 22.5202 14.3805 21.9737 14.4155C22.1026 14.3362 22.1402 14.232 22.2423 14.1668C22.1496 14.189 22.057 14.2138 21.9636 14.2306C22.026 14.1614 22.0987 14.1022 22.1792 14.0552C21.9838 13.9725 22.2027 13.8999 22.292 13.8656C22.4934 13.789 22.668 13.7258 22.821 13.5645C22.7781 13.666 22.6512 13.9201 22.537 13.9597" fill="black"/>
<path d="M16.2772 5.96698C16.2674 6.0728 16.2211 6.17191 16.1463 6.2473C16.5232 6.22292 16.8949 6.14529 17.2501 6.01672L16.7801 6.44628C17.4034 6.31283 18.0167 6.13651 18.6158 5.91858C18.5279 6.06333 18.4178 6.19332 18.2895 6.30377C18.7519 6.23213 19.2183 6.18925 19.6861 6.17537C19.4887 6.34007 19.2161 6.37704 18.9602 6.39788C18.1102 6.47653 17.24 6.51619 16.4444 6.82676C16.4328 6.77679 16.4317 6.72497 16.4411 6.67454C16.4504 6.62411 16.4701 6.57616 16.4988 6.53367C16.2551 6.58318 16.0234 6.67977 15.8166 6.81802C15.8129 6.72618 15.8406 6.63582 15.8952 6.5619C15.679 6.85164 15.1619 7.17767 14.8296 7.30136C15.1875 6.75752 15.7253 6.29906 16.2779 5.96362" fill="black"/>
<path d="M13.3331 7.48216C13.3654 7.59397 13.3914 7.70754 13.4109 7.82231C13.3288 7.71821 13.2556 7.60735 13.1921 7.4909C13.1524 7.41762 13.1101 7.33561 13.0323 7.30469C13.1524 7.5378 13.2245 7.79268 13.2444 8.05423C13.113 7.83016 12.9135 7.65399 12.675 7.5514C12.677 7.6129 12.6979 7.6723 12.7348 7.72147C12.8427 7.90073 12.951 8.07999 13.0598 8.25926L12.8584 8.28413L13.1867 8.55302C13.0185 8.52091 12.8545 8.46971 12.6979 8.40042C12.8826 8.60985 13.0137 8.86108 13.0799 9.13248C13.0644 9.13212 13.0492 9.12817 13.0354 9.12094C13.0217 9.11371 13.0098 9.1034 13.0007 9.09081C13.0553 9.24766 13.1021 9.40675 13.141 9.56809C13.1099 9.52818 13.0871 9.48248 13.0739 9.43364C13.0846 9.5365 13.0994 9.63531 13.1182 9.73951C13.1619 9.61845 13.1772 9.48898 13.1632 9.36104C13.1819 9.41149 13.2084 9.45868 13.2417 9.50087C13.2445 9.25949 13.1952 9.02035 13.0974 8.79973L13.2162 8.8972C13.2241 8.79321 13.2211 8.68868 13.2075 8.58529L13.2847 8.68276C13.2997 8.59829 13.296 8.51156 13.274 8.42866C13.2344 8.31371 13.1249 8.22699 13.1001 8.11002C13.2204 8.22412 13.3536 8.32383 13.4969 8.40715C13.4297 8.25724 13.3592 8.10666 13.2908 7.95675C13.3408 8.01095 13.3858 8.06968 13.425 8.1322C13.4297 8.05901 13.4297 7.98558 13.425 7.91238C13.516 8.07427 13.596 8.24203 13.6647 8.41454L13.5801 8.13422C13.6943 8.37054 13.7827 8.61845 13.844 8.87368C13.8004 8.40715 13.7433 7.92314 13.3304 7.48148" fill="black"/>
<path d="M20.99 7.3081C21.0278 7.17206 21.0947 7.04588 21.1861 6.93837C21.1788 7.00721 21.1632 7.07492 21.1398 7.14004C21.1903 7.10403 21.2312 7.05598 21.2586 7.00022C21.2257 7.12189 21.1915 7.24289 21.1606 7.36389C21.2519 7.21212 21.3517 7.06557 21.4594 6.92493L21.2707 7.40692L21.405 7.26239C21.3509 7.45675 21.3207 7.65698 21.315 7.85866C21.3803 7.71721 21.4835 7.59667 21.6131 7.51044C21.546 7.62136 21.4822 7.73564 21.4251 7.85261C21.5145 7.76415 21.6086 7.68067 21.7071 7.60254C21.6271 7.74139 21.5596 7.88718 21.5057 8.03814C21.5796 7.94209 21.6633 7.854 21.7555 7.7753C21.6845 7.94749 21.604 8.11558 21.5144 8.2788C21.5596 8.21529 21.6177 8.16212 21.685 8.12284C21.6574 8.23511 21.5802 8.32451 21.5205 8.42602C21.439 8.56246 21.3903 8.71593 21.3781 8.8744C21.3629 8.69631 21.3899 8.51715 21.4567 8.3514C21.4224 8.42333 21.3895 8.49526 21.3553 8.56786C21.3263 8.34735 21.3493 8.12312 21.4224 7.91311C21.375 8.00365 21.3228 8.09162 21.266 8.17662C21.2552 7.98705 21.253 7.79704 21.2593 7.60657C21.2043 7.66325 21.1544 7.72466 21.1102 7.79009V7.48086C21.0205 7.65707 20.9563 7.84516 20.9195 8.03949C20.8994 8.13427 20.8839 8.2304 20.8698 8.32653C20.8687 8.38045 20.8587 8.43381 20.8403 8.4845C20.7792 8.39442 20.8027 8.1867 20.8061 8.08116C20.8134 7.81227 20.9021 7.5575 20.9914 7.30743" fill="black"/>
<path d="M21.327 9.32607C21.327 9.43362 21.3303 9.54185 21.3324 9.64941C21.3906 9.56258 21.4399 9.47 21.4794 9.37312C21.4794 9.45715 21.4848 9.54051 21.4881 9.62454C21.5893 9.50964 21.6839 9.38912 21.7715 9.26355C21.7162 9.45707 21.6385 9.64343 21.5398 9.81881L21.6701 9.78184C21.614 9.86754 21.5318 9.93285 21.4358 9.96805L21.094 10.1415C21.1511 10.0178 21.2283 9.90015 21.2343 9.76436C21.2364 9.68937 21.2449 9.6147 21.2598 9.54118C21.2733 9.47396 21.327 9.38791 21.327 9.32607Z" fill="black"/>
<path d="M12.1306 20.9463C11.9993 21.2037 11.8998 21.4762 11.8345 21.7577C11.7499 22.0772 11.6801 22.4001 11.625 22.7264C11.7329 22.4199 11.8408 22.1135 11.9486 21.8075C11.9391 22.0069 11.9074 22.2046 11.854 22.397L12.2024 21.5271C12.2433 21.4109 12.2998 21.3008 12.3703 21.1998C12.4059 21.1494 12.4514 21.1069 12.5041 21.0749C12.5568 21.0428 12.6154 21.022 12.6765 21.0135C12.7055 21.0096 12.7351 21.0117 12.7634 21.0195C12.7917 21.0274 12.8181 21.0409 12.841 21.0593C12.8663 21.085 12.8867 21.115 12.9014 21.148C12.9775 21.3054 13.0187 21.4774 13.0223 21.6522C13.083 21.4975 13.1188 21.3341 13.1283 21.1682C13.1389 21.0937 13.1252 21.0178 13.0894 20.9517C13.0283 20.8589 12.9054 20.8347 12.7953 20.8173C12.8282 20.7534 12.8839 20.7547 12.9773 20.7386C12.8832 20.7191 12.7872 20.7107 12.6912 20.7137C12.684 20.6605 12.6947 20.6064 12.7217 20.56C12.7487 20.5136 12.7905 20.4775 12.8403 20.4576C12.7427 20.4867 12.6475 20.5234 12.5556 20.5672C12.5872 20.5524 12.6563 20.4153 12.6825 20.3823C12.4811 20.4132 12.2058 20.8132 12.1333 20.9443" fill="black"/>
<path d="M17.4221 14.5318C17.5913 14.4168 17.7531 14.3059 17.9156 14.1957C18.1003 14.072 18.1097 14.0155 17.9653 13.8058V13.949C17.6296 13.8858 17.5624 14.1506 17.4711 14.3859C17.461 14.4358 17.4445 14.4841 17.4221 14.5298" fill="#FCA7CA"/>
<defs>
<linearGradient id="paint0_linear_2198_336" x1="22.5932" y1="4.59821" x2="21.484" y2="7.91129" gradientUnits="userSpaceOnUse">
<stop stop-color="white"/>
<stop offset="1" stop-color="#FCA7CA"/>
</linearGradient>
<linearGradient id="paint1_linear_2198_336" x1="10.6587" y1="4.67995" x2="12.6973" y2="8.97797" gradientUnits="userSpaceOnUse">
<stop stop-color="white"/>
<stop offset="1" stop-color="#FCA7CA"/>
</linearGradient>
</defs>
</svg>
