<svg width="32" height="32" viewBox="0 0 32 32" fill="none" xmlns="http://www.w3.org/2000/svg">
<path d="M15.8564 0L2 8V24L15.8564 32L29.7129 24V8L15.8564 0Z" fill="#82D2FF"/>
<path d="M15.8564 16V0L2 8L15.8564 16Z" fill="#08B7FC"/>
<path d="M2 8V24L15.8564 16L2 8Z" fill="#006DFF"/>
<path d="M29.7129 8L15.8564 16L29.7129 24V8Z" fill="#08B7FC"/>
<path d="M15.8564 16L2 24L15.8564 32V16Z" fill="#0050C0"/>
<path d="M15.8564 32L29.7129 24L15.8564 16V32Z" fill="#006DFF"/>
<path d="M23.6766 20.5149V11.4851L15.8566 6.97018L8.0365 11.4851V20.5149L15.8566 25.0298L23.6766 20.5149Z" fill="#82D2FF"/>
<path d="M23.6765 20.5149V11.4851L15.8564 6.97018V25.0298L23.6765 20.5149Z" fill="#55CBFF"/>
</svg>
