<svg width="32" height="32" viewBox="0 0 32 32" fill="none" xmlns="http://www.w3.org/2000/svg">
<g clip-path="url(#clip0_113_1253)">
<path d="M16.1056 1.03017L15.5533 1.32796C15.5533 1.32796 12.9834 4.49601 9.15729 3.35035L8.6047 3.64814C7.45904 7.47422 3.39981 7.88027 3.39981 7.88027L2.84753 8.17806C2.84753 8.17806 6.74736 9.59641 7.81143 12.2313L16.9114 7.52443C15.2951 5.18698 16.1056 1.03017 16.1056 1.03017Z" fill="#FFE161"/>
<path d="M16.9114 7.52412L7.8114 12.231C6.88885 9.94974 3.84192 8.57846 3.04175 8.25212C4.45382 8.65064 7.54688 9.83521 8.75278 9.09308C12.8321 6.58274 16.6886 7.20091 16.9114 7.52412Z" fill="#FBBC05"/>
<path d="M8.71958 3.71718C9.23949 3.71718 9.66096 3.29571 9.66096 2.7758C9.66096 2.25589 9.23949 1.83442 8.71958 1.83442C8.19967 1.83442 7.7782 2.25589 7.7782 2.7758C7.7782 3.29571 8.19967 3.71718 8.71958 3.71718Z" fill="#FF1849"/>
<path d="M2.94138 8.88222C3.46129 8.88222 3.88276 8.46075 3.88276 7.94084C3.88276 7.42093 3.46129 6.99946 2.94138 6.99946C2.42147 6.99946 2 7.42093 2 7.94084C2 8.46075 2.42147 8.88222 2.94138 8.88222Z" fill="#FF1849"/>
<path d="M15.8047 1.88274C16.3246 1.88274 16.746 1.46127 16.746 0.941364C16.746 0.421455 16.3246 -1.52588e-05 15.8047 -1.52588e-05C15.2848 -1.52588e-05 14.8633 0.421455 14.8633 0.941364C14.8633 1.46127 15.2848 1.88274 15.8047 1.88274Z" fill="#FF1849"/>
<path d="M17.539 32C24.4712 32 30.0908 26.3804 30.0908 19.4483C30.0908 12.5161 24.4712 6.89653 17.539 6.89653C10.6069 6.89653 4.9873 12.5161 4.9873 19.4483C4.9873 26.3804 10.6069 32 17.539 32Z" fill="#FBBC05"/>
<path d="M30.0907 19.4483C30.0907 26.3803 24.4713 32 17.539 32C15.2881 32 13.0785 31.3947 11.1419 30.2475C9.20519 29.1003 7.61268 27.4534 6.53113 25.4794C13.3304 29.3036 21.9425 26.8921 25.7666 20.0928C27.1782 17.5832 27.7891 14.7021 27.5176 11.8356C29.1898 14.0208 30.0942 16.6967 30.0907 19.4483Z" fill="#F4950C"/>
<path d="M17.5391 30.1172C23.4314 30.1172 28.2081 25.3406 28.2081 19.4483C28.2081 13.5559 23.4314 8.77929 17.5391 8.77929C11.6468 8.77929 6.87012 13.5559 6.87012 19.4483C6.87012 25.3406 11.6468 30.1172 17.5391 30.1172Z" fill="#FFE161"/>
<path d="M28.208 19.4483C28.208 25.3404 23.4317 30.1169 17.5396 30.1172C16.0985 30.1172 14.6723 29.8253 13.3471 29.259C12.0219 28.6927 10.8252 27.8638 9.8291 26.8224C17.3774 28.8203 25.1158 24.3212 27.1141 16.7729C27.2352 16.3153 27.3331 15.8519 27.4078 15.3846C27.9373 16.6739 28.2091 18.0545 28.208 19.4483Z" fill="#FBBC05"/>
<path d="M26.727 24.8769C25.8443 26.3701 24.6108 27.6255 23.1333 28.5342C21.6559 29.443 19.9791 29.9778 18.2483 30.0921C16.7758 29.997 15.3399 29.5927 14.0342 28.9055C12.7285 28.2183 11.5822 27.2637 10.6702 26.1038C10.9823 24.8392 11.5666 23.6578 12.3822 22.6422C13.1979 21.6266 14.2253 20.8011 15.3928 20.2233C13.7127 18.2866 13.9207 15.3545 15.8578 13.6745C17.7948 11.9944 20.7266 12.2025 22.4067 14.1395C23.1385 14.9832 23.5417 16.0624 23.5422 17.1793C23.5427 18.2962 23.1406 19.3758 22.4095 20.2202C24.3742 21.1861 25.9121 22.8448 26.727 24.8769Z" fill="#FBBC05"/>
<path d="M25.8672 26.1195C22.1807 30.7188 15.464 31.4587 10.8647 27.7722C10.2309 27.2642 9.65712 26.6855 9.15454 26.0473C10.1555 22.1406 13.5163 19.2694 17.5014 19.2694C21.5117 19.2694 24.8881 22.1751 25.8672 26.1195Z" fill="#1877F2"/>
<path d="M17.5011 21.7126C20.1006 21.7126 22.208 19.6052 22.208 17.0057C22.208 14.4061 20.1006 12.2988 17.5011 12.2988C14.9015 12.2988 12.7942 14.4061 12.7942 17.0057C12.7942 19.6052 14.9015 21.7126 17.5011 21.7126Z" fill="#1877F2"/>
</g>
<defs>
<clipPath id="clip0_113_1253">
<rect width="32" height="32" fill="white"/>
</clipPath>
</defs>
</svg>
