<svg width="23" height="24" viewBox="0 0 23 24" fill="none" xmlns="http://www.w3.org/2000/svg">
<path d="M11.5117 0C16.8871 0 21.2392 3.60546 21.2392 8.05584C21.2392 12.5062 16.8835 15.2121 11.5117 15.2121C6.21275 15.1065 2.52353 13.3766 0.429443 10.0297C1.55843 3.6783 5.25858 0.342337 11.5117 0ZM11.1475 5.00759C8.05919 5.31715 6.16905 6.78847 5.47345 9.41791C6.4167 10.2446 8.30683 10.7035 11.1475 10.8018C13.9991 10.7581 15.729 9.92049 15.7581 7.99029C15.576 5.85615 13.5074 4.92382 11.1475 5.00759Z" fill="black"/>
<path d="M0.0251237 12.142C1.61298 16.7126 6.01238 19.2546 10.5283 19.2546C14.2722 19.2546 16.7596 17.634 18.0597 15.1903L22.2552 17.8197C20.7948 21.4033 16.4537 24 11.3368 24C5.00358 23.9964 -0.415544 19.7354 0.0251237 12.3241V12.142Z" fill="#00C252"/>
</svg>
