<svg width="32" height="32" viewBox="0 0 32 32" fill="none" xmlns="http://www.w3.org/2000/svg">
<g clip-path="url(#clip0_116_1882)">
<path d="M16.871 21.6779L13.0457 15.0522C13.0042 14.9804 12.993 14.8951 13.0144 14.8151C13.0359 14.735 13.0883 14.6668 13.16 14.6253L13.9178 14.1878C13.9896 14.1464 14.0748 14.1351 14.1549 14.1566C14.235 14.178 14.3032 14.2304 14.3447 14.3022L18.17 20.9279C18.2115 20.9997 18.2227 21.085 18.2012 21.1651C18.1798 21.2451 18.1274 21.3134 18.0557 21.3548L17.2979 21.7923C17.2261 21.8337 17.1408 21.845 17.0608 21.8235C16.9807 21.8021 16.9125 21.7497 16.871 21.6779Z" fill="#FD4343"/>
<path d="M9.44826 19.2693L2.15845 6.643L7.98164 3.28094L15.7402 16.7191L10.7289 19.6124C10.2805 19.8713 9.70714 19.7177 9.44826 19.2693Z" fill="#FC9302"/>
<path d="M5.07007 4.962L7.98169 3.281L15.7403 16.7192L12.8286 18.4002L5.07007 4.962Z" fill="#FDA800"/>
<path d="M5.88708 4.49025L7.00696 3.84369L14.7655 17.2819L13.6457 17.9284L5.88708 4.49025Z" fill="#FFDF8E"/>
<path d="M3.19934 6.042L4.31922 5.39544L12.0778 18.8336L10.9579 19.4802L3.19934 6.042ZM16.4966 30.1206C16.6085 30.2698 16.4577 30.4731 16.2825 30.4093L13.7673 29.4936C13.645 29.4491 13.5156 29.5397 13.5157 29.6699L13.516 31.112C13.3142 31.0791 13.1132 31.0421 12.9129 31.0011L12.3166 29.9678C12.3022 29.9428 12.2823 29.9216 12.2584 29.9056C12.2345 29.8896 12.2072 29.8794 12.1787 29.8756C12.1501 29.8718 12.1211 29.8747 12.0939 29.884C12.0667 29.8932 12.0419 29.9086 12.0216 29.9289L11.3554 30.5954C11.1235 30.5217 10.8933 30.4424 10.6652 30.3576L10.9466 29.3083C10.954 29.2805 10.955 29.2514 10.9494 29.2232C10.9438 29.195 10.9318 29.1684 10.9142 29.1456C10.8967 29.1228 10.8742 29.1043 10.8484 29.0916C10.8226 29.0789 10.7942 29.0723 10.7655 29.0723L9.06572 29.0726C8.87384 29.0727 8.80578 28.8186 8.97197 28.7227L10.4442 27.8732C10.4691 27.8588 10.4904 27.8389 10.5064 27.815C10.5224 27.7911 10.5326 27.7638 10.5364 27.7353C10.5401 27.7067 10.5373 27.6777 10.528 27.6505C10.5188 27.6233 10.5034 27.5985 10.483 27.5782L9.18784 26.2836C9.05997 26.1558 9.16928 25.9388 9.34815 25.9656L10.9949 26.2119C11.0242 26.2163 11.054 26.2136 11.0821 26.2043C11.1101 26.1949 11.1356 26.179 11.1563 26.1579C11.1771 26.1368 11.1925 26.1111 11.2014 26.0829C11.2103 26.0547 11.2125 26.0248 11.2076 25.9956L10.8065 23.5889C10.7718 23.3807 11.0543 23.2829 11.1558 23.4679L12.5408 25.9933C12.5548 26.0188 12.5745 26.0407 12.5985 26.0573C12.6224 26.0738 12.6499 26.0846 12.6787 26.0887C12.7075 26.0928 12.7369 26.0902 12.7645 26.0809C12.7921 26.0717 12.8172 26.0562 12.8378 26.0356L14.0355 24.8374C14.1711 24.7017 14.3989 24.8332 14.3492 25.0185L13.9088 26.6603C13.9014 26.688 13.9004 26.7172 13.906 26.7454C13.9117 26.7736 13.9237 26.8001 13.9412 26.823C13.9587 26.8458 13.9812 26.8643 14.007 26.877C14.0328 26.8897 14.0612 26.8963 14.09 26.8963L15.968 26.8959C16.1438 26.8958 16.223 27.1161 16.0873 27.228L15.138 28.0111C15.1008 28.0418 15.0769 28.0856 15.0712 28.1335C15.0655 28.1814 15.0784 28.2296 15.1073 28.2682L16.4966 30.1206Z" fill="#FDBF43"/>
<path d="M17.5134 21.1525L13.2256 28.5793C13.1841 28.6511 13.1159 28.7035 13.0358 28.7249C12.9558 28.7464 12.8705 28.7351 12.7987 28.6937L11.8957 28.1724C11.824 28.1309 11.7716 28.0627 11.7501 27.9826C11.7287 27.9026 11.7399 27.8173 11.7814 27.7455L16.0692 20.3187C16.1106 20.2469 16.1789 20.1946 16.2589 20.1731C16.339 20.1517 16.4243 20.1629 16.4961 20.2043L17.399 20.7256C17.4345 20.7461 17.4657 20.7735 17.4907 20.806C17.5157 20.8386 17.534 20.8757 17.5446 20.9154C17.5553 20.955 17.558 20.9964 17.5526 21.037C17.5473 21.0777 17.5339 21.117 17.5134 21.1525Z" fill="#FD4343"/>
<path d="M20.1626 26.3051L14.5004 23.0361L23.1261 8.09588L29.6001 11.8337L21.4432 25.962C21.1843 26.4104 20.6109 26.564 20.1626 26.3051Z" fill="#00F1A5"/>
<path d="M17.7374 24.9049L14.5004 23.0361L23.1261 8.09588L26.3631 9.96475L17.7374 24.9049Z" fill="#0AB59E"/>
<path d="M15.938 20.5461L23.5622 22.2918L22.6996 23.7858L15.0754 22.04L15.938 20.5461ZM16.8006 19.052L24.4248 20.7978L25.2873 19.3038L17.6631 17.5579L16.8006 19.052ZM21.1134 11.5819L20.2509 13.0759L27.8751 14.8218L28.7376 13.3278L21.1134 11.5819ZM18.5258 16.064L26.1499 17.8098L27.0125 16.3158L19.3883 14.57L18.5258 16.064Z" fill="#008A80"/>
<path d="M21.4752 18.4309L25.2873 19.3038L24.4247 20.7978L20.6126 19.9249L21.4752 18.4309ZM18.8875 22.9129L22.6995 23.7858L23.5621 22.2918L19.75 21.4189L18.8875 22.9129ZM22.3378 16.9369L26.1498 17.8098L27.0124 16.3158L23.2003 15.4429L22.3378 16.9369ZM24.9255 12.4548L24.0629 13.9488L27.875 14.8217L28.7375 13.3277L24.9255 12.4548Z" fill="#08B772"/>
<path d="M20.4787 7.26463C20.3276 7.10675 20.4008 6.84457 20.6119 6.788L29.3076 4.458C29.3441 4.44823 29.3821 4.44574 29.4196 4.45066C29.457 4.45559 29.4931 4.46785 29.5258 4.48673C29.5585 4.50561 29.5872 4.53074 29.6101 4.5607C29.6331 4.59065 29.65 4.62484 29.6597 4.66131L31.9897 13.357C32.0463 13.5681 31.8559 13.7627 31.6436 13.7107C27.3848 12.6673 23.5118 10.4312 20.4787 7.26463Z" fill="#D73131"/>
<path d="M0.320323 8.33132C0.129323 8.37813 -0.0419273 8.20313 0.00894771 8.01319L2.1047 0.191688C2.11349 0.158882 2.12865 0.128129 2.14933 0.101184C2.17001 0.0742391 2.19579 0.0516305 2.2252 0.034649C2.25461 0.0176675 2.28708 0.00664554 2.32075 0.00221252C2.35443 -0.0022205 2.38864 2.22102e-05 2.42145 0.00881258L10.243 2.10456C10.4329 2.15544 10.4988 2.39125 10.3628 2.53325C7.63463 5.38144 4.15098 7.39274 0.320323 8.33132ZM31.6436 13.7107H31.6438C31.856 13.7626 32.0464 13.5681 31.9898 13.357L29.6598 4.66131C29.65 4.62483 29.6332 4.59063 29.6102 4.56067C29.5872 4.53071 29.5586 4.50559 29.5258 4.48675L25.6015 11.2838C27.4906 12.3745 29.5249 13.1916 31.6436 13.7107Z" fill="#FD4343"/>
<path d="M0.320325 8.33126H0.3202C0.129263 8.37795 -0.0419247 8.20301 0.00895035 8.01313L2.1047 0.191692C2.11346 0.158868 2.12861 0.128097 2.14929 0.101144C2.16997 0.074191 2.19576 0.0515871 2.2252 0.0346298L5.75495 6.14838C4.0558 7.12944 2.22601 7.86439 0.320325 8.33126Z" fill="#D73131"/>
<path d="M4.64166 20.6053L3.08197 20.9821C3.01265 20.9989 2.94042 20.9997 2.87074 20.9845C2.80106 20.9693 2.73574 20.9385 2.6797 20.8943C2.62366 20.8502 2.57836 20.794 2.54721 20.7298C2.51606 20.6657 2.49988 20.5953 2.49988 20.5239C2.49988 20.4526 2.51606 20.3822 2.54721 20.3181C2.57836 20.2539 2.62366 20.1977 2.6797 20.1536C2.73574 20.1094 2.80106 20.0786 2.87074 20.0634C2.94042 20.0482 3.01265 20.049 3.08197 20.0658L4.64166 20.4426C4.72703 20.4633 4.72703 20.5846 4.64166 20.6053Z" fill="#01988C"/>
<path d="M5.4153 20.4426L6.97499 20.0658C7.04432 20.049 7.11654 20.0482 7.18622 20.0634C7.2559 20.0786 7.32122 20.1094 7.37726 20.1536C7.4333 20.1977 7.4786 20.2539 7.50975 20.3181C7.5409 20.3822 7.55708 20.4526 7.55708 20.5239C7.55708 20.5953 7.5409 20.6657 7.50975 20.7298C7.4786 20.794 7.4333 20.8502 7.37726 20.8943C7.32122 20.9385 7.2559 20.9693 7.18622 20.9845C7.11654 20.9997 7.04432 20.9989 6.97499 20.9821L5.4153 20.6053C5.32999 20.5846 5.32999 20.4633 5.4153 20.4426Z" fill="#0ED1B2"/>
<path d="M5.10982 20.9108L5.48669 22.4704C5.50344 22.5398 5.50425 22.612 5.48904 22.6817C5.47383 22.7514 5.44301 22.8167 5.3989 22.8727C5.35479 22.9288 5.29853 22.9741 5.23437 23.0052C5.17021 23.0364 5.09982 23.0525 5.0285 23.0525C4.95718 23.0525 4.88679 23.0364 4.82263 23.0052C4.75848 22.9741 4.70222 22.9288 4.65811 22.8727C4.614 22.8167 4.58318 22.7514 4.56797 22.6817C4.55276 22.612 4.55356 22.5398 4.57032 22.4704L4.94719 20.9108C4.96782 20.8254 5.08919 20.8254 5.10982 20.9108Z" fill="#0AB59E"/>
<path d="M15.7452 5.0755L15.182 2.74481C15.1537 2.62749 15.156 2.50485 15.1887 2.38865C15.2213 2.27246 15.2833 2.16661 15.3687 2.08125C15.4773 1.97272 15.6184 1.90265 15.7705 1.8817C15.9226 1.86075 16.0774 1.89006 16.2113 1.96519C16.3452 2.04032 16.4509 2.15714 16.5123 2.29787C16.5737 2.43861 16.5875 2.59555 16.5515 2.74481L15.9883 5.0755C15.9574 5.203 15.776 5.203 15.7452 5.0755Z" fill="#FDADE0"/>
<path d="M16.4281 5.83732L18.7282 6.51494C18.8439 6.54905 18.949 6.61234 19.0333 6.69873C19.1176 6.78513 19.1782 6.89173 19.2095 7.00832C19.3102 7.38407 19.0872 7.77032 18.7114 7.871C18.5948 7.90224 18.4722 7.90299 18.3552 7.87319C18.2382 7.84339 18.1309 7.78403 18.0435 7.70082L16.3066 6.04775C16.2115 5.95732 16.3022 5.80025 16.4281 5.83732Z" fill="#FD73C4"/>
<path d="M15.4269 6.04775L13.6901 7.70082C13.6026 7.78403 13.4953 7.84339 13.3783 7.87319C13.2614 7.90299 13.1387 7.90224 13.0221 7.871C12.6464 7.77032 12.4234 7.38407 12.5241 7.00832C12.5553 6.89173 12.616 6.78513 12.7002 6.69873C12.7845 6.61234 12.8896 6.54905 13.0054 6.51494L15.3054 5.83732C15.4312 5.80025 15.5219 5.95732 15.4269 6.04775Z" fill="#FD2AA7"/>
<path d="M4.94714 20.1371L4.57027 18.5774C4.55352 18.5081 4.55271 18.4359 4.56792 18.3662C4.58313 18.2965 4.61395 18.2312 4.65806 18.1752C4.70217 18.1191 4.75843 18.0738 4.82259 18.0427C4.88675 18.0115 4.95714 17.9954 5.02846 17.9954C5.09978 17.9954 5.17017 18.0115 5.23433 18.0427C5.29848 18.0738 5.35474 18.1191 5.39885 18.1752C5.44296 18.2312 5.47378 18.2965 5.48899 18.3662C5.5042 18.4359 5.5034 18.5081 5.48664 18.5774L5.10977 20.1371C5.08914 20.2225 4.96777 20.2225 4.94714 20.1371ZM15.7453 6.23157L15.1821 8.56225C15.1537 8.67958 15.156 8.80222 15.1887 8.91842C15.2214 9.03461 15.2834 9.14046 15.3687 9.22582C15.4773 9.33435 15.6184 9.40442 15.7705 9.42537C15.9227 9.44632 16.0774 9.417 16.2114 9.34188C16.3453 9.26675 16.451 9.14993 16.5124 9.0092C16.5738 8.86846 16.5875 8.71152 16.5515 8.56225L15.9883 6.23157C15.9575 6.104 15.7761 6.104 15.7453 6.23157ZM15.427 5.25925L13.6901 3.60619C13.6027 3.52297 13.4953 3.46361 13.3784 3.43381C13.2614 3.40401 13.1387 3.40477 13.0221 3.436C12.6464 3.53669 12.4234 3.92294 12.5241 4.29869C12.5553 4.41527 12.616 4.52188 12.7003 4.60827C12.7846 4.69467 12.8896 4.75796 13.0054 4.79207L15.3055 5.46969C15.4313 5.50682 15.522 5.34975 15.427 5.25925ZM17.3881 4.90613L19.6881 4.2285C19.8039 4.19439 19.909 4.1311 19.9933 4.04471C20.0776 3.95831 20.1382 3.85171 20.1695 3.73513C20.2702 3.35938 20.0471 2.97313 19.6714 2.87244C19.5548 2.8412 19.4322 2.84045 19.3152 2.87025C19.1982 2.90005 19.0909 2.95941 19.0035 3.04263L17.2666 4.69569C17.1715 4.78613 17.2623 4.94325 17.3881 4.90613ZM7.09977 12.5518L5.68433 11.8743C5.65858 11.862 5.63783 11.8413 5.62552 11.8155L4.94808 10.4001C4.90277 10.3054 4.76789 10.3054 4.72258 10.4001L4.04514 11.8155C4.03284 11.8413 4.01208 11.862 3.98633 11.8743L2.57089 12.5518C2.47621 12.5971 2.47621 12.7319 2.57089 12.7773L3.98633 13.4547C4.01208 13.467 4.03283 13.4878 4.04514 13.5135L4.72258 14.9289C4.76789 15.0236 4.90277 15.0236 4.94808 14.9289L5.62552 13.5135C5.63783 13.4878 5.65858 13.467 5.68433 13.4547L7.09977 12.7773C7.19452 12.7319 7.19452 12.5971 7.09977 12.5518ZM18.9922 12.0354L18.3178 11.7126C18.3056 11.7067 18.2957 11.6968 18.2898 11.6846L17.967 11.0102C17.9622 11.0001 17.9546 10.9915 17.945 10.9855C17.9355 10.9795 17.9245 10.9764 17.9133 10.9764C17.9021 10.9764 17.8911 10.9795 17.8816 10.9855C17.8721 10.9915 17.8644 11.0001 17.8596 11.0102L17.5368 11.6846C17.5309 11.6968 17.521 11.7067 17.5088 11.7126L16.8344 12.0354C16.8243 12.0402 16.8157 12.0479 16.8097 12.0574C16.8037 12.0669 16.8006 12.0779 16.8006 12.0891C16.8006 12.1003 16.8037 12.1113 16.8097 12.1208C16.8157 12.1303 16.8243 12.138 16.8344 12.1428L17.5088 12.4656C17.521 12.4715 17.5309 12.4814 17.5368 12.4936L17.8596 13.168C17.8644 13.1781 17.8721 13.1867 17.8816 13.1927C17.8911 13.1987 17.9021 13.2018 17.9133 13.2018C17.9245 13.2018 17.9355 13.1987 17.945 13.1927C17.9546 13.1867 17.9622 13.1781 17.967 13.168L18.2898 12.4936C18.2957 12.4814 18.3056 12.4715 18.3178 12.4656L18.9922 12.1428C19.0023 12.138 19.0109 12.1303 19.0169 12.1208C19.0229 12.1113 19.026 12.1003 19.026 12.0891C19.026 12.0779 19.0229 12.0669 19.0169 12.0574C19.0109 12.0479 19.0023 12.0402 18.9922 12.0354Z" fill="#FFF5F5"/>
<path d="M28.358 21.2003L27.6837 21.5231C27.6714 21.5289 27.6615 21.5388 27.6557 21.5511L27.3328 22.2254C27.328 22.2356 27.3204 22.2441 27.3109 22.2501C27.3014 22.2561 27.2904 22.2593 27.2791 22.2593C27.2679 22.2593 27.2569 22.2561 27.2474 22.2501C27.2379 22.2441 27.2303 22.2356 27.2254 22.2254L26.9026 21.5511C26.8967 21.5388 26.8868 21.5289 26.8746 21.5231L26.2002 21.2003C26.1901 21.1954 26.1815 21.1878 26.1755 21.1783C26.1696 21.1688 26.1664 21.1578 26.1664 21.1465C26.1664 21.1353 26.1696 21.1243 26.1755 21.1148C26.1815 21.1053 26.1901 21.0977 26.2002 21.0928L26.8746 20.77C26.8868 20.7641 26.8967 20.7543 26.9026 20.742L27.2254 20.0676C27.2303 20.0575 27.2379 20.0489 27.2474 20.043C27.2569 20.037 27.2679 20.0338 27.2791 20.0338C27.2904 20.0338 27.3014 20.037 27.3109 20.043C27.3204 20.0489 27.328 20.0575 27.3328 20.0676L27.6557 20.742C27.6615 20.7543 27.6714 20.7641 27.6837 20.77L28.358 21.0928C28.3682 21.0977 28.3767 21.1053 28.3827 21.1148C28.3887 21.1243 28.3919 21.1353 28.3919 21.1465C28.3919 21.1578 28.3887 21.1688 28.3827 21.1783C28.3767 21.1878 28.3682 21.1954 28.358 21.2003Z" fill="#FDD78D"/>
<path d="M26.8219 24.5834L25.9275 25.0116C25.9113 25.0194 25.8981 25.0324 25.8904 25.0487L25.4623 25.9431C25.4336 26.003 25.3484 26.003 25.3198 25.9431L24.8916 25.0487C24.8839 25.0324 24.8708 25.0193 24.8545 25.0116L23.9601 24.5834C23.9002 24.5548 23.9002 24.4696 23.9601 24.4409L24.8545 24.0128C24.8708 24.0051 24.8839 23.9919 24.8916 23.9757L25.3198 23.0813C25.3484 23.0214 25.4336 23.0214 25.4623 23.0813L25.8904 23.9757C25.8982 23.9919 25.9113 24.0051 25.9275 24.0128L26.8219 24.4409C26.8818 24.4696 26.8818 24.5548 26.8219 24.5834Z" fill="#FDBF43"/>
</g>
<defs>
<clipPath id="clip0_116_1882">
<rect width="32" height="32" fill="white"/>
</clipPath>
</defs>
</svg>
