<svg width="20" height="21" viewBox="0 0 20 21" fill="none" xmlns="http://www.w3.org/2000/svg">
<path d="M17.4143 2.76331C17.4143 3.61467 17.2144 4.23707 16.8757 4.6821C16.8693 4.69177 16.8661 4.69822 16.8596 4.70467C16.1566 5.61408 14.886 5.78177 13.6283 5.65923C12.548 5.55603 11.4773 5.24 10.7808 4.99813C10.8969 4.73369 10.9646 4.40476 10.9646 4.05325C10.9646 3.35991 10.7034 2.76976 10.3325 2.54079C11.7805 1.63784 17.4111 -1.68376 17.4143 2.76331Z" fill="#D00000"/>
<path d="M10.932 4.45086C10.9057 4.6391 10.8548 4.82308 10.7808 4.99812C11.4773 5.23999 12.548 5.55602 13.6283 5.65922C14.886 5.78176 16.1566 5.61407 16.8596 4.70466C16.8661 4.69821 16.8693 4.69176 16.8757 4.68209C17.2143 4.23706 17.4143 3.61466 17.4143 2.7633C17.4161 2.50193 17.3918 2.24103 17.3417 1.9845C16.2708 4.15869 13.3149 4.57115 10.932 4.45086Z" fill="#BC0404"/>
<path d="M2.58011 2.76331C2.58979 -1.67408 8.22038 1.64429 9.66189 2.5408C9.29103 2.76976 9.02982 3.35991 9.02982 4.05325C9.02982 4.40476 9.09754 4.7337 9.21364 4.99814C8.51707 5.24 7.44642 5.55604 6.36609 5.65923C5.10517 5.78177 3.83136 5.61408 3.12834 4.69822C2.78651 4.24997 2.57689 3.62435 2.58011 2.76331Z" fill="#D00000"/>
<path d="M2.94227 1.24149C2.71491 1.59364 2.58173 2.08736 2.58011 2.76329C2.57689 3.62433 2.78651 4.24995 3.12834 4.69821C3.83136 5.61406 5.10517 5.78176 6.36609 5.65921C7.44642 5.55602 8.51707 5.23998 9.21364 4.99812C9.13617 4.81413 9.08399 4.62049 9.05852 4.42248C6.59054 4.33057 4.18254 3.40923 2.94227 1.24149Z" fill="#BC0404"/>
<path d="M9.99724 5.66568C10.5316 5.66568 10.9647 4.94377 10.9647 4.05325C10.9647 3.16273 10.5316 2.44083 9.99724 2.44083C9.46293 2.44083 9.02979 3.16273 9.02979 4.05325C9.02979 4.94377 9.46293 5.66568 9.99724 5.66568Z" fill="#DC2F02"/>
<path d="M10.9647 4.05326C10.9647 4.94332 10.5326 5.66568 9.99724 5.66568C9.46192 5.66568 9.02979 4.94332 9.02979 4.05326C9.02979 3.88556 9.04591 3.72432 9.07493 3.57275C9.19748 4.22417 9.56511 4.69823 9.99724 4.69823C10.4294 4.69823 10.797 4.22417 10.9195 3.57275C10.9486 3.72432 10.9647 3.88556 10.9647 4.05326Z" fill="#D00000"/>
<path d="M11.9318 9.53551H13.0927L13.1153 9.53229C13.2314 10.1805 13.2765 10.9286 13.2217 11.7929L14.1892 10.8255L15.4791 12.1154C15.4791 12.1154 15.5275 10.9673 15.2695 9.53551H19.0265V19.855C19.0265 20.2098 18.7362 20.5 18.3815 20.5H11.6093V9.53551H11.9318ZM8.38445 9.53551V20.5H1.61226C1.25752 20.5 0.967285 20.2098 0.967285 19.855V9.53551H4.72424C4.46625 10.9673 4.51462 12.1154 4.51462 12.1154L5.80456 10.8255L6.77202 11.7929C6.7172 10.9286 6.76235 10.1805 6.87844 9.53229L6.90101 9.53551H8.06196H8.38445Z" fill="#FFC008"/>
<path d="M8.38477 9.53549H11.6096V20.5H8.38477V9.53549Z" fill="#D00000"/>
<path d="M4.72424 9.53551C4.66297 9.87735 4.61782 10.2063 4.58879 10.503H0.967285V9.53551H4.72424ZM8.38445 9.53551V10.503H6.7688C6.78492 10.1547 6.82362 9.8322 6.87844 9.53229L6.90101 9.53551H8.38445Z" fill="#FF9700"/>
<path d="M8.38477 9.53549H11.6096V10.5029H8.38477V9.53549Z" fill="#890711"/>
<path d="M13.225 10.503H11.6094V9.53551H13.0928L13.1154 9.53229C13.1702 9.8322 13.2089 10.1547 13.225 10.503Z" fill="#FF9700"/>
<path d="M19.9943 5.02717V9.21303C19.9943 9.39039 19.8491 9.53551 19.6718 9.53551H15.2699C15.0473 8.26169 14.5797 6.76859 13.6284 5.65924C14.8861 5.78178 16.1567 5.61409 16.8597 4.70468H19.6718C19.8491 4.70468 19.9943 4.8498 19.9943 5.02717ZM13.1156 9.53229L13.0931 9.53551H11.9321V6.79761C12.4255 7.40066 12.8996 8.27782 13.1156 9.53229Z" fill="#FBDE08"/>
<path d="M19.9943 5.02717V9.21303C19.9943 9.39039 19.8491 9.53551 19.6718 9.53551H15.2699C15.2312 9.3259 15.1892 9.10983 15.1376 8.89054H18.3644C18.6256 8.89054 18.8761 8.78678 19.0608 8.60208C19.2455 8.41738 19.3493 8.16687 19.3493 7.90567V4.70468H19.6718C19.8491 4.70468 19.9943 4.8498 19.9943 5.02717ZM13.1156 9.53229L13.0931 9.53551H11.9321V8.89054H12.977C13.0318 9.09371 13.077 9.30655 13.1156 9.53229Z" fill="#F9AF0B"/>
<path d="M8.06213 6.79759V9.53549H6.90118L6.87861 9.53227C7.09468 8.2778 7.56873 7.40064 8.06213 6.79759ZM3.12811 4.69821C3.83113 5.61407 5.10494 5.78176 6.36586 5.65922C5.41453 6.76857 4.94692 8.26167 4.72441 9.53549H0.322485C0.145118 9.53549 0 9.39037 0 9.21301V5.0207C0 4.84333 0.145118 4.69821 0.322485 4.69821H3.12811Z" fill="#FBDE08"/>
<path d="M8.38445 19.2101V20.5H1.61226C1.25752 20.5 0.967285 20.2098 0.967285 19.855V19.2101H8.38445Z" fill="#FF9700"/>
<path d="M8.38477 19.2101H11.6096V20.5H8.38477V19.2101Z" fill="#9D0208"/>
<path d="M9.67444 5.57538C9.77441 5.63343 9.88405 5.66567 9.99692 5.66567C10.1098 5.66567 10.2162 5.63343 10.3162 5.57538C10.3162 5.57538 11.1514 5.84949 11.9318 6.7976V9.5355H8.06201V6.7976C8.8392 5.84949 9.67444 5.57538 9.67444 5.57538Z" fill="#BC0404"/>
<path d="M8.06213 8.89053V9.5355H6.90118L6.87861 9.53228C6.91731 9.30654 6.96246 9.0937 7.01728 8.89053H8.06213ZM4.85663 8.89053C4.80503 9.10982 4.76311 9.32589 4.72441 9.5355H0.322485C0.145118 9.5355 0 9.39039 0 9.21302V8.89053H4.85663Z" fill="#F9AF0B"/>
<path d="M8.06201 8.89053H11.9318V9.5355H8.06201V8.89053Z" fill="#9D0208"/>
<path d="M11.9318 6.7976V7.76505C11.1514 6.81695 10.3162 6.54283 10.3162 6.54283C10.2162 6.60088 10.1098 6.63313 9.99692 6.63313C9.88405 6.63313 9.77441 6.60088 9.67444 6.54283C9.67444 6.54283 8.8392 6.81695 8.06201 7.76505V6.7976C8.8392 5.84949 9.67444 5.57538 9.67444 5.57538C9.77441 5.63343 9.88405 5.66567 9.99692 5.66567C10.1098 5.66567 10.2162 5.63343 10.3162 5.57538C10.3162 5.57538 11.1514 5.84949 11.9318 6.7976Z" fill="#890711"/>
<path d="M15.2698 9.53551C15.5278 10.9673 15.4794 12.1154 15.4794 12.1154L14.1895 10.8254L13.222 11.7929C13.2768 10.9286 13.2317 10.1805 13.1156 9.53228C12.8995 8.27781 12.4255 7.40065 11.9321 6.79761C11.1516 5.8495 10.3164 5.57539 10.3164 5.57539C10.5067 5.46574 10.6679 5.26258 10.7808 4.99814C11.4774 5.24 12.548 5.55604 13.6283 5.65923C14.5797 6.76858 15.0473 8.26169 15.2698 9.53551Z" fill="#D00000"/>
<path d="M13.8846 12.0538C13.894 11.7332 13.8888 11.4298 13.8701 11.1447L14.1894 10.8254L14.8343 11.4704L14.141 12.1638C14.1198 12.185 14.0927 12.1993 14.0632 12.205C14.0337 12.2106 14.0032 12.2073 13.9756 12.1955C13.948 12.1836 13.9246 12.1638 13.9084 12.1386C13.8922 12.1133 13.8839 12.0838 13.8846 12.0538Z" fill="#FF9700"/>
<path d="M15.2696 9.53549C15.3309 9.87733 15.376 10.2063 15.405 10.5029H15.4066C15.5069 11.4507 15.4792 12.1154 15.4792 12.1154L15.8065 12.4427C15.9252 12.5614 16.1287 12.4766 16.1255 12.3085C16.1124 11.7039 16.0599 11.1007 15.9681 10.5029H16.1242C16.5518 10.5029 16.9619 10.6728 17.2643 10.9752C17.5667 11.2776 17.7366 11.6877 17.7366 12.1154V18.5651C17.7366 18.7361 17.6686 18.9002 17.5477 19.0211C17.4267 19.1421 17.2627 19.21 17.0916 19.21H11.6094V20.5H18.3816C18.7363 20.5 19.0265 20.2098 19.0265 19.855V9.53549H15.2696Z" fill="#FF9700"/>
<path d="M15.7826 9.53551H15.2699C15.0474 8.2617 14.5797 6.76859 13.6284 5.65924C13.8606 5.68181 14.0896 5.69471 14.3185 5.69471C14.9667 6.83631 15.573 8.63578 15.7826 9.53551Z" fill="#F9AF0B"/>
<path d="M14.2926 6.62346C13.193 6.53962 12.1062 6.33 11.2548 6.12684C10.7324 5.71083 10.3164 5.57539 10.3164 5.57539C10.5067 5.46574 10.6679 5.26258 10.7808 4.99814C11.4774 5.24 12.548 5.55604 13.6283 5.65923C13.8831 5.95592 14.1056 6.28163 14.2926 6.62346Z" fill="#9D0208"/>
<path d="M9.21344 4.99814C9.32631 5.25935 9.48755 5.46252 9.67459 5.57539C9.67459 5.57539 8.83936 5.8495 8.06217 6.79761C7.56876 7.40065 7.09471 8.27781 6.87865 9.53228C6.76255 10.1805 6.7174 10.9286 6.77223 11.7929L5.80477 10.8254L4.51483 12.1154C4.51483 12.1154 4.46646 10.9673 4.72444 9.53551C4.94696 8.26169 5.41456 6.76858 6.36589 5.65923C7.44622 5.55604 8.51687 5.24 9.21344 4.99814Z" fill="#D00000"/>
<path d="M7.20103 10.1773C7.10106 10.7352 7.05366 11.3669 7.07752 12.0828C7.08171 12.2083 6.93305 12.276 6.84436 12.1876L6.12716 11.4704L5.06844 12.5291C4.98169 12.6159 4.83302 12.5559 4.83399 12.433C4.83528 12.266 4.84076 12.0415 4.85656 11.7736L5.80467 10.8255L6.77213 11.7929C6.7173 10.9286 6.76245 10.1805 6.87855 9.53229L6.90112 9.53551H7.3397C7.28488 9.73868 7.23973 9.95152 7.20103 10.1773Z" fill="#FF7F00"/>
<path d="M8.06194 6.79761V7.88438C7.78138 8.31974 7.52016 8.86474 7.33957 9.53551H6.90099L6.87842 9.53228C7.09448 8.27781 7.56854 7.40065 8.06194 6.79761Z" fill="#F9AF0B"/>
<path d="M9.67468 5.57539C9.67468 5.57539 9.25867 5.71083 8.73947 6.12684C7.88811 6.33 6.80133 6.53962 5.70166 6.62346C5.8887 6.28163 6.11122 5.95592 6.36598 5.65923C7.44631 5.55604 8.51696 5.24 9.21352 4.99814C9.32639 5.25935 9.48764 5.46252 9.67468 5.57539Z" fill="#9D0208"/>
<path d="M9.73793 3.25769C9.53025 3.25769 9.46672 3.73078 9.67472 3.73078C9.88208 3.73078 9.94561 3.25769 9.73793 3.25769Z" fill="#F75B3C"/>
<path d="M1.11169 5.15936C0.856601 5.11938 0.657628 5.31996 0.555722 5.57537C0.411894 5.93591 0.375131 6.40932 0.735669 6.46575C1.00333 6.50767 0.933353 6.1423 1.0301 5.86915C1.15555 5.5141 1.45965 5.21354 1.11169 5.15936Z" fill="#F7EDC6"/>
<path d="M4.26925 1.15799C3.64685 1.15799 2.92351 2.11835 3.5472 2.11835C4.1696 2.11835 4.89293 1.15799 4.26925 1.15799Z" fill="#F75B3C"/>
<path d="M0.733397 6.59122C0.526039 6.59122 0.525394 6.9137 0.733397 6.9137C0.941078 6.9137 0.9414 6.59122 0.733397 6.59122Z" fill="#F7EDC6"/>
</svg>
