<svg width="32" height="32" viewBox="0 0 32 32" fill="none" xmlns="http://www.w3.org/2000/svg">
<g clip-path="url(#clip0_116_1475)">
<path d="M1.95918 13.1309H30.0408C30.5604 13.1309 31.0587 13.3373 31.4262 13.7047C31.7936 14.0721 32 14.5705 32 15.0901V29.4574C32 29.977 31.7936 30.4754 31.4262 30.8428C31.0587 31.2102 30.5604 31.4166 30.0408 31.4166H1.95918C1.43958 31.4166 0.94125 31.2102 0.573831 30.8428C0.206413 30.4754 0 29.977 0 29.4574V15.0901C0 14.5705 0.206413 14.0721 0.573831 13.7047C0.94125 13.3373 1.43958 13.1309 1.95918 13.1309Z" fill="#1573FF"/>
<path d="M11.8638 15.1485C11.8128 15.3944 11.8337 15.6497 11.9241 15.884C12.0146 16.1182 12.1706 16.3215 12.3736 16.4693C12.5765 16.6171 12.8178 16.7033 13.0685 16.7175C13.3192 16.7317 13.5687 16.6733 13.787 16.5493L17.1869 14.6218C17.2851 14.5661 17.3961 14.5369 17.509 14.5369C17.6219 14.5369 17.7329 14.5661 17.8311 14.6218L21.231 16.5493C21.4493 16.6732 21.6988 16.7314 21.9494 16.7172C22.2 16.7029 22.4412 16.6167 22.6442 16.4689C22.8471 16.3211 23.0031 16.118 23.0936 15.8838C23.184 15.6496 23.2051 15.3944 23.1542 15.1485L22.7369 13.1309H12.2811L11.8638 15.1485Z" fill="#1855CA"/>
<path d="M16.6531 18.3554H17.3061C17.4794 18.3554 17.6455 18.4242 17.7679 18.5467C17.8904 18.6691 17.9592 18.8352 17.9592 19.0084V26.1921C17.9592 26.3653 17.8904 26.5314 17.7679 26.6539C17.6455 26.7764 17.4794 26.8452 17.3061 26.8452H16.6531C16.4799 26.8452 16.3138 26.7764 16.1913 26.6539C16.0688 26.5314 16 26.3653 16 26.1921V19.0084C16 18.8352 16.0688 18.6691 16.1913 18.5467C16.3138 18.4242 16.4799 18.3554 16.6531 18.3554ZM23.4185 18.3554H20.898C20.7248 18.3554 20.5587 18.4242 20.4362 18.5467C20.3137 18.6691 20.2449 18.8352 20.2449 19.0084V26.1921C20.2449 26.3653 20.3137 26.5314 20.4362 26.6539C20.5587 26.7764 20.7248 26.8452 20.898 26.8452H21.551C21.7242 26.8452 21.8904 26.7764 22.0128 26.6539C22.1353 26.5314 22.2041 26.3653 22.2041 26.1921V24.2329H23.5102C23.933 24.2328 24.3508 24.1416 24.7351 23.9653C25.1194 23.7891 25.4612 23.5321 25.7372 23.2118C26.0131 22.8915 26.2168 22.5154 26.3342 22.1092C26.4516 21.7031 26.4801 21.2764 26.4177 20.8582C26.2993 20.1515 25.9317 19.5105 25.3815 19.0514C24.8314 18.5923 24.135 18.3454 23.4185 18.3554ZM23.4622 22.2738H22.2041V20.3146H23.5102C23.6544 20.3146 23.7967 20.3464 23.9272 20.4078C24.0576 20.4691 24.1729 20.5585 24.2649 20.6695C24.3568 20.7805 24.4232 20.9104 24.4592 21.05C24.4952 21.1896 24.5 21.3354 24.4732 21.477C24.4232 21.7065 24.2951 21.9114 24.1106 22.0568C23.9262 22.2021 23.697 22.2788 23.4622 22.2738ZM11.138 26.408L13.6523 19.2243C13.6868 19.1258 13.6973 19.0205 13.6827 18.9172C13.6682 18.8139 13.6291 18.7155 13.5687 18.6304C13.5083 18.5453 13.4284 18.4759 13.3357 18.4281C13.243 18.3802 13.1401 18.3553 13.0358 18.3554H12.3429C12.2074 18.3554 12.0753 18.3975 11.9649 18.4759C11.8544 18.5543 11.7711 18.6651 11.7264 18.7929L10.0049 23.717L8.28411 18.7929C8.23941 18.6651 8.15607 18.5543 8.04561 18.4759C7.93516 18.3975 7.80306 18.3554 7.66762 18.3554H6.97472C6.8704 18.3554 6.76759 18.3803 6.6749 18.4282C6.58221 18.4761 6.50234 18.5455 6.44198 18.6306C6.38161 18.7156 6.3425 18.8139 6.32793 18.9172C6.31336 19.0205 6.32375 19.1258 6.35823 19.2243L8.87252 26.408C8.91727 26.5358 9.00064 26.6465 9.11109 26.7248C9.22153 26.8031 9.3536 26.8452 9.48901 26.8452H10.5215C10.6569 26.8452 10.789 26.8031 10.8994 26.7248C11.0099 26.6465 11.0932 26.5358 11.138 26.408Z" fill="#1855CA"/>
<path d="M16.3265 18.0289H16.9796C17.1528 18.0289 17.3189 18.0977 17.4414 18.2201C17.5639 18.3426 17.6327 18.5087 17.6327 18.6819V25.8656C17.6327 26.0388 17.5639 26.2049 17.4414 26.3274C17.3189 26.4498 17.1528 26.5187 16.9796 26.5187H16.3265C16.1533 26.5187 15.9872 26.4498 15.8648 26.3274C15.7423 26.2049 15.6735 26.0388 15.6735 25.8656V18.6819C15.6735 18.5087 15.7423 18.3426 15.8648 18.2201C15.9872 18.0977 16.1533 18.0289 16.3265 18.0289ZM23.0919 18.0289H20.5714C20.3982 18.0289 20.2321 18.0977 20.1097 18.2201C19.9872 18.3426 19.9184 18.5087 19.9184 18.6819V25.8656C19.9184 26.0388 19.9872 26.2049 20.1097 26.3274C20.2321 26.4498 20.3982 26.5187 20.5714 26.5187H21.2245C21.3977 26.5187 21.5638 26.4498 21.6863 26.3274C21.8088 26.2049 21.8776 26.0388 21.8776 25.8656V23.9064H23.1837C23.6065 23.9063 24.0243 23.815 24.4086 23.6388C24.7929 23.4626 25.1347 23.2055 25.4106 22.8852C25.6866 22.5649 25.8902 22.1889 26.0077 21.7827C26.1251 21.3766 26.1536 20.9499 26.0911 20.5317C25.9727 19.825 25.6052 19.184 25.055 18.7249C24.5048 18.2658 23.8084 18.0189 23.0919 18.0289ZM23.1357 21.9472H21.8776V19.988H23.1837C23.3278 19.9881 23.4701 20.0199 23.6006 20.0812C23.731 20.1426 23.8463 20.2319 23.9382 20.3429C24.0302 20.4538 24.0965 20.5837 24.1325 20.7232C24.1686 20.8628 24.1734 21.0086 24.1466 21.1502C24.0968 21.3797 23.9686 21.5847 23.7842 21.7301C23.5998 21.8755 23.3705 21.9523 23.1357 21.9472ZM10.8114 26.0814L13.3257 18.8978C13.3603 18.7993 13.3707 18.694 13.3562 18.5907C13.3417 18.4873 13.3026 18.389 13.2422 18.3039C13.1818 18.2188 13.1019 18.1494 13.0092 18.1015C12.9164 18.0537 12.8136 18.0288 12.7092 18.0289H12.0163C11.8809 18.0289 11.7488 18.071 11.6384 18.1494C11.5279 18.2278 11.4446 18.3385 11.3999 18.4664L9.67839 23.3905L7.95757 18.4664C7.91287 18.3385 7.82953 18.2278 7.71907 18.1494C7.60862 18.071 7.47653 18.0289 7.34108 18.0289H6.64818C6.54386 18.0288 6.44105 18.0538 6.34836 18.1017C6.25567 18.1496 6.1758 18.2189 6.11544 18.304C6.05507 18.3891 6.01597 18.4874 6.0014 18.5907C5.98683 18.694 5.99721 18.7993 6.03169 18.8978L8.54598 26.0814C8.59073 26.2092 8.6741 26.32 8.78455 26.3983C8.895 26.4766 9.02706 26.5187 9.16247 26.5187H10.195C10.3304 26.5187 10.4624 26.4766 10.5729 26.3983C10.6833 26.32 10.7667 26.2092 10.8114 26.0814Z" fill="#F0F5FC"/>
<path d="M3.14548 8.16959L3.57063 9.1051C3.58524 9.13737 3.60801 9.16528 3.6367 9.18606C3.66539 9.20685 3.699 9.2198 3.73422 9.22363L4.75724 9.33726C4.7963 9.34162 4.83328 9.35716 4.86374 9.382C4.89421 9.40684 4.91686 9.43994 4.92899 9.47733C4.94112 9.51472 4.94221 9.55481 4.93213 9.59281C4.92206 9.6308 4.90124 9.66508 4.87218 9.69155L4.11234 10.3815C4.08602 10.4054 4.06639 10.4357 4.0554 10.4695C4.0444 10.5033 4.04242 10.5394 4.04965 10.5742L4.25732 11.5782C4.26514 11.6167 4.26177 11.6565 4.24759 11.6931C4.23342 11.7296 4.20905 11.7614 4.17738 11.7845C4.1457 11.8076 4.10806 11.8211 4.06892 11.8235C4.02978 11.8258 3.99079 11.8168 3.95659 11.7977L3.06059 11.2896C3.02989 11.2721 2.99518 11.2629 2.95985 11.2629C2.92452 11.2629 2.88981 11.2721 2.85912 11.2896L1.96279 11.7977C1.92863 11.817 1.88964 11.826 1.85048 11.8237C1.81131 11.8215 1.77363 11.808 1.74192 11.7849C1.71021 11.7618 1.68582 11.7301 1.67166 11.6935C1.6575 11.6569 1.65417 11.617 1.66205 11.5786L1.86973 10.5745C1.87695 10.5397 1.87497 10.5036 1.86398 10.4698C1.85298 10.436 1.83335 10.4057 1.80703 10.3818L1.0472 9.69187C1.018 9.66547 0.997052 9.63119 0.986893 9.59315C0.976734 9.55512 0.977792 9.51496 0.989941 9.47751C1.00209 9.44006 1.02481 9.40693 1.05536 9.3821C1.08592 9.35728 1.123 9.34182 1.16214 9.33759L2.18516 9.22396C2.22035 9.22003 2.25392 9.20705 2.28259 9.18627C2.31126 9.1655 2.33406 9.13764 2.34875 9.10542L2.77389 8.16991C2.79007 8.13422 2.81619 8.10395 2.84912 8.0827C2.88205 8.06146 2.92039 8.05014 2.95958 8.0501C2.99877 8.05007 3.03714 8.06132 3.0701 8.08251C3.10307 8.10369 3.12924 8.13393 3.14548 8.16959ZM29.2268 8.16959L29.6519 9.1051C29.6665 9.13737 29.6893 9.16528 29.718 9.18606C29.7467 9.20685 29.7803 9.2198 29.8155 9.22363L30.8385 9.33726C30.8776 9.34162 30.9146 9.35716 30.9451 9.382C30.9755 9.40684 30.9982 9.43994 31.0103 9.47733C31.0224 9.51472 31.0235 9.55481 31.0134 9.59281C31.0034 9.6308 30.9825 9.66508 30.9535 9.69155L30.1936 10.3815C30.1673 10.4054 30.1477 10.4357 30.1367 10.4695C30.1257 10.5033 30.1237 10.5394 30.131 10.5742L30.3386 11.5782C30.3464 11.6167 30.3431 11.6565 30.3289 11.6931C30.3147 11.7296 30.2904 11.7614 30.2587 11.7845C30.227 11.8076 30.1894 11.8211 30.1502 11.8235C30.1111 11.8258 30.0721 11.8168 30.0379 11.7977L29.1419 11.2896C29.1112 11.2721 29.0765 11.2629 29.0412 11.2629C29.0058 11.2629 28.9711 11.2721 28.9404 11.2896L28.0444 11.7977C28.0103 11.817 27.9713 11.826 27.9321 11.8237C27.8929 11.8215 27.8553 11.808 27.8236 11.7849C27.7918 11.7618 27.7675 11.7301 27.7533 11.6935C27.7391 11.6569 27.7358 11.617 27.7437 11.5786L27.9514 10.5745C27.9586 10.5397 27.9566 10.5036 27.9456 10.4698C27.9346 10.436 27.915 10.4057 27.8887 10.3818L27.1288 9.69187C27.0996 9.66547 27.0787 9.63119 27.0685 9.59315C27.0584 9.55512 27.0594 9.51496 27.0716 9.47751C27.0837 9.44006 27.1064 9.40693 27.137 9.3821C27.1675 9.35728 27.2046 9.34182 27.2438 9.33759L28.2668 9.22396C28.302 9.22003 28.3356 9.20705 28.3642 9.18627C28.3929 9.1655 28.4157 9.13764 28.4304 9.10542L28.8555 8.16991C28.8717 8.13432 28.8979 8.10413 28.9308 8.08295C28.9636 8.06178 29.0019 8.0505 29.0411 8.05046C29.0802 8.05043 29.1185 8.06164 29.1514 8.08276C29.1843 8.10388 29.2105 8.13402 29.2268 8.16959ZM17.1892 0.765507L18.8023 4.31555C18.8491 4.41852 18.9219 4.50757 19.0135 4.57397C19.1051 4.64037 19.2123 4.68184 19.3247 4.69432L23.2026 5.12469C23.4525 5.1524 23.6891 5.25164 23.8839 5.41049C24.0788 5.56934 24.2237 5.78105 24.3012 6.02021C24.3787 6.25937 24.3855 6.51581 24.3208 6.75876C24.2562 7.00171 24.1228 7.22083 23.9367 7.38983L21.1696 9.90347C21.0517 10.0105 20.9637 10.1465 20.9144 10.298C20.8651 10.4495 20.8562 10.6112 20.8885 10.7671L21.6454 14.4266C21.6964 14.6724 21.6755 14.9278 21.585 15.162C21.4946 15.3963 21.3386 15.5995 21.1356 15.7473C20.9326 15.8952 20.6914 15.9813 20.4407 15.9955C20.19 16.0097 19.9405 15.9514 19.7221 15.8274L16.3223 13.8995C16.2241 13.8439 16.1131 13.8146 16.0002 13.8146C15.8873 13.8146 15.7763 13.8439 15.6781 13.8995L12.2782 15.8271C12.0598 15.9509 11.8104 16.0091 11.5598 15.9949C11.3091 15.9806 11.0679 15.8944 10.865 15.7466C10.6621 15.5988 10.5061 15.3957 10.4156 15.1615C10.3252 14.9274 10.3041 14.6721 10.355 14.4262L11.1422 10.6199C11.1652 10.5087 11.1588 10.3935 11.1237 10.2855C11.0885 10.1776 11.0258 10.0807 10.9417 10.0044L8.06336 7.38983C7.87733 7.22079 7.74403 7.00166 7.67945 6.75874C7.61487 6.51582 7.62176 6.25942 7.69929 6.02031C7.77682 5.78121 7.9217 5.56955 8.11654 5.41075C8.31137 5.25194 8.5479 5.15273 8.79773 5.12502L12.6756 4.69465C12.788 4.68217 12.8953 4.6407 12.9869 4.5743C13.0785 4.5079 13.1512 4.41885 13.1981 4.31587L14.8111 0.765833C14.9149 0.537508 15.0821 0.343877 15.293 0.208073C15.5038 0.0722686 15.7493 3.4447e-05 16.0001 1.23172e-08C16.2509 -3.44223e-05 16.4964 0.0721322 16.7072 0.207878C16.9181 0.343624 17.0854 0.53721 17.1892 0.765507Z" fill="#FFE161"/>
<path d="M32 29.4574V15.0901C32 14.7497 31.9108 14.4152 31.7414 14.12C30.6034 17.926 25.184 31.4166 5.55103 31.4166H30.0408C30.5604 31.4166 31.0588 31.2102 31.4262 30.8428C31.7936 30.4754 32 29.977 32 29.4574Z" fill="#1855CA"/>
<path d="M16.3223 13.8995L19.7221 15.8271C19.9405 15.9509 20.1899 16.0091 20.4406 15.9949C20.6912 15.9806 20.9324 15.8944 21.1353 15.7466C21.3383 15.5988 21.4943 15.3957 21.5847 15.1615C21.6752 14.9274 21.6963 14.6721 21.6454 14.4262L20.8885 10.7668C20.8562 10.6108 20.8651 10.4491 20.9144 10.2977C20.9637 10.1462 21.0517 10.0102 21.1696 9.90314L23.9367 7.38951C24.0855 7.25418 24.2011 7.08638 24.2746 6.89913C24.3481 6.71187 24.3774 6.51021 24.3603 6.30978C24.3432 6.10935 24.2802 5.91556 24.1761 5.74345C24.072 5.57133 23.9296 5.42553 23.76 5.31734C22.2874 7.65988 18.3909 12.4308 10.415 14.136L10.355 14.4262C10.3039 14.6721 10.3249 14.9275 10.4153 15.1617C10.5057 15.396 10.6618 15.5992 10.8647 15.747C11.0677 15.8948 11.309 15.981 11.5597 15.9952C11.8104 16.0094 12.0599 15.951 12.2782 15.8271L15.6781 13.8995C15.7763 13.8439 15.8873 13.8146 16.0002 13.8146C16.1131 13.8146 16.2241 13.8439 16.3223 13.8995ZM30.3383 11.5786L30.1306 10.5745C30.1234 10.5397 30.1254 10.5036 30.1364 10.4698C30.1474 10.436 30.167 10.4057 30.1933 10.3818L30.9532 9.69188C30.9824 9.66547 31.0033 9.63119 31.0135 9.59316C31.0236 9.55512 31.0226 9.51496 31.0104 9.47751C30.9983 9.44007 30.9755 9.40693 30.945 9.38211C30.9144 9.35728 30.8774 9.34182 30.8382 9.33759L30.7879 9.33204C30.0206 10.5954 28.6247 11.1391 27.7878 11.3591L27.7424 11.5786C27.7344 11.6171 27.7376 11.6571 27.7518 11.6938C27.7659 11.7304 27.7903 11.7623 27.8221 11.7854C27.8539 11.8086 27.8917 11.8221 27.9309 11.8243C27.9702 11.8266 28.0092 11.8174 28.0434 11.798L28.9398 11.2899C28.9705 11.2724 29.0052 11.2632 29.0405 11.2632C29.0758 11.2632 29.1105 11.2724 29.1412 11.2899L30.0376 11.798C30.0717 11.8173 30.1108 11.8264 30.15 11.8241C30.1892 11.8218 30.2269 11.8083 30.2586 11.7852C30.2903 11.762 30.3147 11.7302 30.3289 11.6936C30.343 11.657 30.3463 11.617 30.3383 11.5786ZM4.25732 11.5786L4.04965 10.5745C4.04242 10.5397 4.0444 10.5036 4.0554 10.4698C4.06639 10.436 4.08602 10.4057 4.11234 10.3818L4.87218 9.69188C4.90138 9.66547 4.92232 9.63119 4.93248 9.59316C4.94264 9.55512 4.94158 9.51496 4.92943 9.47751C4.91728 9.44007 4.89456 9.40693 4.86401 9.38211C4.83346 9.35728 4.79638 9.34182 4.75724 9.33759L4.70695 9.33204C3.93961 10.5954 2.54369 11.1391 1.70679 11.3591L1.6614 11.5786C1.65338 11.6171 1.65664 11.6571 1.67077 11.6938C1.68491 11.7304 1.70934 11.7623 1.74112 11.7854C1.77289 11.8086 1.81068 11.8221 1.84994 11.8243C1.8892 11.8266 1.92827 11.8174 1.96246 11.798L2.85879 11.2899C2.88948 11.2724 2.9242 11.2632 2.95952 11.2632C2.99485 11.2632 3.02957 11.2724 3.06026 11.2899L3.95658 11.798C3.99077 11.8173 4.0298 11.8264 4.069 11.8241C4.10821 11.8218 4.14592 11.8083 4.17765 11.7852C4.20937 11.762 4.23375 11.7302 4.24788 11.6936C4.26201 11.657 4.26529 11.617 4.25732 11.5786Z" fill="#FBBC05"/>
</g>
<defs>
<clipPath id="clip0_116_1475">
<rect width="32" height="32" fill="white"/>
</clipPath>
</defs>
</svg>
