<svg width="32" height="32" viewBox="0 0 32 32" fill="none" xmlns="http://www.w3.org/2000/svg">
<path fill-rule="evenodd" clip-rule="evenodd" d="M20.9595 19.3529L25.838 29.6531L22.3823 29.3463L20.183 32L16.335 21.2721L20.9595 19.3529Z" fill="#F94064"/>
<path fill-rule="evenodd" clip-rule="evenodd" d="M20.9593 19.3529L25.3769 28.6796L22.8489 28.455L20.8434 30.7386L17.3037 20.87L20.9593 19.3529Z" fill="#FF6B84"/>
<path fill-rule="evenodd" clip-rule="evenodd" d="M10.9295 19.3347L6.0509 29.6349L9.50674 29.328L11.7061 31.9818L15.5541 21.2538L10.9295 19.3347Z" fill="#F94064"/>
<path fill-rule="evenodd" clip-rule="evenodd" d="M10.9295 19.3347L6.51196 28.6613L9.03996 28.4368L11.0453 30.7203L14.585 20.8518L10.9295 19.3347Z" fill="#FF6B84"/>
<path fill-rule="evenodd" clip-rule="evenodd" d="M13.1334 1.54298C12.3772 2.60758 11.1575 3.11287 9.87003 2.89472C8.67306 2.69178 7.67217 2.9106 6.79138 3.79138C5.91026 4.67251 5.692 5.67284 5.89461 6.87014C6.11275 8.15761 5.60758 9.37732 4.54298 10.1335C3.55301 10.8366 3 11.6987 3 12.9446C3 14.1905 3.55301 15.0525 4.54298 15.7557C5.60758 16.5119 6.11287 17.7316 5.89473 19.019C5.69178 20.216 5.91048 21.2169 6.79138 22.0977C7.67251 22.9788 8.67284 23.1971 9.87014 22.9945C11.1576 22.7763 12.3773 23.2815 13.1335 24.3461C13.8366 25.336 14.6987 25.8891 15.9446 25.8891C17.1905 25.8891 18.0525 25.3361 18.7557 24.3461C19.5119 23.2815 20.7315 22.7762 22.019 22.9944C23.216 23.1973 24.2169 22.9785 25.0977 22.0977C25.9788 21.2167 26.1971 20.2162 25.9945 19.019C25.7763 17.7316 26.2815 16.5119 27.3462 15.7557C28.3361 15.0526 28.8892 14.1905 28.8892 12.9446C28.8892 11.6987 28.3362 10.8367 27.3462 10.1335C26.2816 9.37732 25.7763 8.15761 25.9945 6.87014C26.1974 5.67317 25.9786 4.67228 25.0978 3.79149C24.2167 2.91037 23.2164 2.69211 22.019 2.89472C20.7316 3.11287 19.5119 2.60769 18.7557 1.54298C18.0525 0.553123 17.1905 0 15.9446 0C14.6987 0 13.8367 0.55301 13.1335 1.54298H13.1334Z" fill="#FCDB35"/>
<path fill-rule="evenodd" clip-rule="evenodd" d="M13.1334 1.54299C12.3772 2.60758 11.1575 3.11287 9.87003 2.89473C8.67317 2.69178 7.67217 2.9106 6.79138 3.79139C5.91026 4.6724 5.692 5.67284 5.89473 6.87015C6.11287 8.15762 5.60758 9.37733 4.54298 10.1335C3.55312 10.8366 3 11.6987 3 12.9446C3 14.1905 3.55312 15.0525 4.54298 15.7557C5.60758 16.5119 6.11287 17.7316 5.89473 19.0191C5.69178 20.2159 5.9106 21.2169 6.79138 22.0977C7.6724 22.9788 8.67284 23.1971 9.87003 22.9945C11.1575 22.7763 12.3772 23.2816 13.1334 24.3462C13.6908 25.1309 14.3481 25.6411 15.2172 25.8188C16.0864 25.6411 16.7438 25.1309 17.3012 24.3462C18.0574 23.2816 19.277 22.7763 20.5645 22.9945C20.6198 23.0038 20.6746 23.0123 20.729 23.0198C21.1402 22.93 21.5756 22.9194 22.0189 22.9945L22.0357 22.9973C22.6182 22.8773 23.1496 22.5915 23.6432 22.0979C24.5243 21.2169 24.7426 20.2165 24.54 19.0193C24.3218 17.7318 24.827 16.5121 25.8916 15.7559C26.8816 15.0529 27.4346 14.1908 27.4346 12.9448C27.4346 11.6989 26.8816 10.8369 25.8916 10.1337C24.827 9.37755 24.3217 8.15795 24.5398 6.87037C24.7428 5.6734 24.524 4.67251 23.6432 3.79172C23.1493 3.29781 22.6179 3.01224 22.0354 2.89225L22.0188 2.89495C21.5754 2.97003 21.1401 2.95934 20.729 2.86963C20.6745 2.87717 20.6197 2.88561 20.5644 2.89495C19.277 3.1131 18.0573 2.60792 17.3011 1.54321C16.7437 0.75855 16.0863 0.248313 15.2171 0.0705795C14.3479 0.248425 13.6907 0.75855 13.1333 1.54321L13.1334 1.54299Z" fill="#FFEB87"/>
<path d="M14.9312 21.0946C19.4324 21.0946 23.0814 17.4456 23.0814 12.9444C23.0814 8.44315 19.4324 4.79419 14.9312 4.79419C10.43 4.79419 6.78101 8.44315 6.78101 12.9444C6.78101 17.4456 10.43 21.0946 14.9312 21.0946Z" fill="#FCDB35"/>
<path d="M23.9452 14.4799C24.7963 10.0599 21.9032 5.78676 17.4832 4.9356C13.0632 4.08444 8.79003 6.97757 7.93887 11.3976C7.08771 15.8176 9.98083 20.0907 14.4008 20.9419C18.8209 21.793 23.094 18.8999 23.9452 14.4799Z" fill="white"/>
<path fill-rule="evenodd" clip-rule="evenodd" d="M16.3152 7.79112L17.652 10.6365L20.7713 11.0287C20.9326 11.049 21.0596 11.154 21.1099 11.3086C21.1602 11.4632 21.1191 11.6229 21.0005 11.7341L18.7074 13.8848L19.2983 16.9726C19.3289 17.1322 19.2683 17.2855 19.1368 17.3811C19.0053 17.4766 18.8408 17.4869 18.6984 17.4085L15.9444 15.8923L13.1903 17.4085C13.0479 17.487 12.8834 17.4766 12.7519 17.3811C12.6204 17.2855 12.5598 17.1323 12.5904 16.9726L13.1813 13.8848L10.8882 11.7341C10.7696 11.6229 10.7286 11.4633 10.7788 11.3086C10.829 11.154 10.9561 11.0491 11.1174 11.0287L14.2367 10.6365L15.5735 7.79112C15.6426 7.644 15.7817 7.55564 15.9442 7.55564C16.1068 7.55564 16.2459 7.644 16.3151 7.79112H16.3152Z" fill="#FDC72E"/>
<path fill-rule="evenodd" clip-rule="evenodd" d="M18.2596 17.1666L15.3484 15.564L12.5838 17.086C12.5809 17.048 12.5831 17.0098 12.5904 16.9724L13.1813 13.8846L10.8882 11.7339C10.7697 11.6227 10.7286 11.4631 10.7788 11.3084C10.829 11.1538 10.9561 11.0488 11.1174 11.0286L14.2367 10.6364L15.4878 7.97324L16.6817 10.5144L19.801 10.9066C19.9623 10.9268 20.0893 11.0318 20.1395 11.1865C20.1898 11.3412 20.1487 11.5008 20.0301 11.612L17.737 13.7627L18.3279 16.8505C18.35 16.9656 18.3247 17.0775 18.2594 17.1667L18.2596 17.1666Z" fill="#FCDB35"/>
</svg>
