<svg width="32" height="32" viewBox="0 0 32 32" fill="none" xmlns="http://www.w3.org/2000/svg">
<g clip-path="url(#clip0_114_1174)">
<path fill-rule="evenodd" clip-rule="evenodd" d="M25.4588 19.8697C21.5552 20.1983 18.6595 22.3283 16.3001 25.6463C15.9769 27.1759 15.9237 28.7202 16.2414 30.2222C16.4819 31.3532 17.433 31.5112 18.1289 30.8152L25.244 23.7C26.2869 22.657 26.3585 20.997 25.4588 19.8697ZM8.29455 6.75002L1.17948 13.8653C0.483604 14.5612 0.641479 15.5123 1.77254 15.7529C3.27448 16.0706 4.81873 16.0173 6.34823 15.6942C9.34298 12.6975 11.5041 9.78527 12.1247 6.53521C10.9974 5.63546 9.33748 5.70708 8.29455 6.75002Z" fill="#EB5468"/>
<path fill-rule="evenodd" clip-rule="evenodd" d="M25.2439 23.6999C26.2869 22.657 26.3585 20.997 25.4587 19.8696C25.1325 20.2034 24.7957 20.5267 24.4489 20.8391C24.414 21.5295 24.1367 22.2089 23.6116 22.7322L16.4965 29.8475C16.411 29.9349 16.3155 30.012 16.2119 30.077C16.2211 30.1248 16.2321 30.1743 16.2413 30.2221C16.4819 31.3532 17.4329 31.5111 18.1289 30.8152L25.2439 23.6999ZM6.34816 15.6941C7.77304 11.8455 9.76342 8.83964 12.1247 6.5352C11.6418 6.14958 11.0597 5.94214 10.4703 5.9127C7.98048 8.50908 5.8726 11.8142 4.32654 15.9548C5.00041 15.9255 5.6761 15.8355 6.34816 15.6941Z" fill="#E5384F"/>
<path fill-rule="evenodd" clip-rule="evenodd" d="M7.60044 25.0587L4.07137 22.9948C0.773685 24.7263 -0.542879 27.0473 0.202622 30.4461C0.437622 31.5184 0.479872 31.5625 1.55218 31.7975C4.95275 32.543 7.27363 31.2265 9.00506 27.9287L7.60044 25.0587Z" fill="#FFE07D"/>
<path fill-rule="evenodd" clip-rule="evenodd" d="M9.00502 27.9287L7.78764 26.7094C6.08551 29.6418 3.83258 30.7894 0.608324 30.0825C0.408199 30.0384 0.244762 30.0017 0.108887 29.9631C0.134574 30.1228 0.165824 30.2826 0.202512 30.446C0.437512 31.5183 0.479762 31.5624 1.55207 31.7975C4.95264 32.543 7.27358 31.2265 9.00502 27.9287Z" fill="#FFD064"/>
<path fill-rule="evenodd" clip-rule="evenodd" d="M5.86338 19.596L4.04375 21.4157C3.68388 21.7756 3.62694 22.3301 3.87482 22.7506C3.92195 22.8296 3.97869 22.9024 4.04375 22.9673L5.44657 24.3702L7.07338 23.7588L8.04101 21.7738L7.38919 20.1231L5.86338 19.596ZM11.8804 24.5923L10.2206 23.9533L8.56438 24.3702L7.62426 26.5479L9.02707 27.9508C9.11318 28.0366 9.21311 28.1074 9.32269 28.1601C9.73032 28.3602 10.2408 28.2887 10.5786 27.9508L12.3983 26.1311L11.8804 24.5923Z" fill="#375E7D"/>
<path fill-rule="evenodd" clip-rule="evenodd" d="M8.04116 21.7738L5.44666 24.3702L7.62434 26.5478L10.2207 23.9533L9.86991 22.5156L8.04116 21.7738Z" fill="#375E7D"/>
<path fill-rule="evenodd" clip-rule="evenodd" d="M24.6361 7.35783C22.6072 5.32883 19.3187 5.32883 17.2898 7.35783C15.2608 9.38683 15.2608 12.6755 17.2898 14.7045C19.3187 16.7335 22.6072 16.7335 24.6361 14.7045C26.6651 12.6755 26.6651 9.38683 24.6361 7.35783Z" fill="#EB5468"/>
<path fill-rule="evenodd" clip-rule="evenodd" d="M22.8771 9.1169C21.8195 8.05927 20.1063 8.05927 19.0487 9.1169C17.9911 10.1745 17.9911 11.8877 19.0487 12.9453C20.1063 14.003 21.8195 14.003 22.8771 12.9453C23.9347 11.8877 23.9347 10.1745 22.8771 9.1169Z" fill="#A1D4FF"/>
<path fill-rule="evenodd" clip-rule="evenodd" d="M25.4587 19.8696C28.6683 16.5792 30.5173 12.569 31.384 8.35671C28.5783 5.47202 25.8773 2.62777 23.6318 0.611641C19.4233 1.47833 15.4132 3.32552 12.1246 6.53521C9.76338 8.83964 7.77301 11.8455 6.34813 15.6941C6.02313 16.57 5.72751 17.4881 5.46494 18.4521C5.27582 19.1443 5.23726 18.9699 5.74038 19.473L6.78332 20.516L10.9128 20.7088L11.4784 25.2111L12.3983 26.131L12.5213 26.254C13.0244 26.7572 12.85 26.7186 13.5422 26.5295C14.5062 26.2669 15.4243 25.9713 16.3001 25.6463C20.1486 24.2214 23.1543 22.231 25.4587 19.8696ZM24.6361 7.35783C26.665 9.38683 26.665 12.6755 24.6361 14.7045C22.6071 16.7335 19.3186 16.7335 17.2897 14.7045C15.2608 12.6755 15.2608 9.38683 17.2897 7.35783C19.3186 5.32883 22.6071 5.32883 24.6361 7.35783Z" fill="#F9F7F8"/>
<path fill-rule="evenodd" clip-rule="evenodd" d="M12.7012 16.6838L6.78333 20.516L8.04108 21.7738L9.12989 22.8627L10.2206 23.9533L11.4783 25.2112L15.3103 19.2931C15.8611 18.4411 16.0283 17.4018 15.3103 16.6838C14.5924 15.9659 13.5531 16.133 12.7012 16.6838Z" fill="#F37C7C"/>
<path fill-rule="evenodd" clip-rule="evenodd" d="M25.4587 19.8697C28.6683 16.5792 30.5173 12.569 31.384 8.35671C30.5742 7.98577 29.8104 7.57634 29.098 7.12827C28.2313 11.3405 26.3824 15.3507 23.1727 18.6412C20.8684 21.0026 17.8626 22.993 14.0141 24.4179C13.2135 24.7153 12.3762 24.9872 11.5004 25.2332L12.3982 26.131L12.5212 26.254C13.0244 26.7572 12.8499 26.7186 13.5421 26.5295C14.5061 26.2669 15.4242 25.9713 16.3 25.6463C20.1486 24.2214 23.1544 22.231 25.4587 19.8697Z" fill="#DDDAEC"/>
<path fill-rule="evenodd" clip-rule="evenodd" d="M24.6361 14.7044C26.665 12.6754 26.665 9.38677 24.6361 7.35777C23.7529 6.47458 22.631 5.97514 21.4779 5.86127C21.992 6.10914 22.4731 6.4452 22.9009 6.8712C24.9298 8.90021 24.9298 12.1906 22.9009 14.2196C21.7551 15.3655 20.2073 15.863 18.7126 15.7161C20.6461 16.6435 23.0331 16.3074 24.6361 14.7044Z" fill="#E5384F"/>
<path fill-rule="evenodd" clip-rule="evenodd" d="M22.8771 12.9453C23.9348 11.8877 23.9348 10.1745 22.8771 9.1169C22.3061 8.54583 21.5441 8.28327 20.7986 8.32915C20.8864 8.39657 20.9692 8.4702 21.0465 8.54946C22.1041 9.60708 22.1041 11.3203 21.0465 12.3779C20.5599 12.8645 19.9338 13.1271 19.2966 13.1656C20.3598 13.9975 21.9003 13.924 22.8771 12.9453Z" fill="#80B4FB"/>
<path fill-rule="evenodd" clip-rule="evenodd" d="M31.384 8.35671C31.8082 6.29283 31.9973 4.17752 31.9937 2.07877C31.9937 1.20658 31.9092 0.686956 31.6081 0.385831C31.307 0.0847055 30.7873 0.000205441 29.9152 0.000205441C27.8127 -0.00348206 25.6975 0.185643 23.6318 0.611643C24.6527 3.89477 27.5079 6.58108 31.384 8.35671Z" fill="#375E7D"/>
<path fill-rule="evenodd" clip-rule="evenodd" d="M31.384 8.35671C31.8081 6.29283 31.9973 4.17752 31.9936 2.07877C31.9936 1.20658 31.9092 0.686956 31.6081 0.385831C31.307 0.084706 30.7873 0.000205994 29.9151 0.000205994H29.6636C29.6948 0.237081 29.7076 0.518019 29.7076 0.850394C29.7113 2.95102 29.5222 5.06446 29.098 7.12833C29.8104 7.57633 30.5743 7.98577 31.384 8.35671Z" fill="#2B4D66"/>
<path d="M20.963 14.2215C20.1112 14.2215 19.31 13.8895 18.7074 13.2868C17.4636 12.043 17.4636 10.0192 18.7073 8.77539C19.31 8.17264 20.1112 7.84071 20.963 7.84071C21.8149 7.84071 22.6159 8.17264 23.2187 8.77539C23.8214 9.37808 24.1534 10.1792 24.1534 11.0311C24.1534 11.883 23.8214 12.684 23.2187 13.2868C22.6159 13.8895 21.8149 14.2215 20.963 14.2215ZM20.963 8.80652C20.3691 8.80652 19.8105 9.03802 19.3903 9.45833C18.5231 10.3255 18.5231 11.7366 19.3903 12.6039C19.8105 13.0242 20.3691 13.2557 20.963 13.2557C21.5569 13.2557 22.1154 13.0242 22.5357 12.6039C22.956 12.1836 23.1875 11.625 23.1875 11.0311C23.1875 10.4372 22.956 9.87864 22.5357 9.45833H22.5357C22.1154 9.03802 21.5569 8.80652 20.963 8.80652Z" fill="#DDDAEC"/>
<path d="M5.09766 24.0338L7.69266 21.4388L8.37553 22.1217L5.78047 24.7167L5.09766 24.0338Z" fill="#2B4D66"/>
<path fill-rule="evenodd" clip-rule="evenodd" d="M12.4059 26.1403L11.508 25.2425L11.4859 25.2204L11.2032 24.9377L9.38355 26.7573C9.16686 26.9758 8.87861 27.0823 8.59218 27.0787C8.31674 27.0732 8.04136 26.9667 7.83386 26.7573L9.01268 27.938L9.03474 27.9601C9.12085 28.0459 9.22078 28.1167 9.33036 28.1694C9.73799 28.3695 10.2484 28.298 10.5863 27.9601L12.4059 26.1403Z" fill="#2B4D66"/>
<path d="M7.28369 26.1969L9.87869 23.6019L10.5616 24.2847L7.96657 26.8797L7.28369 26.1969Z" fill="#2B4D66"/>
</g>
<defs>
<clipPath id="clip0_114_1174">
<rect width="32" height="32" fill="white"/>
</clipPath>
</defs>
</svg>
