<svg width="24" height="24" viewBox="0 0 24 24" fill="none" xmlns="http://www.w3.org/2000/svg">
<path fill-rule="evenodd" clip-rule="evenodd" d="M10.7041 12.6085C13.6323 12.6085 16.0076 10.2324 16.0076 7.30717C16.0076 4.37644 13.6328 2 10.7041 2C7.77385 2 5.402 4.37687 5.402 7.30717C5.402 10.2324 7.77341 12.6085 10.7041 12.6085ZM17.4071 14.064C17.127 13.4641 16.7742 12.861 16.3236 12.2853C16.0811 11.9769 15.6389 11.6383 15.2113 11.4063C14.1027 12.6487 12.4958 13.4353 10.7041 13.4353C8.91378 13.4353 7.30733 12.6487 6.20001 11.4092C5.78201 11.6466 5.35142 11.9852 5.11694 12.2929C4.3561 13.2856 3.18193 15.2094 2.99462 17.8027C2.95532 18.3499 3.21577 19.1855 3.67306 19.5045C4.54088 20.1119 6.41276 20.889 10.3103 20.889C11.6597 20.889 12.7967 20.8058 13.7578 20.6762C13.3698 20.022 13.1429 19.2613 13.1429 18.4469C13.1424 16.0688 15.0449 14.1309 17.4071 14.064ZM13.8539 18.4469C13.8539 16.4847 15.4449 14.8937 17.4071 14.8937C19.3697 14.8937 20.9602 16.4844 20.9602 18.4469C20.9602 20.409 19.3693 22 17.4071 22C15.445 22 13.8539 20.409 13.8539 18.4469ZM16.7186 20.1703C16.7186 20.445 16.8996 20.6699 17.2495 20.6699C17.5801 20.6699 17.7611 20.4262 17.7615 20.1703C17.7615 19.8894 17.5738 19.6834 17.2306 19.6834C16.9183 19.6834 16.7186 19.9145 16.7186 20.1703ZM17.6303 18.8962C17.6303 18.6713 17.6988 18.5217 17.8924 18.3963C18.3982 18.0657 18.7355 17.8161 18.7355 17.1665C18.7355 16.8479 18.5854 16.2234 17.5425 16.2234C17.2118 16.2234 16.8306 16.3045 16.6684 16.3731L16.8122 17.0603C16.9685 17.0164 17.162 16.9666 17.3493 16.9666C17.5738 16.9666 17.7176 17.0728 17.7176 17.3099C17.7176 17.5348 17.5679 17.6406 17.3681 17.766C17.3501 17.7772 17.3321 17.7883 17.3142 17.7993C17.0352 17.9713 16.7871 18.1242 16.7871 18.6467C16.7871 18.8027 16.8248 19.1584 16.8498 19.3398H17.6303V18.8962Z" fill="white"/>
</svg>
