<svg width="50" height="56" viewBox="0 0 50 56" fill="none" xmlns="http://www.w3.org/2000/svg">
<path fill-rule="evenodd" clip-rule="evenodd" d="M22.9357 0.536847C24.1806 -0.178949 25.7534 -0.178949 26.9983 0.536847L37.4837 6.52404L47.9684 12.5112C49.2133 13.227 50 14.5288 50 16.0253V39.9747C50 41.4063 49.2133 42.773 47.9684 43.4888L37.4837 49.476L26.9983 55.4632C25.7534 56.1789 24.1806 56.1789 22.9357 55.4632L12.451 49.476L1.96623 43.4888C0.786731 42.773 0 41.4712 0 40.0396V16.0253C0 14.5937 0.786731 13.227 2.03159 12.5112L12.5163 6.52404L22.9357 0.536847Z" fill="url(#paint0_linear_137_1327)"/>
<path d="M22.329 21.1105V23.7552H24.4205V27.3437V32.2465H22.329V35.2907H24.4205H28.1749H30.2664V32.2465H28.1749V27.3437V23.7552H30.2664V21.1105V20.7115H28.1749H24.4205H22.329V21.1105Z" fill="black"/>
<path d="M37.699 27.5104H35.6129V23.6497H37.699C39.2539 23.6497 40.0317 24.3655 40.0317 25.5893C40.0317 26.8131 39.2539 27.5104 37.699 27.5104ZM37.9269 20.7115H31.8585V35.2901H35.6135V30.4474H37.9275C41.5493 30.4474 43.825 28.5835 43.825 25.5887C43.825 22.5939 41.5493 20.7109 37.9275 20.7109L37.9269 20.7115Z" fill="black"/>
<path d="M17.5162 20.7118L13.8374 30.6954L10.2342 20.7118H6.17578L11.846 35.2909H15.544L21.2328 20.7118H17.5162Z" fill="black"/>
<path d="M14.9713 11.3711V18.0187H35.0288V11.3711L30.7557 16.063L25.0003 9.74414L19.245 16.0636L14.9713 11.3711Z" fill="black"/>
<path d="M26.9635 45.3909H32.1906L32.3909 45.5594L32.1906 45.7279H26.9635V45.5594V45.3909Z" fill="black"/>
<path fill-rule="evenodd" clip-rule="evenodd" d="M32.3909 45.5594L33.1992 46.2651L34.8854 45.5594L33.1992 44.8531L32.3909 45.5594Z" fill="black"/>
<path fill-rule="evenodd" clip-rule="evenodd" d="M27.6249 45.1199L28.4404 45.1318L28.865 43.8884L27.6129 44.31L27.6249 45.1199Z" fill="black"/>
<path fill-rule="evenodd" clip-rule="evenodd" d="M29.3147 45.1199L30.1308 45.1318L30.5554 43.8884L29.3027 44.31L29.3147 45.1199Z" fill="black"/>
<path fill-rule="evenodd" clip-rule="evenodd" d="M31.0056 45.1199L31.8206 45.1318L32.2457 43.8884L30.9937 44.31L31.0056 45.1199Z" fill="black"/>
<path fill-rule="evenodd" clip-rule="evenodd" d="M27.6249 45.9983L28.4404 45.9858L28.865 47.2298L27.6129 46.8082L27.6249 45.9983Z" fill="black"/>
<path fill-rule="evenodd" clip-rule="evenodd" d="M29.3147 45.9983L30.1308 45.9858L30.5554 47.2298L29.3027 46.8082L29.3147 45.9983Z" fill="black"/>
<path fill-rule="evenodd" clip-rule="evenodd" d="M31.0056 45.9983L31.8206 45.9858L32.2457 47.2298L30.9937 46.8082L31.0056 45.9983Z" fill="black"/>
<path d="M23.0364 45.3909H17.8093L17.609 45.5594L17.8093 45.7279H23.0364V45.5594V45.3909Z" fill="black"/>
<path fill-rule="evenodd" clip-rule="evenodd" d="M17.609 45.5594L16.8007 46.2651L15.1145 45.5594L16.8007 44.8531L17.609 45.5594Z" fill="black"/>
<path fill-rule="evenodd" clip-rule="evenodd" d="M22.3749 45.1199L21.5594 45.1318L21.1349 43.8884L22.3869 44.31L22.3749 45.1199Z" fill="black"/>
<path fill-rule="evenodd" clip-rule="evenodd" d="M20.6853 45.1199L19.8691 45.1318L19.4452 43.8884L20.6972 44.31L20.6853 45.1199Z" fill="black"/>
<path fill-rule="evenodd" clip-rule="evenodd" d="M18.9948 45.1199L18.1787 45.1318L17.7542 43.8884L19.0068 44.31L18.9948 45.1199Z" fill="black"/>
<path fill-rule="evenodd" clip-rule="evenodd" d="M22.3749 45.9983L21.5594 45.9858L21.1349 47.2298L22.3869 46.8082L22.3749 45.9983Z" fill="black"/>
<path fill-rule="evenodd" clip-rule="evenodd" d="M20.6853 45.9983L19.8691 45.9858L19.4452 47.2298L20.6972 46.8082L20.6853 45.9983Z" fill="black"/>
<path fill-rule="evenodd" clip-rule="evenodd" d="M18.9948 45.9983L18.1787 45.9858L17.7542 47.2298L19.0068 46.8082L18.9948 45.9983Z" fill="black"/>
<path fill-rule="evenodd" clip-rule="evenodd" d="M25.0003 44.4685L26.0982 45.5595L25.0003 46.6492L23.9023 45.5595L25.0003 44.4685Z" fill="black"/>
<path fill-rule="evenodd" clip-rule="evenodd" d="M22.9195 2.30506C23.5491 1.943 24.2609 1.76196 24.9697 1.76196C25.6785 1.76196 26.3902 1.94359 27.0205 2.30506L46.4147 13.3808C47.0491 13.7453 47.566 14.2616 47.9222 14.8773C48.2724 15.4812 48.4673 16.1797 48.4673 16.9259V39.0768C48.4673 39.7992 48.2688 40.506 47.9132 41.1218C47.5588 41.7358 47.0455 42.261 46.4171 42.6219L27.0217 53.6971C26.392 54.0597 25.6809 54.2407 24.9715 54.2407C24.2621 54.2407 23.5509 54.0597 22.9213 53.6977C16.7324 50.1627 9.77893 45.7262 3.51926 42.6177C2.91662 42.2515 2.41472 41.734 2.06813 41.1254C1.72873 40.5311 1.53564 39.8498 1.53564 39.137V16.9265C1.53564 16.2041 1.73413 15.4973 2.08971 14.8815C2.4441 14.2675 2.9574 13.7423 3.58582 13.3808L13.2838 7.84385L22.9207 2.30566V2.30685L22.9195 2.30506ZM24.9697 2.44441C24.376 2.44441 23.7842 2.59448 23.2625 2.89461L13.625 8.4322L3.92702 13.9692C3.40653 14.2699 2.98018 14.707 2.68396 15.2198C2.38654 15.7337 2.22104 16.3232 2.22104 16.9259V39.1364C2.22104 39.7295 2.38114 40.2958 2.66177 40.7883C2.952 41.2981 3.37115 41.7304 3.87365 42.0359L23.2607 53.1075C23.783 53.407 24.376 53.5577 24.9691 53.5577C25.5621 53.5577 26.1546 53.4076 26.6763 53.1075L46.0717 42.0323C46.5928 41.7316 47.0185 41.2945 47.3148 40.7818C47.6122 40.2678 47.7777 39.6783 47.7777 39.0756V16.9247C47.7777 16.3 47.6158 15.717 47.3256 15.215C47.0311 14.7029 46.6 14.2735 46.0705 13.9692L26.6781 2.89461C26.1552 2.59507 25.5627 2.44441 24.9697 2.44441Z" fill="url(#paint1_linear_137_1327)"/>
<defs>
<linearGradient id="paint0_linear_137_1327" x1="12.4165" y1="9.24338" x2="40.4515" y2="49.9266" gradientUnits="userSpaceOnUse">
<stop stop-color="#FBF17A"/>
<stop offset="0.16" stop-color="#FFD84F"/>
<stop offset="0.28" stop-color="#FDBC30"/>
<stop offset="0.39" stop-color="#FFD84F"/>
<stop offset="0.44" stop-color="#FFD84F"/>
<stop offset="0.65" stop-color="#C58B31"/>
<stop offset="0.74" stop-color="#BA7D2B"/>
<stop offset="0.86" stop-color="#FFCB42"/>
<stop offset="1" stop-color="#FFCB42"/>
</linearGradient>
<linearGradient id="paint1_linear_137_1327" x1="73.094" y1="-7.16698" x2="-6.76954" y2="54.9156" gradientUnits="userSpaceOnUse">
<stop stop-color="#FBF17A"/>
<stop offset="0.23" stop-color="#FFD84F"/>
<stop offset="0.32" stop-color="#FDBC30"/>
<stop offset="0.38" stop-color="#FFD84F"/>
<stop offset="0.44" stop-color="#FFD84F"/>
<stop offset="0.77" stop-color="#BA7D2B"/>
<stop offset="0.88" stop-color="#FFCB42"/>
<stop offset="1" stop-color="#FFCB42"/>
</linearGradient>
</defs>
</svg>
