<svg width="62" height="56" viewBox="0 0 62 56" fill="none" xmlns="http://www.w3.org/2000/svg">
<path d="M33.5827 3.51591V41.0115C33.5827 41.9392 33.213 42.8288 32.5548 43.4848C31.8967 44.1407 31.0041 44.5092 30.0733 44.5092H6.43375C5.50299 44.5092 4.61035 44.1407 3.95221 43.4848C3.29406 42.8288 2.92432 41.9392 2.92432 41.0115V3.51591C2.92432 2.58826 3.29406 1.6986 3.95221 1.04265C4.61035 0.386698 5.50299 0.0181885 6.43375 0.0181885H30.0733C31.0041 0.0181885 31.8967 0.386698 32.5548 1.04265C33.213 1.6986 33.5827 2.58826 33.5827 3.51591Z" fill="#DBDBDB"/>
<path d="M27.1841 20.1441C27.1841 24.3775 22.051 28.2355 18.2537 30.2058C14.4799 28.2949 9.32341 24.3448 9.32341 20.1441C9.32341 16.9285 11.5437 14.3215 14.2834 14.3215C16.4768 14.3215 18.2537 16.4073 18.2537 18.9781C18.2537 18.6097 18.29 18.2506 18.3602 17.9078C18.772 15.8524 20.3442 14.3215 22.2217 14.3215C24.9614 14.3215 27.1841 16.9285 27.1841 20.1441ZM10.5002 4.05686C10.5002 5.29856 8.99586 6.42832 7.8822 7.00661C6.77673 6.44698 5.26416 5.28806 5.26416 4.05686C5.26416 3.11365 5.91575 2.34998 6.71941 2.34998C7.3628 2.34998 7.8822 2.96091 7.8822 3.71409C7.8822 3.60682 7.8939 3.50189 7.91378 3.40162C8.03427 2.79885 8.49518 2.34998 9.04616 2.34998C9.84982 2.34998 10.5002 3.11365 10.5002 4.05686ZM31.2422 39.2276C31.2422 40.4693 29.7378 41.6003 28.6241 42.1774C27.5187 41.6177 26.0061 40.46 26.0061 39.2276C26.0061 38.2844 26.6577 37.5207 27.4613 37.5207C28.1047 37.5207 28.6241 38.1317 28.6241 38.886C28.6241 38.7776 28.6358 38.6727 28.6557 38.5712C28.7762 37.9696 29.2371 37.5219 29.7881 37.5219C30.5917 37.5219 31.2422 38.2856 31.2422 39.2276Z" fill="#F34624"/>
<path d="M42.4147 55.7976L20.0151 48.2635C19.5783 48.1167 19.1748 47.8856 18.8277 47.5834C18.4805 47.2811 18.1965 46.9137 17.9919 46.5021C17.7872 46.0904 17.6659 45.6427 17.6349 45.1843C17.6039 44.7259 17.6638 44.266 17.8112 43.8307L29.8415 8.30432C29.9889 7.8691 30.2209 7.46707 30.5242 7.1212C30.8274 6.77533 31.1961 6.49239 31.6091 6.28852C32.0221 6.08466 32.4714 5.96387 32.9312 5.93305C33.3911 5.90223 33.8525 5.96199 34.2892 6.10891L56.6875 13.6407C57.1243 13.7875 57.5278 14.0186 57.875 14.3208C58.2221 14.623 58.5061 14.9904 58.7108 15.4021C58.9155 15.8137 59.0368 16.2615 59.0677 16.7198C59.0987 17.1782 59.0388 17.6382 58.8915 18.0735L46.8611 53.601C46.5637 54.4799 45.9281 55.2051 45.0943 55.617C44.2604 56.0289 43.2966 56.0939 42.4147 55.7976Z" fill="#EDEDED"/>
<path d="M38.2923 34.2213L37.3799 36.9157L40.04 37.8099C40.3523 37.9151 40.6099 38.1395 40.7561 38.434C40.9023 38.7284 40.9252 39.0686 40.8197 39.3798C40.7142 39.6911 40.489 39.9478 40.1936 40.0935C39.8982 40.2392 39.5568 40.262 39.2446 40.1569L32.0292 37.7307C31.7274 37.6174 31.4816 37.3918 31.3435 37.1014C31.2055 36.8111 31.186 36.4786 31.2892 36.1741C31.3924 35.8697 31.6101 35.6171 31.8966 35.4696C32.1831 35.3221 32.5158 35.2913 32.8246 35.3837L35.4824 36.2779L36.3949 33.5835C35.6696 33.9823 34.8414 34.0965 34.0623 33.8354C30.3844 32.5983 29.169 24.7494 41.0496 22.9574C43.3869 25.3709 46.2506 29.5588 45.179 32.7254C44.3648 35.1295 42.0451 36.5193 39.9968 35.8302C39.2165 35.5679 38.6281 34.9768 38.2923 34.2213ZM34.0529 13.5567L33.6751 14.676L34.7794 15.0491C34.9091 15.0927 35.0161 15.1858 35.0768 15.3081C35.1376 15.4303 35.1472 15.5716 35.1034 15.7008C35.0597 15.8301 34.9662 15.9367 34.8436 15.9973C34.7209 16.0579 34.5792 16.0674 34.4495 16.0238L31.4513 15.0153C31.3268 14.9676 31.2255 14.8738 31.1688 14.7535C31.112 14.6332 31.1041 14.4957 31.1467 14.3697C31.1893 14.2437 31.2791 14.139 31.3973 14.0774C31.5156 14.0159 31.6531 14.0023 31.7812 14.0394L32.8855 14.4113L33.2645 13.2921C33.1194 13.3762 32.9582 13.429 32.7914 13.4471C32.6245 13.4652 32.4557 13.4481 32.2959 13.397C30.7669 12.8817 30.2628 9.62063 35.1994 8.87561C36.1703 9.87946 37.36 11.619 36.9155 12.9353C36.5762 13.9345 35.6135 14.5116 34.7618 14.226C34.6034 14.1701 34.4585 14.0816 34.3366 13.9663C34.2147 13.851 34.1173 13.7115 34.0529 13.5567ZM42.6007 51.0651L42.2217 52.1844L43.326 52.5575C43.3902 52.5791 43.4496 52.6131 43.5006 52.6575C43.5516 52.702 43.5934 52.756 43.6235 52.8165C43.6536 52.877 43.6714 52.9428 43.676 53.0102C43.6805 53.0776 43.6717 53.1452 43.6501 53.2092C43.6284 53.2733 43.5943 53.3324 43.5497 53.3832C43.5051 53.4341 43.4509 53.4757 43.3902 53.5057C43.3295 53.5357 43.2634 53.5535 43.1958 53.558C43.1282 53.5626 43.0604 53.5538 42.9961 53.5322L39.9979 52.5237C39.8761 52.4741 39.7779 52.3802 39.7232 52.2609C39.6685 52.1417 39.6614 52.0061 39.7035 51.8819C39.7455 51.7577 39.8335 51.6541 39.9495 51.5922C40.0655 51.5304 40.2008 51.5149 40.3278 51.549L41.4333 51.9198L41.8123 50.8005C41.6671 50.8848 41.5057 50.9377 41.3386 50.9558C41.1715 50.9739 41.0025 50.9567 40.8425 50.9054C39.3136 50.3912 38.8094 47.1302 43.746 46.3852C44.7169 47.3879 45.9078 49.1286 45.4621 50.4437C45.1229 51.4429 44.1601 52.02 43.3085 51.7344C43.15 51.6785 43.0052 51.59 42.8832 51.4747C42.7613 51.3594 42.6651 51.2199 42.6007 51.0651Z" fill="#2C3642"/>
</svg>
