<svg width="52" height="52" viewBox="0 0 52 52" fill="none" xmlns="http://www.w3.org/2000/svg">
<path d="M40 18.1687V18.125H12V18.1687C8.91203 18.3882 6.02185 19.7694 3.91129 22.0342C1.80073 24.299 0.626503 27.2792 0.625 30.375V45.9675C0.624783 47.1858 1.03598 48.3685 1.79195 49.3239C2.54791 50.2793 3.60435 50.9514 4.79006 51.2313C5.97577 51.5112 7.22126 51.3825 8.32469 50.8661C9.42812 50.3497 10.3248 49.4758 10.8695 48.386L13.7727 42.5795C15.5888 42.4478 17.3524 41.9122 18.935 41.0117C20.5175 40.1113 21.879 38.8688 22.92 37.375H29.08C30.121 38.8688 31.4825 40.1113 33.065 41.0117C34.6476 41.9122 36.4112 42.4478 38.2272 42.5795L41.1305 48.386C41.6752 49.4758 42.5719 50.3497 43.6753 50.8661C44.7787 51.3825 46.0242 51.5112 47.2099 51.2313C48.3956 50.9514 49.4521 50.2793 50.2081 49.3239C50.964 48.3685 51.3752 47.1858 51.375 45.9675V30.375C51.3735 27.2792 50.1993 24.299 48.0887 22.0342C45.9782 19.7694 43.088 18.3882 40 18.1687Z" fill="#F8664F"/>
<path d="M49.0816 46.125C47.9303 46.125 46.8016 45.8044 45.8223 45.1991C44.8429 44.5937 44.0515 43.7275 43.5368 42.6976L43.4632 42.5524C42.9485 41.5225 42.1571 40.6563 41.1777 40.0509C40.1984 39.4456 39.0697 39.1249 37.9184 39.125C36.4384 39.125 35.0073 38.5955 33.8837 37.6322L31.2413 35.3677C30.1177 34.4045 28.6866 33.875 27.2066 33.875H18.125C16.2685 33.875 14.488 33.1375 13.1753 31.8247C11.8625 30.512 11.125 28.7315 11.125 26.875V18.2737C8.212 18.6907 5.54691 20.1437 3.61838 22.3663C1.68984 24.589 0.627093 27.4323 0.625 30.375V45.9675C0.624783 47.1858 1.03598 48.3685 1.79195 49.3239C2.54791 50.2792 3.60435 50.9514 4.79006 51.2313C5.97577 51.5112 7.22126 51.3825 8.32469 50.8661C9.42812 50.3497 10.3248 49.4758 10.8695 48.386L13.7727 42.5795C15.5888 42.4478 17.3524 41.9122 18.935 41.0117C20.5175 40.1113 21.879 38.8688 22.92 37.375H29.08C30.121 38.8688 31.4825 40.1113 33.065 41.0117C34.6476 41.9122 36.4112 42.4478 38.2272 42.5795L41.1305 48.386C41.6686 49.4636 42.5513 50.3306 43.6384 50.8492C44.7255 51.3679 45.9547 51.5085 47.1308 51.2487C48.3069 50.9889 49.3626 50.3437 50.1301 49.4154C50.8976 48.4871 51.333 47.329 51.3671 46.125H49.0816Z" fill="#CC5144"/>
<path d="M33.875 20.75H18.125C16.6753 20.75 15.5 21.9253 15.5 23.375C15.5 24.8247 16.6753 26 18.125 26H33.875C35.3247 26 36.5 24.8247 36.5 23.375C36.5 21.9253 35.3247 20.75 33.875 20.75Z" fill="#CC5144"/>
<path d="M16.375 29.5H12.875V26H9.375V29.5H5.875V33H9.375V36.5H12.875V33H16.375V29.5Z" fill="#AAE1F9"/>
<path d="M41.75 28.625C42.7165 28.625 43.5 27.8415 43.5 26.875C43.5 25.9085 42.7165 25.125 41.75 25.125C40.7835 25.125 40 25.9085 40 26.875C40 27.8415 40.7835 28.625 41.75 28.625Z" fill="#57B7EB"/>
<path d="M46.125 33.875C47.0915 33.875 47.875 33.0915 47.875 32.125C47.875 31.1585 47.0915 30.375 46.125 30.375C45.1585 30.375 44.375 31.1585 44.375 32.125C44.375 33.0915 45.1585 33.875 46.125 33.875Z" fill="#57B7EB"/>
<path d="M35.625 33C36.5915 33 37.375 32.2165 37.375 31.25C37.375 30.2835 36.5915 29.5 35.625 29.5C34.6585 29.5 33.875 30.2835 33.875 31.25C33.875 32.2165 34.6585 33 35.625 33Z" fill="#57B7EB"/>
<path d="M40 38.25C40.9665 38.25 41.75 37.4665 41.75 36.5C41.75 35.5335 40.9665 34.75 40 34.75C39.0335 34.75 38.25 35.5335 38.25 36.5C38.25 37.4665 39.0335 38.25 40 38.25Z" fill="#57B7EB"/>
<path d="M11.125 29.5V26H9.375V29.5H5.875V33H9.375V36.5H12.875V33H16.375V31.25H12.875C12.4109 31.25 11.9658 31.0656 11.6376 30.7374C11.3094 30.4092 11.125 29.9641 11.125 29.5Z" fill="#57B7EB"/>
<path d="M9.375 31.25H5.875V33H9.375V36.5H11.125V33C11.125 32.5358 10.9406 32.0907 10.6124 31.7625C10.2842 31.4343 9.83913 31.25 9.375 31.25ZM40.875 37.375C40.5824 37.3762 40.2943 37.3037 40.0371 37.1643C39.7799 37.0249 39.5619 36.823 39.4033 36.5771C39.2447 36.3313 39.1504 36.0496 39.1293 35.7578C39.1082 35.466 39.1609 35.1736 39.2825 34.9075C39.023 35.0228 38.7955 35.1996 38.6195 35.4226C38.4436 35.6455 38.3246 35.908 38.2728 36.1872C38.221 36.4664 38.2379 36.7541 38.322 37.0253C38.4062 37.2965 38.5551 37.5432 38.756 37.744C38.9568 37.9448 39.2034 38.0937 39.4747 38.1779C39.7459 38.2621 40.0336 38.279 40.3128 38.2272C40.592 38.1753 40.8544 38.0563 41.0774 37.8804C41.3003 37.7045 41.4771 37.477 41.5925 37.2175C41.3673 37.3204 41.1226 37.3741 40.875 37.375ZM36.5 32.125C36.2074 32.1262 35.9193 32.0537 35.6621 31.9143C35.4049 31.7749 35.1869 31.573 35.0283 31.3271C34.8697 31.0813 34.7754 30.7996 34.7543 30.5078C34.7332 30.216 34.7859 29.9236 34.9075 29.6575C34.648 29.7728 34.4205 29.9496 34.2445 30.1726C34.0686 30.3955 33.9496 30.658 33.8978 30.9372C33.846 31.2164 33.8629 31.5041 33.947 31.7753C34.0312 32.0465 34.1801 32.2932 34.381 32.494C34.5818 32.6948 34.8285 32.8437 35.0997 32.9279C35.3709 33.0121 35.6586 33.029 35.9378 32.9772C36.217 32.9253 36.4794 32.8063 36.7024 32.6304C36.9253 32.4545 37.1021 32.227 37.2175 31.9675C36.9923 32.0704 36.7476 32.1241 36.5 32.125ZM47 33C46.7074 33.0012 46.4193 32.9287 46.1621 32.7893C45.9049 32.6499 45.6869 32.448 45.5283 32.2021C45.3697 31.9563 45.2754 31.6746 45.2543 31.3828C45.2332 31.091 45.2859 30.7986 45.4075 30.5325C45.148 30.6478 44.9205 30.8246 44.7445 31.0476C44.5686 31.2705 44.4496 31.533 44.3978 31.8122C44.346 32.0914 44.3629 32.3791 44.447 32.6503C44.5312 32.9215 44.6801 33.1682 44.881 33.369C45.0818 33.5698 45.3284 33.7187 45.5997 33.8029C45.8709 33.8871 46.1586 33.904 46.4378 33.8522C46.717 33.8003 46.9794 33.6813 47.2024 33.5054C47.4253 33.3295 47.6021 33.102 47.7175 32.8425C47.4923 32.9454 47.2476 32.9991 47 33ZM42.625 27.75C42.3324 27.7512 42.0443 27.6787 41.7871 27.5393C41.5299 27.3999 41.3119 27.198 41.1533 26.9521C40.9947 26.7063 40.9004 26.4246 40.8793 26.1328C40.8582 25.841 40.9109 25.5486 41.0325 25.2825C40.773 25.3978 40.5455 25.5746 40.3695 25.7976C40.1936 26.0205 40.0746 26.283 40.0228 26.5622C39.971 26.8414 39.9879 27.1291 40.072 27.4003C40.1562 27.6715 40.3051 27.9182 40.506 28.119C40.7068 28.3198 40.9534 28.4687 41.2247 28.5529C41.4959 28.6371 41.7836 28.654 42.0628 28.6022C42.342 28.5503 42.6044 28.4313 42.8274 28.2554C43.0503 28.0795 43.2271 27.852 43.3425 27.5925C43.1173 27.6954 42.8726 27.7491 42.625 27.75Z" fill="#4891D3"/>
<path d="M49.625 32.125V39.125C49.625 39.5891 49.8094 40.0343 50.1376 40.3624C50.4658 40.6906 50.9109 40.875 51.375 40.875V30.375C51.3735 27.2792 50.1993 24.299 48.0887 22.0342C45.9782 19.7694 43.088 18.3882 40 18.1687V18.125H36.5C36.5 18.5891 36.6844 19.0342 37.0126 19.3624C37.3408 19.6906 37.7859 19.875 38.25 19.875V19.9187C41.338 20.1382 44.2282 21.5194 46.3387 23.7842C48.4493 26.049 49.6235 29.0292 49.625 32.125Z" fill="#F89C8D"/>
<path d="M25.125 31.25C25.125 31.4821 25.0328 31.7046 24.8687 31.8687C24.7046 32.0328 24.4821 32.125 24.25 32.125H22.5C22.2679 32.125 22.0454 32.0328 21.8813 31.8687C21.7172 31.7046 21.625 31.4821 21.625 31.25C21.625 31.0179 21.7172 30.7954 21.8813 30.6313C22.0454 30.4672 22.2679 30.375 22.5 30.375H24.25C24.4821 30.375 24.7046 30.4672 24.8687 30.6313C25.0328 30.7954 25.125 31.0179 25.125 31.25ZM30.375 31.25C30.375 31.4821 30.2828 31.7046 30.1187 31.8687C29.9546 32.0328 29.7321 32.125 29.5 32.125H27.75C27.5179 32.125 27.2954 32.0328 27.1313 31.8687C26.9672 31.7046 26.875 31.4821 26.875 31.25C26.875 31.0179 26.9672 30.7954 27.1313 30.6313C27.2954 30.4672 27.5179 30.375 27.75 30.375H29.5C29.7321 30.375 29.9546 30.4672 30.1187 30.6313C30.2828 30.7954 30.375 31.0179 30.375 31.25Z" fill="#F9E109"/>
<path d="M25.125 31.25C25.125 31.4821 25.0328 31.7046 24.8687 31.8687C24.7046 32.0328 24.4821 32.125 24.25 32.125H22.5C22.2679 32.125 22.0454 32.0328 21.8813 31.8687C21.7172 31.7046 21.625 31.4821 21.625 31.25C21.625 31.0179 21.7172 30.7954 21.8813 30.6313C22.0454 30.4672 22.2679 30.375 22.5 30.375H24.25C24.4821 30.375 24.7046 30.4672 24.8687 30.6313C25.0328 30.7954 25.125 31.0179 25.125 31.25ZM30.375 31.25C30.375 31.4821 30.2828 31.7046 30.1187 31.8687C29.9546 32.0328 29.7321 32.125 29.5 32.125H27.75C27.5179 32.125 27.2954 32.0328 27.1313 31.8687C26.9672 31.7046 26.875 31.4821 26.875 31.25C26.875 31.0179 26.9672 30.7954 27.1313 30.6313C27.2954 30.4672 27.5179 30.375 27.75 30.375H29.5C29.7321 30.375 29.9546 30.4672 30.1187 30.6313C30.2828 30.7954 30.375 31.0179 30.375 31.25Z" fill="#F9E109"/>
<path d="M26 23.375C32.2822 23.375 37.375 18.2822 37.375 12C37.375 5.71776 32.2822 0.625 26 0.625C19.7178 0.625 14.625 5.71776 14.625 12C14.625 18.2822 19.7178 23.375 26 23.375Z" fill="#F9E109"/>
<path d="M28.6248 19.875C26.699 19.8789 24.8038 19.3928 23.1175 18.4625C21.4312 17.5321 20.0093 16.1882 18.9855 14.557C17.9616 12.9258 17.3696 11.0609 17.2649 9.13789C17.1603 7.21485 17.5465 5.2968 18.3873 3.56415C17.1405 4.68798 16.1581 6.07404 15.5107 7.62272C14.8633 9.1714 14.567 10.8443 14.643 12.5211C14.7191 14.1979 15.1656 15.8371 15.9505 17.3208C16.7354 18.8046 17.8392 20.096 19.1826 21.1024C20.5261 22.1088 22.0757 22.8051 23.7202 23.1413C25.3648 23.4775 27.0634 23.4453 28.694 23.0469C30.3246 22.6486 31.8467 21.894 33.151 20.8374C34.4552 19.7807 35.5093 18.4483 36.2373 16.9359C34.1537 18.8283 31.4396 19.8762 28.6248 19.875Z" fill="#FCBC04"/>
<path d="M26 19.875C30.3492 19.875 33.875 16.3492 33.875 12C33.875 7.65076 30.3492 4.125 26 4.125C21.6508 4.125 18.125 7.65076 18.125 12C18.125 16.3492 21.6508 19.875 26 19.875Z" fill="#FCBC04"/>
<path d="M26 7.46399L27.3519 10.2027L30.375 10.642L28.1875 12.7744L28.7038 15.7852L26 14.3642L23.2962 15.7852L23.8125 12.7744L21.625 10.642L24.6481 10.2027L26 7.46399Z" fill="#F9E109"/>
<path d="M30.3751 18.125C27.6113 18.1228 24.9429 17.1143 22.8684 15.2881C20.7939 13.4619 19.4552 10.9429 19.1025 8.20166C18.2205 9.80411 17.9238 11.6636 18.2634 13.461C18.603 15.2584 19.5576 16.8814 20.9635 18.0516C22.3694 19.2218 24.1387 19.8661 25.9679 19.8739C27.797 19.8817 29.5718 19.2526 30.9876 18.0944C30.7829 18.1049 30.5816 18.125 30.3751 18.125Z" fill="#E59730"/>
<path d="M25.1252 5.87503C26.3876 5.87237 27.632 6.17388 28.7532 6.75404C29.8744 7.33419 30.8393 8.17591 31.5663 9.20795C32.2932 10.24 32.7609 11.432 32.9296 12.683C33.0983 13.9341 32.9632 15.2074 32.5356 16.3952C33.1627 15.4687 33.5852 14.4193 33.775 13.3167C33.9648 12.2142 33.9175 11.0839 33.6362 10.0011C33.355 8.91829 32.8463 7.90783 32.1439 7.03702C31.4416 6.1662 30.5618 5.45503 29.5631 4.95086C28.5644 4.44669 27.4697 4.16109 26.352 4.11309C25.2343 4.06509 24.1192 4.25578 23.081 4.67247C22.0427 5.08917 21.1052 5.72229 20.3308 6.52968C19.5564 7.33707 18.9629 8.30019 18.5898 9.3549C19.3099 8.28307 20.2828 7.40496 21.4226 6.79808C22.5623 6.19119 23.834 5.87418 25.1252 5.87503Z" fill="#E59730"/>
</svg>
