<svg width="58" height="56" viewBox="0 0 58 56" fill="none" xmlns="http://www.w3.org/2000/svg">
<path d="M28.7191 0C19.0345 0 11.3228 7.71177 11.3228 17.3963V27.6189C11.3228 28.695 17.2411 31.9231 28.7191 31.9231C40.7351 31.9231 46.1154 28.695 46.1154 27.6189V17.3963C46.1154 7.71177 38.4036 0 28.7191 0Z" fill="#F45170"/>
<path d="M37.1481 2.1521C37.1481 2.1521 43.9631 11.478 40.0176 14.8855C31.7678 21.8799 11.6813 14.8855 11.6813 14.8855C11.502 15.7822 11.502 16.4996 11.502 17.3963V27.6189C11.502 28.6949 17.4203 31.9231 28.8983 31.9231C40.9143 31.9231 46.2946 28.6949 46.2946 27.6189V17.3963C46.1152 10.7606 42.5284 5.20094 37.1481 2.1521Z" fill="#E93565"/>
<path d="M50.5988 53.9824C35.8926 56.6726 21.3658 56.6726 6.65965 53.9824C3.61081 53.4444 1.27934 50.7542 0.741314 47.526C-0.334747 41.4284 -0.155403 37.3035 0.741314 31.2058C1.27934 27.7983 3.61081 25.2875 6.65965 24.7494C21.3658 22.0593 35.8926 22.0593 50.5988 24.7494C53.6476 25.2875 55.9791 27.9776 56.5171 31.2058C57.5932 37.3035 57.5932 41.4284 56.5171 47.526C56.1584 50.7542 53.6476 53.4444 50.5988 53.9824Z" fill="#497BFE"/>
<path d="M48.626 24.2114C46.2946 23.8527 43.9631 23.494 41.6316 23.3146V55.2378C43.9631 55.0584 46.2946 54.6998 48.626 54.3411V24.2114ZM22.2625 22.7766C19.0343 22.956 15.9855 23.3146 12.7573 23.6733V54.8791C15.9855 55.2378 19.0343 55.5965 22.2625 55.7758V22.7766ZM32.4851 22.7766H26.0287V55.9552H32.4851V22.7766Z" fill="#5094FF"/>
<path d="M50.4194 47.526C35.8926 49.8575 21.3657 49.8575 6.83892 47.526C3.79008 46.988 1.45862 44.6565 0.920585 41.6077C0.0238675 36.0481 0.0238675 32.6405 0.920585 27.0809C1.45862 24.032 3.79008 21.7006 6.83892 21.1625C21.3657 18.8311 35.8926 18.8311 50.4194 21.1625C53.4682 21.7006 55.7997 24.032 56.3377 27.0809C57.4138 32.6405 57.4138 36.0481 56.3377 41.6077C55.7997 44.6565 53.4682 46.988 50.4194 47.526Z" fill="#95DBF9"/>
<path d="M7.19777 46.0913C4.86631 45.7326 2.89353 43.7598 2.53484 41.4284C1.63813 36.0481 1.63813 32.8199 2.53484 27.4396C2.89353 24.9288 4.68696 22.956 7.19777 22.5973C21.5452 20.2658 35.8927 20.2658 50.2402 22.5973C52.5717 22.956 54.5444 24.9288 54.9031 27.2602C55.7999 32.6405 55.7999 35.8687 54.9031 41.249C54.5444 43.7598 52.5717 45.5533 50.2402 45.9119C36.4308 48.2434 22.0833 48.4228 7.19777 46.0913Z" fill="#57B3FE"/>
<path opacity="0.7" d="M5.58364 25.8255C5.76298 26.5428 7.73576 25.6461 10.2466 24.9288C12.578 24.3907 14.7302 24.3907 14.5508 23.6734C14.3715 22.956 12.2193 22.7766 9.70854 23.3147C7.19773 23.8527 5.40429 25.1081 5.58364 25.8255ZM17.4203 22.5973C16.7029 22.5973 15.9856 22.7766 15.8062 23.1353C15.6269 23.494 16.1649 23.8527 16.8823 23.8527C17.5997 23.8527 18.317 23.6734 18.4964 23.3147C18.4964 22.956 18.1377 22.5973 17.4203 22.5973Z" fill="white"/>
<path opacity="0.7" d="M37.5716 45.8935C42.5142 45.5808 46.5006 45.0068 46.4756 44.6114C46.4506 44.216 42.4236 44.149 37.481 44.4617C32.5385 44.7743 28.552 45.3484 28.577 45.7438C28.602 46.1392 32.6291 46.2062 37.5716 45.8935Z" fill="white"/>
<path d="M48.9847 30.1297V41.249C48.9847 42.1457 48.2674 43.0424 47.1913 43.0424H47.012C46.2946 43.0424 45.7566 42.6837 45.5772 42.325L39.3002 33.3579V41.787C39.3002 43.5804 36.6101 43.5804 36.6101 41.787V30.6677C36.6101 29.771 37.3274 28.8743 38.4035 28.8743H38.5828C38.9415 28.8743 39.4795 29.0536 40.0176 29.5916L46.2946 38.5588V30.1297C46.2946 29.771 46.4739 29.4123 46.6533 29.233C47.1913 28.6949 48.088 28.6949 48.6261 29.233C48.8054 29.4123 48.9847 29.5916 48.9847 30.1297ZM24.594 29.771L21.9039 38.3795L19.3931 29.771C19.0344 28.3362 16.8823 28.3362 16.3442 29.771L13.6541 38.3795L11.1433 29.771C10.7846 28.6949 9.52919 28.5156 8.81181 29.0536C8.45313 29.4123 8.45312 29.9503 8.45312 30.4884L12.04 41.787C12.2193 42.5044 12.9367 43.0424 13.6541 43.0424C14.3715 43.0424 15.0888 42.6837 15.2682 41.787L17.779 33.8959L20.2898 41.787C20.4691 42.5044 21.1865 43.0424 21.9039 43.0424C22.6213 43.0424 23.1593 42.6837 23.518 41.787L27.1048 30.4884C27.2842 29.771 27.1048 29.4123 26.7462 29.0536C26.3875 28.3362 24.9527 28.5156 24.594 29.771ZM32.6645 30.1297V41.6077C32.6645 42.5044 31.9471 43.0424 31.2297 43.0424C30.333 43.0424 29.795 42.5044 29.795 41.6077V30.1297C29.9743 28.1569 32.6645 28.1569 32.6645 30.1297Z" fill="#497BFE"/>
<path d="M48.9847 28.3363V39.4556C48.9847 40.3523 48.2673 41.249 47.1912 41.249H47.0119C46.2945 41.249 45.7565 40.8903 45.5771 40.5316L39.3001 31.5645V39.9936C39.3001 40.8903 38.5827 41.4283 37.8654 41.4283C37.148 41.4283 36.4306 40.8903 36.4306 39.9936V28.8743C36.4306 28.3363 36.61 27.9776 36.9687 27.6189C37.3273 27.2602 37.686 27.0809 38.2241 27.0809H38.4034C38.7621 27.0809 39.3001 27.2602 39.8381 27.7982L46.1152 36.7654V28.3363C46.1152 27.9776 46.2945 27.6189 46.4739 27.4396C47.0119 26.9015 47.9086 26.9015 48.4466 27.4396C48.8053 27.6189 48.9847 27.9776 48.9847 28.3363ZM24.5939 27.9776L21.9038 36.5861L19.393 27.9776C19.2136 27.2602 18.4963 26.9015 17.9582 26.9015C17.2409 26.9015 16.7028 27.2602 16.5235 27.9776L13.8333 36.5861L11.1432 27.9776C10.9638 27.2602 10.0671 26.7222 9.34975 26.9015C8.63238 27.0809 8.09435 27.6189 8.45304 28.695L12.0399 39.9936C12.2192 40.711 12.9366 41.249 13.654 41.249C14.3714 41.249 15.0887 40.711 15.2681 39.9936L17.7789 32.1025L20.2897 39.9936C20.4691 40.711 21.1864 41.249 21.9038 41.249C22.6212 41.249 23.1592 40.8903 23.5179 39.9936L27.1048 28.695C27.4634 27.7982 26.9254 27.0809 26.208 26.9015C25.67 26.7222 24.9526 27.0809 24.5939 27.9776ZM32.6644 28.3363V39.8143C32.6644 40.711 31.947 41.249 31.2297 41.249C30.3329 41.249 29.7949 40.711 29.7949 39.8143V28.3363C29.9743 26.3635 32.6644 26.5428 32.6644 28.3363Z" fill="white"/>
<path opacity="0.5" d="M8.81157 28.6949C8.99091 29.0536 9.52894 29.0536 10.067 28.6949C10.4257 28.3362 10.7843 27.9776 10.4257 27.6189C10.2463 27.2602 9.52894 27.0808 9.17025 27.4395C8.81157 27.6189 8.63222 28.3362 8.81157 28.6949Z" fill="#F3F1FC"/>
<path d="M9.17041 27.9776C9.17041 28.1569 9.34975 27.9776 9.5291 27.9776C9.70844 27.7982 9.70844 27.7982 9.70844 27.6189C9.70844 27.4395 9.5291 27.4395 9.34975 27.6189C9.17041 27.6189 9.17041 27.7982 9.17041 27.9776Z" fill="white"/>
<path opacity="0.5" d="M16.8822 28.6949C17.0615 29.0536 17.5996 29.0536 18.1376 28.6949C18.6756 28.3362 18.855 27.9776 18.6756 27.6189C18.4963 27.2602 17.7789 27.0808 17.4202 27.4395C16.8822 27.7982 16.7029 28.3362 16.8822 28.6949Z" fill="#F3F1FC"/>
<path d="M17.2407 27.9776C17.2407 28.1569 17.4201 27.9776 17.5994 27.9776C17.7788 27.7982 17.7788 27.7982 17.7788 27.6189C17.7788 27.4395 17.5994 27.4395 17.4201 27.6189C17.2407 27.6189 17.2407 27.7982 17.2407 27.9776Z" fill="white"/>
<path opacity="0.5" d="M25.132 28.6949C25.3113 29.0536 25.8494 29.0536 26.3874 28.6949C26.9254 28.3362 27.1048 27.9776 26.9254 27.6189C26.7461 27.2602 26.0287 27.0808 25.67 27.4395C24.9526 27.7982 24.7733 28.3362 25.132 28.6949Z" fill="#F3F1FC"/>
<path d="M25.4908 27.9776C25.4908 28.1569 25.6701 27.9776 25.8495 27.9776C26.0288 27.7982 26.0288 27.7982 26.0288 27.6189C26.0288 27.4395 25.8495 27.4395 25.6701 27.6189C25.4908 27.7982 25.3114 27.9776 25.4908 27.9776Z" fill="white"/>
<path opacity="0.5" d="M30.3329 28.6949C30.5122 29.0536 31.0503 29.0536 31.5883 28.6949C32.1263 28.3362 32.3057 27.9776 32.1263 27.6189C31.947 27.2602 31.2296 27.0808 30.8709 27.4395C30.3329 27.7982 30.1535 28.3362 30.3329 28.6949Z" fill="#F3F1FC"/>
<path d="M30.6919 27.9776C30.6919 28.1569 30.8712 27.9776 31.0506 27.9776C31.2299 27.7982 31.2299 27.7982 31.2299 27.6189C31.2299 27.4395 31.0506 27.4395 30.8712 27.6189C30.6919 27.7982 30.6919 27.9776 30.6919 27.9776Z" fill="white"/>
<path opacity="0.5" d="M46.6532 28.6949C46.8325 29.0536 47.3706 29.0536 47.9086 28.6949C48.4466 28.3362 48.626 27.9776 48.4466 27.6189C48.2673 27.2602 47.5499 27.0808 47.1912 27.4395C46.6532 27.6189 46.4738 28.3362 46.6532 28.6949Z" fill="#F3F1FC"/>
<path d="M47.0117 27.9776C47.0117 28.1569 47.1911 27.9776 47.3704 27.9776C47.5497 27.7982 47.5497 27.7982 47.5497 27.6189C47.5497 27.4395 47.3704 27.4395 47.1911 27.6189C47.0117 27.6189 47.0117 27.7982 47.0117 27.9776Z" fill="white"/>
<path opacity="0.5" d="M37.1478 29.0536C37.5065 29.5917 38.0445 29.4123 38.5826 29.0536C39.1206 28.6949 39.4793 28.1569 39.2999 27.7982C38.9413 27.2602 38.2239 27.2602 37.6858 27.6189C37.1478 27.9776 36.9685 28.6949 37.1478 29.0536Z" fill="#F3F1FC"/>
<path d="M37.6862 28.157C37.6862 28.3363 37.8655 28.157 38.0448 28.157C38.2242 27.9776 38.4035 27.9776 38.2242 27.7983C38.0448 27.6189 37.8655 27.6189 37.6862 27.7983C37.6862 27.7983 37.5068 28.157 37.6862 28.157Z" fill="white"/>
<path opacity="0.25" d="M17.7789 9.8639C18.855 12.3747 22.2625 11.8367 26.2081 10.2226C30.1536 8.60849 32.8438 6.45637 31.9471 3.94556C31.0504 1.43475 26.9255 0.896722 22.9799 2.51081C19.2137 4.1249 16.7029 7.35309 17.7789 9.8639Z" fill="white"/>
<path opacity="0.7" d="M22.0831 5.38032C22.2624 6.09769 23.3385 5.91835 24.2352 5.55966C25.3113 5.20097 26.0287 4.4836 25.67 3.94557C25.4906 3.2282 24.4146 3.04885 23.3385 3.58688C22.4418 3.94557 21.7244 4.84229 22.0831 5.38032Z" fill="white"/>
<path d="M33.2026 19.1897C33.0233 19.3691 33.0233 19.7278 33.382 19.7278C34.8167 19.9071 36.0721 20.2658 36.0721 20.2658C36.0721 20.4451 34.8167 20.2658 33.382 20.0865C33.0233 20.0865 32.8439 20.4451 33.0233 20.6245C34.8167 22.9559 36.2515 25.2874 36.0721 25.2874C35.8928 25.6461 34.0993 23.494 32.3059 21.3419C32.1266 21.1625 31.7679 21.1625 31.7679 21.5212C31.5885 22.9559 31.2299 24.2114 31.2299 24.2114C31.0505 24.2114 31.2299 22.9559 31.4092 21.5212C31.4092 21.1625 31.0505 20.9832 30.8712 21.1625C28.5397 22.7766 26.2082 24.3907 26.2082 24.2114C26.0289 24.032 28.181 22.2386 30.3331 20.4451C30.5125 20.2658 30.5125 19.9071 30.1538 19.9071C28.719 19.7278 27.4636 19.3691 27.4636 19.3691C27.4636 19.1897 28.719 19.3691 30.1538 19.5484C30.5125 19.5484 30.6918 19.1897 30.5125 19.0104C28.719 16.6789 27.2843 14.3475 27.4636 14.3475C27.643 14.1681 29.4364 16.3202 31.2299 18.4724C31.4092 18.6517 31.7679 18.6517 31.7679 18.293C31.9472 16.8583 32.3059 15.6029 32.3059 15.6029C32.4853 15.6029 32.3059 16.8583 32.1266 18.293C32.1266 18.6517 32.4853 18.831 32.6646 18.6517C34.9961 17.0376 37.3275 15.4235 37.3275 15.6029C37.5069 15.4235 35.3548 17.217 33.2026 19.1897Z" fill="white"/>
</svg>
