<svg width="54" height="56" viewBox="0 0 54 56" fill="none" xmlns="http://www.w3.org/2000/svg">
<path d="M52.1645 29.4122C52.1645 43.5631 40.6931 55.0349 26.5417 55.0349C12.3908 55.0349 0.918945 43.5631 0.918945 29.4122C0.918945 15.2612 12.3908 3.78943 26.5417 3.78943C40.6931 3.78943 52.1645 15.2612 52.1645 29.4122Z" fill="#B3A4EE"/>
<path d="M33.2515 50.1639C28.874 51.5971 24.1535 51.5971 19.7759 50.1639L24.7767 34.8278L26.5419 29.4186L28.2882 34.8278L33.2515 50.1639Z" fill="#EB86BE"/>
<path d="M26.542 29.4092V29.4186L24.777 34.8279L19.776 50.1639C15.3903 48.7407 11.5735 45.9545 8.88135 42.2112L21.9396 32.7496L26.5326 29.4092H26.542Z" fill="#9579DA"/>
<path d="M26.5323 29.4092L21.9394 32.7497L8.8811 42.2113C6.17445 38.4842 4.71613 33.9965 4.71484 29.3903L20.8386 29.4092H26.5323Z" fill="#5E9CEA"/>
<path d="M26.5323 29.4092H20.8386L4.71484 29.3904C4.71477 24.778 6.18047 20.2849 8.90035 16.5598L21.9394 26.0498L26.5323 29.4092Z" fill="#73B0F4"/>
<path d="M28.9335 7.72461C30.4201 7.88646 31.8861 8.2014 33.3082 8.66431L28.3069 23.9999L26.5419 29.4092L24.7959 23.9999L19.8232 8.65501C21.2297 8.19638 22.6798 7.88459 24.1505 7.72461H28.9335Z" fill="#F4F6F8"/>
<path d="M44.2026 16.6072L31.1443 26.0687L26.5415 29.4092L28.3065 23.9999L33.308 8.66431C37.6912 10.0872 41.5072 12.8694 44.2027 16.6072H44.2026Z" fill="#FFD67B"/>
<path d="M48.3684 29.4283L32.2451 29.4185H26.5415V29.4092L31.1443 26.0687L44.2026 16.6072C46.9024 20.3378 48.3598 24.8233 48.3684 29.4283Z" fill="#F5B945"/>
<path d="M48.3688 29.4284C48.3692 34.0406 46.9036 38.5337 44.1837 42.2586L31.1447 32.7684L26.5518 29.4186H32.2455L48.3688 29.4284Z" fill="#FA6C51"/>
<path d="M44.1833 42.2586C41.4626 45.9791 37.6367 48.7457 33.2512 50.1639L28.2878 34.8278L26.5415 29.4186H26.5513L31.1443 32.7684L44.1833 42.2586Z" fill="#EB5463"/>
<path d="M26.5418 29.4092H26.5324L21.9394 26.0498L8.90039 16.5599C11.6154 12.8378 15.439 10.0706 19.8232 8.65503L24.7959 23.9999L26.5418 29.4092Z" fill="#66D4F1"/>
<path d="M33.2607 50.1826L33.2513 50.1639L33.2607 50.1826ZM8.88099 42.2111L8.87158 42.2205L8.88099 42.2111ZM44.2122 16.5978L44.2027 16.6072L44.2122 16.5978Z" fill="#5E9CEA"/>
<path d="M32.2361 29.4121C32.2361 32.5566 29.6868 35.1059 26.5419 35.1059C23.3975 35.1059 20.8481 32.5566 20.8481 29.4121C20.8481 26.2673 23.3975 23.718 26.5419 23.718C29.6868 23.718 32.2361 26.2673 32.2361 29.4121Z" fill="#F4F6F8"/>
<path d="M32.1313 1.41398L31.2013 3.2551L30.3 5.02012L28.9335 7.7245L27.3295 10.8849C27.1885 11.1928 26.8806 11.3906 26.5418 11.3906C26.203 11.3906 25.8955 11.1928 25.7541 10.8848L24.1505 7.72461L22.7746 5.02023L21.8728 3.23629L20.9522 1.41398C20.8758 1.27126 20.8367 1.11157 20.8384 0.949692C20.8402 0.787817 20.8828 0.629006 20.9623 0.487986C21.0418 0.346965 21.1556 0.228301 21.2932 0.142995C21.4308 0.057689 21.5877 0.00850383 21.7493 0L31.3342 0C31.4959 0.00842954 31.6528 0.0575669 31.7905 0.142852C31.9281 0.228138 32.042 0.346807 32.1215 0.487849C32.201 0.628891 32.2436 0.787735 32.2454 0.94964C32.2471 1.11155 32.2078 1.27127 32.1313 1.41398Z" fill="#FDCD56"/>
<path d="M44.1835 42.2586C41.4628 45.9791 37.6369 48.7457 33.2513 50.1638L33.0518 49.5471C37.0915 47.8642 40.5306 45.0036 42.9212 41.338L44.1835 42.2586Z" fill="#D94452"/>
<path d="M33.2516 50.1639C30.8101 50.9627 28.2456 51.3194 25.6787 51.2173C28.2158 51.0999 30.7121 50.5345 33.0521 49.547L33.2516 50.1639Z" fill="#D56FAC"/>
<path d="M33.3081 8.66431L33.0992 9.29059C32.5444 9.06053 31.981 8.85162 31.4102 8.66431C30.0032 8.20601 28.5534 7.89118 27.083 7.72461H28.9334C30.42 7.88646 31.886 8.2014 33.3081 8.66431Z" fill="#CAD0D7"/>
<path d="M44.2026 16.6072L42.9403 17.5278C40.5622 13.8554 37.1328 10.9849 33.0991 9.29059L33.308 8.66431C37.6912 10.0872 41.5072 12.8694 44.2026 16.6072Z" fill="#F5B945"/>
<path d="M48.3686 29.4283H46.4705C46.4705 25.2034 45.2442 21.0693 42.9404 17.5277L44.2026 16.6072C46.9024 20.3378 48.3598 24.8233 48.3684 29.4283H48.3686Z" fill="#EDAE3E"/>
<path d="M48.3688 29.4283C48.3691 34.0406 46.9036 38.5336 44.1837 42.2586L42.9214 41.338C45.2267 37.7928 46.4592 33.6572 46.4708 29.4283H48.3688Z" fill="#E85841"/>
<path d="M32.1311 1.41398L31.2011 3.2551L30.2998 5.02012L28.9333 7.7245L27.3292 10.8849C27.1883 11.1928 26.8803 11.3906 26.5416 11.3906C26.2028 11.3906 25.8953 11.1928 25.7539 10.8848L25.5928 10.5717L27.0354 7.72461L28.4019 5.02023L29.3032 3.2551L30.2332 1.41398C30.3097 1.27126 30.3489 1.11153 30.3471 0.949614C30.3454 0.787701 30.3028 0.62885 30.2232 0.487806C30.1437 0.346761 30.0298 0.228093 29.8922 0.142815C29.7545 0.0575367 29.5976 0.00841207 29.4359 0L31.3339 0C31.4956 0.00842954 31.6525 0.0575669 31.7901 0.142852C31.9278 0.228138 32.0416 0.346807 32.1212 0.487849C32.2007 0.628891 32.2433 0.787735 32.245 0.94964C32.2468 1.11155 32.2076 1.27127 32.1311 1.41398Z" fill="#F5B945"/>
<path d="M24.8509 31.2217C24.6752 31.2221 24.5028 31.1737 24.3529 31.0819C24.203 30.9901 24.0816 30.8585 24.0021 30.7018C23.7813 30.2676 23.6756 29.784 23.6952 29.2972C23.7147 28.8105 23.8588 28.3369 24.1136 27.9218C24.3684 27.5067 24.7254 27.1639 25.1505 26.9262C25.5756 26.6885 26.0546 26.5639 26.5416 26.5642C27.0658 26.5642 27.4909 26.9893 27.4909 27.513C27.4909 27.7647 27.3909 28.0062 27.2128 28.1842C27.0348 28.3622 26.7934 28.4622 26.5416 28.4622C26.3413 28.4627 26.1463 28.5267 25.9846 28.6448C25.8228 28.763 25.7026 28.9293 25.6412 29.12C25.6014 29.2382 25.5859 29.3633 25.5955 29.4877C25.6051 29.6121 25.6396 29.7333 25.6971 29.844C25.7702 29.9885 25.8051 30.1494 25.7983 30.3112C25.7916 30.473 25.7436 30.6305 25.6587 30.7684C25.574 30.9065 25.4554 31.0205 25.3142 31.0997C25.1729 31.1789 25.0137 31.2206 24.8518 31.2208L24.8509 31.2217Z" fill="white"/>
<path d="M51.8038 37.6464C48.2426 48.5743 38.0639 55.9781 26.5704 55.9999C23.7624 55.9944 20.9728 55.546 18.3046 54.6713C6.73576 50.8772 -0.778123 39.7106 0.0642499 27.5646C0.90706 15.4188 9.89102 5.39649 21.8728 3.23627L22.7745 5.02009C11.4822 6.75951 2.86137 16.0236 1.93731 27.4113C1.01379 38.7993 8.02879 49.3317 18.893 52.8683C28.3814 55.9631 38.7998 53.037 45.2895 45.4546C51.7794 37.8723 53.0619 27.1271 48.5393 18.23C44.9367 11.1505 38.1498 6.23548 30.3 5.02009L31.2014 3.25508C32.4138 3.46605 33.6094 3.76412 34.7789 4.14699C48.7283 8.69982 56.349 23.6949 51.8039 37.6464H51.8038Z" fill="#9579DA"/>
<path d="M26.5418 36.0551C23.664 36.0529 21.1145 34.1978 20.2273 31.46C19.3401 28.7219 20.3166 25.7239 22.6464 24.0344C24.9767 22.3446 28.1295 22.3475 30.4564 24.0418C32.7832 25.7355 33.7546 28.7351 32.8623 31.4715C31.9767 34.2115 29.4214 36.0645 26.5418 36.0551ZM26.5418 24.6671C24.0638 24.6654 22.0005 26.5693 21.8032 29.0397C21.6063 31.51 23.341 33.7172 25.7882 34.1089C28.2356 34.5002 30.5726 32.9449 31.1561 30.5364C31.7396 28.1276 30.3735 25.6752 28.0185 24.9034C27.5421 24.7461 27.0436 24.6658 26.5418 24.6654V24.6671Z" fill="#CAD0D7"/>
</svg>
